SplineFontDB: 3.2
FontName: SeriousSansItalic
FullName: Serious Sans Italic
FamilyName: Serious Sans Italic
Weight: Book
Copyright: https://github.com/kaBeech/serious-sans/blob/main/LICENSE
Version: 0.2.0
ItalicAngle: 0
UnderlinePosition: 0
UnderlineWidth: 0
Ascent: 1638
Descent: 410
InvalidEm: 0
LayerCount: 2
Layer: 0 1 "Back" 1
Layer: 1 1 "Fore" 0
XUID: [1021 107 -322497659 2235226]
StyleMap: 0x0040
FSType: 4
OS2Version: 3
OS2_WeightWidthSlopeOnly: 0
OS2_UseTypoMetrics: 0
CreationTime: 1532631502
ModificationTime: 1679202369
PfmFamily: 81
TTFWeight: 400
TTFWidth: 5
LineGap: 0
VLineGap: 0
Panose: 0 0 0 0 0 0 0 0 0 0
OS2TypoAscent: 1255
OS2TypoAOffset: 0
OS2TypoDescent: -386
OS2TypoDOffset: 0
OS2TypoLinegap: 200
OS2WinAscent: 1594
OS2WinAOffset: 0
OS2WinDescent: 631
OS2WinDOffset: 0
HheadAscent: 1630
HheadAOffset: 0
HheadDescent: -650
HheadDOffset: 0
OS2SubXSize: 650
OS2SubYSize: 600
OS2SubXOff: 0
OS2SubYOff: 75
OS2SupXSize: 650
OS2SupYSize: 600
OS2SupXOff: 0
OS2SupYOff: 350
OS2StrikeYSize: 0
OS2StrikeYPos: 270
OS2CapHeight: 1180
OS2XHeight: 993
OS2Vendor: 'NONE'
OS2CodePages: 00000001.00000000
OS2UnicodeRanges: 00000001.00000000.00000000.00000000
MarkAttachClasses: 1
DEI: 91125
TtTable: prep
PUSHW_1
 511
SCANCTRL
PUSHB_1
 1
SCANTYPE
SVTCA[y-axis]
MPPEM
PUSHB_1
 8
LT
IF
PUSHB_2
 1
 1
INSTCTRL
EIF
PUSHB_2
 70
 6
CALL
IF
POP
PUSHB_1
 16
EIF
MPPEM
PUSHB_1
 20
GT
IF
POP
PUSHB_1
 128
EIF
SCVTCI
PUSHB_1
 6
CALL
NOT
IF
EIF
PUSHB_1
 20
CALL
EndTTInstrs
TtTable: fpgm
PUSHB_1
 0
FDEF
PUSHB_1
 0
SZP0
MPPEM
PUSHB_1
 42
LT
IF
PUSHB_1
 74
SROUND
EIF
PUSHB_1
 0
SWAP
MIAP[rnd]
RTG
PUSHB_1
 6
CALL
IF
RTDG
EIF
MPPEM
PUSHB_1
 42
LT
IF
RDTG
EIF
DUP
MDRP[rp0,rnd,grey]
PUSHB_1
 1
SZP0
MDAP[no-rnd]
RTG
ENDF
PUSHB_1
 1
FDEF
DUP
MDRP[rp0,min,white]
PUSHB_1
 12
CALL
ENDF
PUSHB_1
 2
FDEF
MPPEM
GT
IF
RCVT
SWAP
EIF
POP
ENDF
PUSHB_1
 3
FDEF
ROUND[Black]
RTG
DUP
PUSHB_1
 64
LT
IF
POP
PUSHB_1
 64
EIF
ENDF
PUSHB_1
 4
FDEF
PUSHB_1
 6
CALL
IF
POP
SWAP
POP
ROFF
IF
MDRP[rp0,min,rnd,black]
ELSE

StartChar: .notdef
Encoding: 65536 -1 0
Width: 1038
GlyphClass: 1
Flags: W
LayerCount: 2
Fore
SplineSet
-129 -548 m 1,0,-1
 351 1534 l 1,1,-1
 1167 1534 l 1,2,-1
 686 -548 l 1,3,-1
 -129 -548 l 1,0,-1
-2 -438 m 1,4,-1
 609 -438 l 1,5,-1
 1039 1424 l 1,6,-1
 428 1424 l 1,7,-1
 -2 -438 l 1,4,-1
EndSplineSet
EndChar

StartChar: exclam
Encoding: 33 33 1
Width: 1038
GlyphClass: 2
Flags: W
LayerCount: 2
Fore
SplineSet
813.4296875 1512 m 0,0,1
 809.4296875 1493 809.4296875 1493 743.4296875 1242 c 128,-1,2
 677.4296875 991 677.4296875 991 644.4296875 833 c 0,3,4
 612.4296875 679 612.4296875 679 601.9296875 649.5 c 128,-1,5
 591.4296875 620 591.4296875 620 578.4296875 554 c 1,6,7
 563.4296875 509 563.4296875 509 528.4296875 483.5 c 128,-1,8
 493.4296875 458 493.4296875 458 454.4296875 460 c 0,9,10
 416.4296875 460 416.4296875 460 397.9296875 487.5 c 128,-1,11
 379.4296875 515 379.4296875 515 394.4296875 565 c 0,12,13
 404.4296875 595 404.4296875 595 415.9296875 624.5 c 128,-1,14
 427.4296875 654 427.4296875 654 433.4296875 673.5 c 128,-1,15
 439.4296875 693 439.4296875 693 457.4296875 765.5 c 128,-1,16
 475.4296875 838 475.4296875 838 497.4296875 953 c 0,17,18
 512.4296875 1032 512.4296875 1032 532.9296875 1121.5 c 128,-1,19
 553.4296875 1211 553.4296875 1211 568.4296875 1270 c 128,-1,20
 583.4296875 1329 583.4296875 1329 602.9296875 1404.5 c 128,-1,21
 622.4296875 1480 622.4296875 1480 628.4296875 1505 c 0,22,23
 643.4296875 1561 643.4296875 1561 676.4296875 1589 c 128,-1,24
 709.4296875 1617 709.4296875 1617 748.4296875 1617 c 0,25,26
 789.4296875 1619 789.4296875 1619 807.9296875 1593.5 c 128,-1,27
 826.4296875 1568 826.4296875 1568 813.4296875 1512 c 0,0,1
346.4296875 -50 m 0,28,29
 274.4296875 -58 274.4296875 -58 241.4296875 -8.5 c 128,-1,30
 208.4296875 41 208.4296875 41 224.4296875 110 c 0,31,32
 238.4296875 172 238.4296875 172 297.9296875 217 c 128,-1,33
 357.4296875 262 357.4296875 262 419.4296875 265 c 0,34,35
 487.4296875 268 487.4296875 268 518.4296875 223 c 128,-1,36
 549.4296875 178 549.4296875 178 534.4296875 112 c 0,37,38
 519.4296875 47 519.4296875 47 468.4296875 2.5 c 128,-1,39
 417.4296875 -42 417.4296875 -42 346.4296875 -50 c 0,28,29
EndSplineSet
EndChar

StartChar: quotedbl
Encoding: 34 34 2
Width: 1038
GlyphClass: 2
Flags: W
LayerCount: 2
Fore
SplineSet
528.211914062 1512 m 0,0,1
 510.211914062 1428 510.211914062 1428 462.211914062 1236.5 c 128,-1,2
 414.211914062 1045 414.211914062 1045 389.211914062 973 c 0,3,4
 374.211914062 932 374.211914062 932 341.711914062 911 c 128,-1,5
 309.211914062 890 309.211914062 890 279.211914062 892 c 0,6,7
 241.211914062 894 241.211914062 894 216.711914062 918 c 128,-1,8
 192.211914062 942 192.211914062 942 207.211914062 986 c 0,9,10
 238.211914062 1090 238.211914062 1090 273.711914062 1253.5 c 128,-1,11
 309.211914062 1417 309.211914062 1417 329.211914062 1523 c 0,12,13
 333.211914062 1548 333.211914062 1548 347.711914062 1566 c 128,-1,14
 362.211914062 1584 362.211914062 1584 381.211914062 1591.5 c 128,-1,15
 400.211914062 1599 400.211914062 1599 418.211914062 1602 c 128,-1,16
 436.211914062 1605 436.211914062 1605 454.211914062 1604 c 0,17,18
 471.211914062 1604 471.211914062 1604 485.211914062 1599.5 c 128,-1,19
 499.211914062 1595 499.211914062 1595 511.211914062 1585.5 c 128,-1,20
 523.211914062 1576 523.211914062 1576 528.211914062 1557 c 128,-1,21
 533.211914062 1538 533.211914062 1538 528.211914062 1512 c 0,0,1
833.211914062 1512 m 0,22,23
 816.211914062 1429 816.211914062 1429 768.211914062 1237 c 128,-1,24
 720.211914062 1045 720.211914062 1045 695.211914062 973 c 0,25,26
 680.211914062 932 680.211914062 932 647.711914062 911 c 128,-1,27
 615.211914062 890 615.211914062 890 584.211914062 892 c 0,28,29
 547.211914062 894 547.211914062 894 522.711914062 918 c 128,-1,30
 498.211914062 942 498.211914062 942 513.211914062 986 c 0,31,32
 543.211914062 1090 543.211914062 1090 578.711914062 1253.5 c 128,-1,33
 614.211914062 1417 614.211914062 1417 634.211914062 1523 c 0,34,35
 639.211914062 1548 639.211914062 1548 653.711914062 1566 c 128,-1,36
 668.211914062 1584 668.211914062 1584 687.211914062 1591.5 c 128,-1,37
 706.211914062 1599 706.211914062 1599 723.711914062 1602 c 128,-1,38
 741.211914062 1605 741.211914062 1605 759.211914062 1604 c 0,39,40
 777.211914062 1604 777.211914062 1604 790.711914062 1599.5 c 128,-1,41
 804.211914062 1595 804.211914062 1595 816.711914062 1585.5 c 128,-1,42
 829.211914062 1576 829.211914062 1576 834.211914062 1557 c 128,-1,43
 839.211914062 1538 839.211914062 1538 833.211914062 1512 c 0,22,23
EndSplineSet
EndChar

StartChar: numbersign
Encoding: 35 35 3
Width: 1038
GlyphClass: 2
Flags: W
LayerCount: 2
Fore
SplineSet
148.192382812 85 m 1,0,1
 124.192382812 42 124.192382812 42 76.6923828125 14.5 c 128,-1,2
 29.1923828125 -13 29.1923828125 -13 -4.8076171875 0 c 1,3,4
 -37.8076171875 8 -37.8076171875 8 -44.8076171875 52 c 128,-1,5
 -51.8076171875 96 -51.8076171875 96 -24.8076171875 149 c 0,6,7
 3.1923828125 204 3.1923828125 204 83.1923828125 388 c 1,8,-1
 26.1923828125 388 l 2,9,10
 -21.8076171875 388 -21.8076171875 388 -41.8076171875 408 c 128,-1,11
 -61.8076171875 428 -61.8076171875 428 -53.8076171875 462 c 0,12,13
 -46.8076171875 499 -46.8076171875 499 -18.3076171875 524 c 128,-1,14
 10.1923828125 549 10.1923828125 549 60.1923828125 552 c 0,15,16
 75.1923828125 553 75.1923828125 553 106.692382812 554 c 128,-1,17
 138.192382812 555 138.192382812 555 154.192382812 556 c 1,18,-1
 301.192382812 909 l 1,19,20
 285.192382812 909 285.192382812 909 258.692382812 908 c 128,-1,21
 232.192382812 907 232.192382812 907 222.192382812 907 c 0,22,23
 174.192382812 905 174.192382812 905 154.692382812 929 c 128,-1,24
 135.192382812 953 135.192382812 953 143.192382812 988 c 0,25,26
 149.192382812 1024 149.192382812 1024 179.192382812 1050 c 128,-1,27
 209.192382812 1076 209.192382812 1076 259.192382812 1078 c 0,28,29
 296.192382812 1080 296.192382812 1080 371.192382812 1080 c 1,30,31
 497.192382812 1390 497.192382812 1390 500.192382812 1398 c 0,32,33
 527.192382812 1450 527.192382812 1450 563.692382812 1470 c 128,-1,34
 600.192382812 1490 600.192382812 1490 633.192382812 1481 c 0,35,36
 672.192382812 1472 672.192382812 1472 686.192382812 1439.5 c 128,-1,37
 700.192382812 1407 700.192382812 1407 677.192382812 1354 c 2,38,-1
 564.192382812 1084 l 1,39,-1
 780.192382812 1084 l 1,40,-1
 899.192382812 1382 l 1,41,42
 926.192382812 1436 926.192382812 1436 963.192382812 1456 c 128,-1,43
 1000.19238281 1476 1000.19238281 1476 1035.19238281 1466 c 0,44,45
 1075.19238281 1457 1075.19238281 1457 1089.19238281 1425 c 128,-1,46
 1103.19238281 1393 1103.19238281 1393 1077.19238281 1339 c 0,47,48
 1037.19238281 1254 1037.19238281 1254 972.192382812 1087 c 1,49,-1
 994.192382812 1087 l 2,50,51
 1040.19238281 1087 1040.19238281 1087 1064.69238281 1060 c 128,-1,52
 1089.19238281 1033 1089.19238281 1033 1083.19238281 1001 c 0,53,54
 1074.19238281 964 1074.19238281 964 1045.69238281 938.5 c 128,-1,55
 1017.19238281 913 1017.19238281 913 970.192382812 911 c 2,56,-1
 900.192382812 911 l 1,57,-1
 765.192382812 561 l 1,58,-1
 843.192382812 561 l 2,59,60
 888.192382812 561 888.192382812 561 900.192382812 540 c 128,-1,61
 912.192382812 519 912.192382812 519 906.192382812 484 c 0,62,63
 885.192382812 394 885.192382812 394 804.192382812 394 c 2,64,-1
 698.192382812 394 l 1,65,66
 606.192382812 161 606.192382812 161 570.192382812 77 c 1,67,68
 544.192382812 33 544.192382812 33 500.192382812 10.5 c 128,-1,69
 456.192382812 -12 456.192382812 -12 421.192382812 0 c 0,70,71
 388.192382812 8 388.192382812 8 379.692382812 48.5 c 128,-1,72
 371.192382812 89 371.192382812 89 397.192382812 140 c 0,73,74
 435.192382812 222 435.192382812 222 504.192382812 392 c 1,75,76
 465.192382812 392 465.192382812 392 388.692382812 391 c 128,-1,77
 312.192382812 390 312.192382812 390 277.192382812 390 c 1,78,79
 184.192382812 167 184.192382812 167 148.192382812 85 c 1,0,1
493.192382812 911 m 1,80,-1
 347.192382812 561 l 1,81,82
 425.192382812 563 425.192382812 563 572.192382812 563 c 1,83,84
 641.192382812 730 641.192382812 730 712.192382812 911 c 1,85,-1
 493.192382812 911 l 1,80,-1
EndSplineSet
EndChar

StartChar: dollar
Encoding: 36 36 4
Width: 1038
GlyphClass: 2
Flags: W
LayerCount: 2
Fore
SplineSet
413.979492188 -202 m 1,0,1
 398.979492188 -247 398.979492188 -247 364.479492188 -272 c 128,-1,2
 329.979492188 -297 329.979492188 -297 290.979492188 -296 c 0,3,4
 255.979492188 -296 255.979492188 -296 243.979492188 -269 c 128,-1,5
 231.979492188 -242 231.979492188 -242 248.979492188 -191 c 0,6,7
 263.979492188 -142 263.979492188 -142 282.979492188 -59 c 1,8,-1
 274.979492188 -59 l 2,9,10
 206.979492188 -59 206.979492188 -59 151.479492188 -41 c 128,-1,11
 95.9794921875 -23 95.9794921875 -23 59.4794921875 7.5 c 128,-1,12
 22.9794921875 38 22.9794921875 38 -0.0205078125 73.5 c 128,-1,13
 -23.0205078125 109 -23.0205078125 109 -34.0205078125 149 c 0,14,15
 -45.0205078125 204 -45.0205078125 204 -29.0205078125 239 c 128,-1,16
 -13.0205078125 274 -13.0205078125 274 22.9794921875 291 c 0,17,18
 47.9794921875 302 47.9794921875 302 62.9794921875 305.5 c 128,-1,19
 77.9794921875 309 77.9794921875 309 93.4794921875 307 c 128,-1,20
 108.979492188 305 108.979492188 305 121.479492188 291 c 128,-1,21
 133.979492188 277 133.979492188 277 144.979492188 250 c 0,22,23
 168.979492188 187 168.979492188 187 208.979492188 150.5 c 128,-1,24
 248.979492188 114 248.979492188 114 322.979492188 114 c 2,25,-1
 326.979492188 114 l 1,26,27
 409.979492188 456 409.979492188 456 471.979492188 725 c 1,28,29
 461.979492188 726 461.979492188 726 439.979492188 729.5 c 128,-1,30
 417.979492188 733 417.979492188 733 404.979492188 734 c 0,31,32
 338.979492188 742 338.979492188 742 290.479492188 772.5 c 128,-1,33
 241.979492188 803 241.979492188 803 216.979492188 846.5 c 128,-1,34
 191.979492188 890 191.979492188 890 184.479492188 939 c 128,-1,35
 176.979492188 988 176.979492188 988 187.979492188 1036 c 0,36,37
 204.979492188 1110 204.979492188 1110 241.979492188 1177.5 c 128,-1,38
 278.979492188 1245 278.979492188 1245 334.979492188 1303 c 128,-1,39
 390.979492188 1361 390.979492188 1361 470.479492188 1403 c 128,-1,40
 549.979492188 1445 549.979492188 1445 643.979492188 1463 c 1,41,42
 657.979492188 1512 657.979492188 1512 674.979492188 1582 c 0,43,44
 703.979492188 1694 703.979492188 1694 777.979492188 1694 c 0,45,46
 863.979492188 1697 863.979492188 1697 838.979492188 1588 c 2,47,-1
 813.979492188 1479 l 1,48,49
 855.979492188 1476 855.979492188 1476 926.479492188 1457.5 c 128,-1,50
 996.979492188 1439 996.979492188 1439 1030.97949219 1424 c 0,51,52
 1063.97949219 1410 1063.97949219 1410 1072.97949219 1379 c 128,-1,53
 1081.97949219 1348 1081.97949219 1348 1067.97949219 1312 c 0,54,55
 1059.97949219 1288 1059.97949219 1288 1043.97949219 1274.5 c 128,-1,56
 1027.97949219 1261 1027.97949219 1261 1009.47949219 1258.5 c 128,-1,57
 990.979492188 1256 990.979492188 1256 974.979492188 1257.5 c 128,-1,58
 958.979492188 1259 958.979492188 1259 943.979492188 1264 c 0,59,60
 926.979492188 1268 926.979492188 1268 903.979492188 1281.5 c 128,-1,61
 880.979492188 1295 880.979492188 1295 850.479492188 1305 c 128,-1,62
 819.979492188 1315 819.979492188 1315 773.979492188 1317 c 1,63,64
 732.979492188 1153 732.979492188 1153 667.979492188 883 c 1,65,66
 751.979492188 870 751.979492188 870 812.979492188 838.5 c 128,-1,67
 873.979492188 807 873.979492188 807 906.479492188 766 c 128,-1,68
 938.979492188 725 938.979492188 725 953.979492188 672 c 128,-1,69
 968.979492188 619 968.979492188 619 967.479492188 567.5 c 128,-1,70
 965.979492188 516 965.979492188 516 952.979492188 460 c 0,71,72
 930.979492188 366 930.979492188 366 881.979492188 282.5 c 128,-1,73
 832.979492188 199 832.979492188 199 765.479492188 137 c 128,-1,74
 697.979492188 75 697.979492188 75 617.479492188 30.5 c 128,-1,75
 536.979492188 -14 536.979492188 -14 448.979492188 -37 c 1,76,77
 420.979492188 -160 420.979492188 -160 413.979492188 -202 c 1,0,1
375.979492188 1087 m 0,78,79
 360.979492188 1022 360.979492188 1022 397.479492188 973 c 128,-1,80
 433.979492188 924 433.979492188 924 512.979492188 903 c 1,81,82
 547.979492188 1045 547.979492188 1045 605.979492188 1297 c 1,83,84
 517.979492188 1271 517.979492188 1271 455.479492188 1216.5 c 128,-1,85
 392.979492188 1162 392.979492188 1162 375.979492188 1087 c 0,78,79
767.979492188 425 m 0,86,87
 776.979492188 464 776.979492188 464 775.979492188 497 c 128,-1,88
 774.979492188 530 774.979492188 530 762.479492188 566 c 128,-1,89
 749.979492188 602 749.979492188 602 713.979492188 632.5 c 128,-1,90
 677.979492188 663 677.979492188 663 619.979492188 686 c 1,91,92
 597.979492188 595 597.979492188 595 555.479492188 414.5 c 128,-1,93
 512.979492188 234 512.979492188 234 491.979492188 151 c 1,94,95
 593.979492188 192 593.979492188 192 670.479492188 263.5 c 128,-1,96
 746.979492188 335 746.979492188 335 767.979492188 425 c 0,86,87
EndSplineSet
EndChar

StartChar: percent
Encoding: 37 37 5
Width: 1038
GlyphClass: 2
Flags: W
LayerCount: 2
Fore
SplineSet
320.779296875 885 m 0,0,1
 253.779296875 886 253.779296875 886 211.279296875 925 c 128,-1,2
 168.779296875 964 168.779296875 964 157.279296875 1024.5 c 128,-1,3
 145.779296875 1085 145.779296875 1085 162.779296875 1155 c 0,4,5
 191.779296875 1281 191.779296875 1281 276.279296875 1362.5 c 128,-1,6
 360.779296875 1444 360.779296875 1444 480.779296875 1444 c 0,7,8
 527.779296875 1444 527.779296875 1444 565.279296875 1427 c 128,-1,9
 602.779296875 1410 602.779296875 1410 627.279296875 1375 c 128,-1,10
 651.779296875 1340 651.779296875 1340 654.779296875 1279.5 c 128,-1,11
 657.779296875 1219 657.779296875 1219 634.779296875 1139 c 0,12,13
 599.779296875 1014 599.779296875 1014 523.279296875 949 c 128,-1,14
 446.779296875 884 446.779296875 884 320.779296875 885 c 0,0,1
-47.220703125 39 m 0,15,16
 12.779296875 127 12.779296875 127 227.279296875 408.5 c 128,-1,17
 441.779296875 690 441.779296875 690 658.279296875 977 c 128,-1,18
 874.779296875 1264 874.779296875 1264 953.779296875 1387 c 1,19,20
 984.779296875 1424 984.779296875 1424 1023.77929688 1433 c 128,-1,21
 1062.77929688 1442 1062.77929688 1442 1090.77929688 1422 c 0,22,23
 1120.77929688 1405 1120.77929688 1405 1118.27929688 1373.5 c 128,-1,24
 1115.77929688 1342 1115.77929688 1342 1080.77929688 1297 c 0,25,26
 980.779296875 1172 980.779296875 1172 596.779296875 660 c 128,-1,27
 212.779296875 148 212.779296875 148 84.779296875 -33 c 0,28,29
 12.779296875 -131 12.779296875 -131 -46.220703125 -96 c 0,30,31
 -114.220703125 -57 -114.220703125 -57 -47.220703125 39 c 0,15,16
376.779296875 1038 m 0,32,33
 423.779296875 1037 423.779296875 1037 456.279296875 1070 c 128,-1,34
 488.779296875 1103 488.779296875 1103 505.779296875 1159 c 0,35,36
 523.779296875 1229 523.779296875 1229 503.279296875 1262 c 128,-1,37
 482.779296875 1295 482.779296875 1295 431.779296875 1295 c 0,38,39
 385.779296875 1295 385.779296875 1295 352.779296875 1259 c 128,-1,40
 319.779296875 1223 319.779296875 1223 300.779296875 1161 c 0,41,42
 285.779296875 1104 285.779296875 1104 300.779296875 1073.5 c 128,-1,43
 315.779296875 1043 315.779296875 1043 376.779296875 1038 c 0,32,33
613.779296875 -57 m 0,44,45
 546.779296875 -56 546.779296875 -56 504.279296875 -17 c 128,-1,46
 461.779296875 22 461.779296875 22 449.779296875 82.5 c 128,-1,47
 437.779296875 143 437.779296875 143 454.779296875 213 c 0,48,49
 483.779296875 339 483.779296875 339 568.279296875 420.5 c 128,-1,50
 652.779296875 502 652.779296875 502 771.779296875 502 c 0,51,52
 819.779296875 502 819.779296875 502 857.279296875 485 c 128,-1,53
 894.779296875 468 894.779296875 468 919.779296875 433 c 128,-1,54
 944.779296875 398 944.779296875 398 947.279296875 337.5 c 128,-1,55
 949.779296875 277 949.779296875 277 925.779296875 197 c 0,56,57
 891.779296875 72 891.779296875 72 815.779296875 6.5 c 128,-1,58
 739.779296875 -59 739.779296875 -59 613.779296875 -57 c 0,44,45
668.779296875 99 m 0,59,60
 714.779296875 97 714.779296875 97 747.779296875 130.5 c 128,-1,61
 780.779296875 164 780.779296875 164 796.779296875 217 c 0,62,63
 830.779296875 351 830.779296875 351 723.779296875 351 c 0,64,65
 678.779296875 351 678.779296875 351 645.279296875 315 c 128,-1,66
 611.779296875 279 611.779296875 279 594.779296875 219 c 0,67,68
 579.779296875 163 579.779296875 163 594.779296875 132.5 c 128,-1,69
 609.779296875 102 609.779296875 102 668.779296875 99 c 0,59,60
EndSplineSet
EndChar

StartChar: ampersand
Encoding: 38 38 6
Width: 1038
GlyphClass: 2
Flags: W
LayerCount: 2
Fore
SplineSet
830.676757812 -72 m 0,0,1
 790.676757812 -95 790.676757812 -95 752.676757812 -71 c 128,-1,2
 714.676757812 -47 714.676757812 -47 697.676757812 11 c 0,3,4
 695.676757812 21 695.676757812 21 688.676757812 71.5 c 128,-1,5
 681.676757812 122 681.676757812 122 676.676757812 145 c 1,6,7
 669.676757812 137 669.676757812 137 645.176757812 110.5 c 128,-1,8
 620.676757812 84 620.676757812 84 608.176757812 72 c 128,-1,9
 595.676757812 60 595.676757812 60 568.676757812 35 c 128,-1,10
 541.676757812 10 541.676757812 10 522.676757812 -3 c 128,-1,11
 503.676757812 -16 503.676757812 -16 473.676757812 -34.5 c 128,-1,12
 443.676757812 -53 443.676757812 -53 417.176757812 -62 c 128,-1,13
 390.676757812 -71 390.676757812 -71 356.676757812 -78 c 128,-1,14
 322.676757812 -85 322.676757812 -85 288.676757812 -85 c 0,15,16
 181.676757812 -85 181.676757812 -85 106.676757812 -26.5 c 128,-1,17
 31.6767578125 32 31.6767578125 32 4.1767578125 128.5 c 128,-1,18
 -23.3232421875 225 -23.3232421875 225 2.6767578125 337 c 0,19,20
 91.6767578125 724 91.6767578125 724 421.676757812 865 c 1,21,22
 410.676757812 896 410.676757812 896 395.676757812 938 c 128,-1,23
 380.676757812 980 380.676757812 980 374.676757812 998 c 128,-1,24
 368.676757812 1016 368.676757812 1016 361.676757812 1044 c 128,-1,25
 354.676757812 1072 354.676757812 1072 354.676757812 1092.5 c 128,-1,26
 354.676757812 1113 354.676757812 1113 357.176757812 1142 c 128,-1,27
 359.676757812 1171 359.676757812 1171 367.676757812 1207 c 256,28,29
 375.676757812 1243 375.676757812 1243 393.676757812 1279 c 128,-1,30
 411.676757812 1315 411.676757812 1315 442.676757812 1352.5 c 128,-1,31
 473.676757812 1390 473.676757812 1390 513.176757812 1418.5 c 128,-1,32
 552.676757812 1447 552.676757812 1447 610.676757812 1465 c 128,-1,33
 668.676757812 1483 668.676757812 1483 735.676757812 1483 c 0,34,35
 791.676757812 1483 791.676757812 1483 840.176757812 1464 c 128,-1,36
 888.676757812 1445 888.676757812 1445 924.176757812 1409.5 c 128,-1,37
 959.676757812 1374 959.676757812 1374 972.176757812 1315.5 c 128,-1,38
 984.676757812 1257 984.676757812 1257 968.676757812 1185 c 0,39,40
 953.676757812 1120 953.676757812 1120 924.676757812 1063.5 c 128,-1,41
 895.676757812 1007 895.676757812 1007 863.176757812 969 c 128,-1,42
 830.676757812 931 830.676757812 931 786.176757812 896.5 c 128,-1,43
 741.676757812 862 741.676757812 862 707.176757812 841.5 c 128,-1,44
 672.676757812 821 672.676757812 821 626.676757812 800 c 1,45,46
 646.676757812 737 646.676757812 737 700.176757812 612 c 128,-1,47
 753.676757812 487 753.676757812 487 767.676757812 447 c 1,48,49
 786.676757812 475 786.676757812 475 811.176757812 513 c 128,-1,50
 835.676757812 551 835.676757812 551 851.676757812 575 c 128,-1,51
 867.676757812 599 867.676757812 599 876.676757812 609 c 0,52,53
 922.676757812 663 922.676757812 663 956.176757812 675.5 c 128,-1,54
 989.676757812 688 989.676757812 688 1021.67675781 668 c 0,55,56
 1050.67675781 651 1050.67675781 651 1047.67675781 607 c 128,-1,57
 1044.67675781 563 1044.67675781 563 1007.67675781 508 c 0,58,59
 993.676757812 489 993.676757812 489 931.676757812 425.5 c 128,-1,60
 869.676757812 362 869.676757812 362 825.676757812 309 c 1,61,62
 838.676757812 271 838.676757812 271 860.176757812 198 c 128,-1,63
 881.676757812 125 881.676757812 125 885.676757812 112 c 0,64,65
 901.676757812 62 901.676757812 62 882.676757812 3.5 c 128,-1,66
 863.676757812 -55 863.676757812 -55 830.676757812 -72 c 0,0,1
541.676757812 1172 m 0,67,68
 529.676757812 1121 529.676757812 1121 541.176757812 1059 c 128,-1,69
 552.676757812 997 552.676757812 997 578.676757812 951 c 1,70,71
 624.676757812 965 624.676757812 965 657.176757812 980.5 c 128,-1,72
 689.676757812 996 689.676757812 996 721.176757812 1020 c 128,-1,73
 752.676757812 1044 752.676757812 1044 773.176757812 1080 c 128,-1,74
 793.676757812 1116 793.676757812 1116 804.676757812 1166 c 0,75,76
 822.676757812 1242 822.676757812 1242 788.676757812 1281.5 c 128,-1,77
 754.676757812 1321 754.676757812 1321 693.676757812 1321 c 0,78,79
 575.676757812 1321 575.676757812 1321 541.676757812 1172 c 0,67,68
196.676757812 357 m 0,80,81
 171.676757812 250 171.676757812 250 210.176757812 178.5 c 128,-1,82
 248.676757812 107 248.676757812 107 334.676757812 107 c 0,83,84
 361.676757812 107 361.676757812 107 387.676757812 112.5 c 128,-1,85
 413.676757812 118 413.676757812 118 434.176757812 124.5 c 128,-1,86
 454.676757812 131 454.676757812 131 477.176757812 145.5 c 128,-1,87
 499.676757812 160 499.676757812 160 513.176757812 169 c 128,-1,88
 526.676757812 178 526.676757812 178 547.176757812 197.5 c 128,-1,89
 567.676757812 217 567.676757812 217 575.176757812 225 c 128,-1,90
 582.676757812 233 582.676757812 233 601.676757812 254.5 c 128,-1,91
 620.676757812 276 620.676757812 276 624.676757812 280 c 1,92,93
 609.676757812 360 609.676757812 360 596.676757812 405 c 0,94,95
 584.676757812 453 584.676757812 453 539.676757812 559 c 128,-1,96
 494.676757812 665 494.676757812 665 476.676757812 716 c 1,97,98
 413.676757812 689 413.676757812 689 364.676757812 649.5 c 128,-1,99
 315.676757812 610 315.676757812 610 283.176757812 562.5 c 128,-1,100
 250.676757812 515 250.676757812 515 230.676757812 465.5 c 128,-1,101
 210.676757812 416 210.676757812 416 196.676757812 357 c 0,80,81
EndSplineSet
EndChar

StartChar: quotesingle
Encoding: 39 39 7
Width: 1038
GlyphClass: 2
Flags: W
LayerCount: 2
Fore
SplineSet
675.690429688 1490 m 0,0,1
 658.690429688 1409 658.690429688 1409 615.690429688 1238 c 128,-1,2
 572.690429688 1067 572.690429688 1067 547.690429688 995 c 0,3,4
 532.690429688 953 532.690429688 953 500.190429688 932.5 c 128,-1,5
 467.690429688 912 467.690429688 912 436.690429688 914 c 0,6,7
 398.690429688 916 398.690429688 916 374.690429688 940 c 128,-1,8
 350.690429688 964 350.690429688 964 364.690429688 1008 c 0,9,10
 395.690429688 1115 395.690429688 1115 426.190429688 1253.5 c 128,-1,11
 456.690429688 1392 456.690429688 1392 476.690429688 1501 c 0,12,13
 481.690429688 1526 481.690429688 1526 495.690429688 1544 c 128,-1,14
 509.690429688 1562 509.690429688 1562 529.190429688 1569.5 c 128,-1,15
 548.690429688 1577 548.690429688 1577 566.190429688 1580 c 128,-1,16
 583.690429688 1583 583.690429688 1583 601.690429688 1582 c 0,17,18
 618.690429688 1582 618.690429688 1582 632.690429688 1577.5 c 128,-1,19
 646.690429688 1573 646.690429688 1573 659.690429688 1563.5 c 128,-1,20
 672.690429688 1554 672.690429688 1554 676.690429688 1535 c 128,-1,21
 680.690429688 1516 680.690429688 1516 675.690429688 1490 c 0,0,1
EndSplineSet
EndChar

StartChar: parenleft
Encoding: 40 40 8
Width: 1038
GlyphClass: 2
Flags: W
LayerCount: 2
Fore
SplineSet
521.102539062 -191 m 0,0,1
 513.102539062 -224 513.102539062 -224 483.102539062 -246.5 c 128,-1,2
 453.102539062 -269 453.102539062 -269 426.102539062 -269 c 0,3,4
 299.102539062 -269 299.102539062 -269 218.102539062 -170.5 c 128,-1,5
 137.102539062 -72 137.102539062 -72 112.102539062 102.5 c 128,-1,6
 87.1025390625 277 87.1025390625 277 119.102539062 504 c 0,7,8
 140.102539062 654 140.102539062 654 215.102539062 893.5 c 128,-1,9
 290.102539062 1133 290.102539062 1133 380.102539062 1288 c 0,10,11
 420.102539062 1356 420.102539062 1356 476.602539062 1422 c 128,-1,12
 533.102539062 1488 533.102539062 1488 598.602539062 1543.5 c 128,-1,13
 664.102539062 1599 664.102539062 1599 737.602539062 1633 c 128,-1,14
 811.102539062 1667 811.102539062 1667 875.102539062 1667 c 0,15,16
 952.102539062 1667 952.102539062 1667 933.102539062 1584 c 0,17,18
 923.102539062 1540 923.102539062 1540 895.102539062 1520.5 c 128,-1,19
 867.102539062 1501 867.102539062 1501 833.102539062 1501 c 0,20,21
 784.102539062 1501 784.102539062 1501 734.102539062 1470 c 128,-1,22
 684.102539062 1439 684.102539062 1439 639.102539062 1386 c 128,-1,23
 594.102539062 1333 594.102539062 1333 556.102539062 1269.5 c 128,-1,24
 518.102539062 1206 518.102539062 1206 485.102539062 1133 c 0,25,26
 436.102539062 1026 436.102539062 1026 383.602539062 840 c 128,-1,27
 331.102539062 654 331.102539062 654 313.102539062 537 c 0,28,29
 294.102539062 413 294.102539062 413 298.102539062 294.5 c 128,-1,30
 302.102539062 176 302.102539062 176 324.602539062 91.5 c 128,-1,31
 347.102539062 7 347.102539062 7 384.602539062 -44.5 c 128,-1,32
 422.102539062 -96 422.102539062 -96 466.102539062 -96 c 0,33,34
 503.102539062 -96 503.102539062 -96 518.102539062 -116.5 c 128,-1,35
 533.102539062 -137 533.102539062 -137 521.102539062 -191 c 0,0,1
EndSplineSet
EndChar

StartChar: parenright
Encoding: 41 41 9
Width: 1038
GlyphClass: 2
Flags: W
LayerCount: 2
Fore
SplineSet
827.831054688 504 m 0,0,1
 754.831054688 277 754.831054688 277 649.831054688 102.5 c 128,-1,2
 544.831054688 -72 544.831054688 -72 418.331054688 -170.5 c 128,-1,3
 291.831054688 -269 291.831054688 -269 163.831054688 -269 c 0,4,5
 136.831054688 -269 136.831054688 -269 116.831054688 -246.5 c 128,-1,6
 96.8310546875 -224 96.8310546875 -224 104.831054688 -191 c 0,7,8
 116.831054688 -137 116.831054688 -137 141.831054688 -116.5 c 128,-1,9
 166.831054688 -96 166.831054688 -96 203.831054688 -96 c 0,10,11
 248.831054688 -96 248.831054688 -96 309.831054688 -44.5 c 128,-1,12
 370.831054688 7 370.831054688 7 432.331054688 91.5 c 128,-1,13
 493.831054688 176 493.831054688 176 552.831054688 294.5 c 128,-1,14
 611.831054688 413 611.831054688 413 649.831054688 537 c 0,15,16
 686.831054688 654 686.831054688 654 719.331054688 840 c 128,-1,17
 751.831054688 1026 751.831054688 1026 752.831054688 1133 c 0,18,19
 753.831054688 1206 753.831054688 1206 744.831054688 1269.5 c 128,-1,20
 735.831054688 1333 735.831054688 1333 715.831054688 1386 c 128,-1,21
 695.831054688 1439 695.831054688 1439 659.831054688 1470 c 128,-1,22
 623.831054688 1501 623.831054688 1501 575.831054688 1501 c 0,23,24
 540.831054688 1501 540.831054688 1501 521.831054688 1520.5 c 128,-1,25
 502.831054688 1540 502.831054688 1540 512.831054688 1584 c 0,26,27
 518.831054688 1610 518.831054688 1610 530.331054688 1627.5 c 128,-1,28
 541.831054688 1645 541.831054688 1645 556.331054688 1653 c 128,-1,29
 570.831054688 1661 570.831054688 1661 583.331054688 1664 c 128,-1,30
 595.831054688 1667 595.831054688 1667 608.831054688 1667 c 0,31,32
 673.831054688 1667 673.831054688 1667 731.331054688 1633 c 128,-1,33
 788.831054688 1599 788.831054688 1599 828.331054688 1543.5 c 128,-1,34
 867.831054688 1488 867.831054688 1488 894.331054688 1422 c 128,-1,35
 920.831054688 1356 920.831054688 1356 928.831054688 1288 c 0,36,37
 947.831054688 1133 947.831054688 1133 912.331054688 893.5 c 128,-1,38
 876.831054688 654 876.831054688 654 827.831054688 504 c 0,0,1
EndSplineSet
EndChar

StartChar: asterisk
Encoding: 42 42 10
Width: 1038
GlyphClass: 2
Flags: W
LayerCount: 2
Fore
SplineSet
319.362304688 285 m 0,0,1
 306.362304688 261 306.362304688 261 284.862304688 248 c 128,-1,2
 263.362304688 235 263.362304688 235 241.362304688 233.5 c 128,-1,3
 219.362304688 232 219.362304688 232 200.362304688 236.5 c 128,-1,4
 181.362304688 241 181.362304688 241 169.362304688 250 c 0,5,6
 155.362304688 261 155.362304688 261 147.362304688 280.5 c 128,-1,7
 139.362304688 300 139.362304688 300 142.362304688 328 c 128,-1,8
 145.362304688 356 145.362304688 356 168.362304688 388 c 2,9,-1
 346.362304688 611 l 1,10,11
 187.362304688 600 187.362304688 600 113.362304688 600 c 0,12,13
 67.3623046875 600 67.3623046875 600 48.8623046875 632.5 c 128,-1,14
 30.3623046875 665 30.3623046875 665 39.3623046875 703 c 0,15,16
 42.3623046875 721 42.3623046875 721 51.3623046875 740 c 128,-1,17
 60.3623046875 759 60.3623046875 759 74.3623046875 777 c 128,-1,18
 88.3623046875 795 88.3623046875 795 110.362304688 805 c 128,-1,19
 132.362304688 815 132.362304688 815 156.362304688 813 c 0,20,21
 243.362304688 805 243.362304688 805 410.362304688 793 c 1,22,23
 363.362304688 942 363.362304688 942 328.362304688 1021 c 0,24,25
 312.362304688 1068 312.362304688 1068 327.862304688 1113.5 c 128,-1,26
 343.362304688 1159 343.362304688 1159 377.362304688 1174 c 0,27,28
 398.362304688 1187 398.362304688 1187 423.862304688 1187.5 c 128,-1,29
 449.362304688 1188 449.362304688 1188 472.862304688 1171.5 c 128,-1,30
 496.362304688 1155 496.362304688 1155 503.362304688 1122 c 0,31,32
 513.362304688 1072 513.362304688 1072 560.362304688 887 c 1,33,34
 668.362304688 1027 668.362304688 1027 729.362304688 1120 c 0,35,36
 750.362304688 1152 750.362304688 1152 779.362304688 1168.5 c 128,-1,37
 808.362304688 1185 808.362304688 1185 831.862304688 1184 c 128,-1,38
 855.362304688 1183 855.362304688 1183 870.362304688 1170 c 0,39,40
 886.362304688 1160 886.362304688 1160 893.862304688 1137.5 c 128,-1,41
 901.362304688 1115 901.362304688 1115 893.862304688 1083.5 c 128,-1,42
 886.362304688 1052 886.362304688 1052 861.362304688 1023 c 0,43,44
 778.362304688 927 778.362304688 927 671.362304688 784 c 1,45,46
 837.362304688 784 837.362304688 784 913.362304688 806 c 0,47,48
 959.362304688 820 959.362304688 820 982.862304688 790 c 128,-1,49
 1006.36230469 760 1006.36230469 760 1000.36230469 725 c 0,50,51
 996.362304688 707 996.362304688 707 987.862304688 688 c 128,-1,52
 979.362304688 669 979.362304688 669 965.862304688 650.5 c 128,-1,53
 952.362304688 632 952.362304688 632 932.362304688 622.5 c 128,-1,54
 912.362304688 613 912.362304688 613 890.362304688 618 c 0,55,56
 829.362304688 631 829.362304688 631 637.362304688 627 c 1,57,-1
 711.362304688 390 l 2,58,59
 722.362304688 343 722.362304688 343 708.862304688 306.5 c 128,-1,60
 695.362304688 270 695.362304688 270 667.362304688 254 c 0,61,62
 646.362304688 242 646.362304688 242 616.362304688 240 c 128,-1,63
 586.362304688 238 586.362304688 238 560.362304688 252 c 128,-1,64
 534.362304688 266 534.362304688 266 532.362304688 298 c 0,65,66
 527.362304688 380 527.362304688 380 488.362304688 535 c 1,67,68
 354.362304688 346 354.362304688 346 319.362304688 285 c 0,0,1
EndSplineSet
EndChar

StartChar: plus
Encoding: 43 43 11
Width: 1038
GlyphClass: 2
Flags: W
LayerCount: 2
Fore
SplineSet
522.782226562 513 m 0,0,1
 511.782226562 465 511.782226562 465 487.782226562 446 c 128,-1,2
 463.782226562 427 463.782226562 427 430.782226562 425 c 0,3,4
 347.782226562 425 347.782226562 425 368.782226562 513 c 2,5,-1
 418.782226562 732 l 1,6,7
 380.782226562 732 380.782226562 732 315.782226562 731 c 128,-1,8
 250.782226562 730 250.782226562 730 226.782226562 730 c 0,9,10
 179.782226562 730 179.782226562 730 162.282226562 755.5 c 128,-1,11
 144.782226562 781 144.782226562 781 152.782226562 817 c 0,12,13
 159.782226562 855 159.782226562 855 188.782226562 882 c 128,-1,14
 217.782226562 909 217.782226562 909 265.782226562 907 c 0,15,16
 398.782226562 903 398.782226562 903 458.782226562 903 c 1,17,18
 482.782226562 1006 482.782226562 1006 504.782226562 1124 c 0,19,20
 520.782226562 1212 520.782226562 1212 606.782226562 1212 c 0,21,22
 644.782226562 1214 644.782226562 1214 665.282226562 1195.5 c 128,-1,23
 685.782226562 1177 685.782226562 1177 670.782226562 1126 c 0,24,25
 636.782226562 1008 636.782226562 1008 611.782226562 900 c 1,26,-1
 821.782226562 900 l 2,27,28
 866.782226562 900 866.782226562 900 879.282226562 879.5 c 128,-1,29
 891.782226562 859 891.782226562 859 885.782226562 824 c 0,30,31
 881.782226562 805 881.782226562 805 874.782226562 790 c 128,-1,32
 867.782226562 775 867.782226562 775 856.282226562 760.5 c 128,-1,33
 844.782226562 746 844.782226562 746 826.282226562 739 c 128,-1,34
 807.782226562 732 807.782226562 732 783.782226562 734 c 0,35,36
 734.782226562 740 734.782226562 740 572.782226562 736 c 1,37,38
 559.782226562 680 559.782226562 680 543.282226562 604.5 c 128,-1,39
 526.782226562 529 526.782226562 529 522.782226562 513 c 0,0,1
EndSplineSet
EndChar

StartChar: comma
Encoding: 44 44 12
Width: 1038
GlyphClass: 2
Flags: W
LayerCount: 2
Fore
SplineSet
775.126953125 197 m 0,0,1
 732.126953125 97 732.126953125 97 621.126953125 -112 c 128,-1,2
 510.126953125 -321 510.126953125 -321 465.126953125 -370 c 0,3,4
 424.126953125 -414 424.126953125 -414 373.126953125 -432.5 c 128,-1,5
 322.126953125 -451 322.126953125 -451 294.126953125 -438 c 0,6,7
 276.126953125 -432 276.126953125 -432 264.126953125 -414 c 128,-1,8
 252.126953125 -396 252.126953125 -396 254.626953125 -369.5 c 128,-1,9
 257.126953125 -343 257.126953125 -343 282.126953125 -313 c 0,10,11
 335.126953125 -252 335.126953125 -252 453.626953125 -43.5 c 128,-1,12
 572.126953125 165 572.126953125 165 607.126953125 248 c 0,13,14
 619.126953125 276 619.126953125 276 644.126953125 292.5 c 128,-1,15
 669.126953125 309 669.126953125 309 692.626953125 309.5 c 128,-1,16
 716.126953125 310 716.126953125 310 737.126953125 305 c 0,17,18
 764.126953125 295 764.126953125 295 777.626953125 266.5 c 128,-1,19
 791.126953125 238 791.126953125 238 775.126953125 197 c 0,0,1
EndSplineSet
EndChar

StartChar: hyphen
Encoding: 45 45 13
Width: 1038
GlyphClass: 2
Flags: W
LayerCount: 2
Fore
SplineSet
322.98828125 675 m 0,0,1
 430.98828125 675 430.98828125 675 581.98828125 678 c 128,-1,2
 732.98828125 681 732.98828125 681 752.98828125 681 c 0,3,4
 797.98828125 681 797.98828125 681 810.48828125 660.5 c 128,-1,5
 822.98828125 640 822.98828125 640 816.98828125 605 c 0,6,7
 795.98828125 515 795.98828125 515 714.98828125 515 c 0,8,9
 689.98828125 515 689.98828125 515 520.98828125 506 c 128,-1,10
 351.98828125 497 351.98828125 497 284.98828125 497 c 0,11,12
 202.98828125 497 202.98828125 497 222.98828125 585 c 1,13,14
 238.98828125 675 238.98828125 675 322.98828125 675 c 0,0,1
EndSplineSet
EndChar

StartChar: period
Encoding: 46 46 14
Width: 1038
GlyphClass: 2
Flags: W
LayerCount: 2
Fore
SplineSet
486.166992188 -28 m 0,0,1
 414.166992188 -36 414.166992188 -36 381.166992188 13.5 c 128,-1,2
 348.166992188 63 348.166992188 63 364.166992188 131 c 0,3,4
 379.166992188 194 379.166992188 194 438.166992188 239 c 128,-1,5
 497.166992188 284 497.166992188 284 559.166992188 287 c 0,6,7
 627.166992188 290 627.166992188 290 658.166992188 245 c 128,-1,8
 689.166992188 200 689.166992188 200 674.166992188 134 c 0,9,10
 659.166992188 69 659.166992188 69 608.166992188 24.5 c 128,-1,11
 557.166992188 -20 557.166992188 -20 486.166992188 -28 c 0,0,1
EndSplineSet
EndChar

StartChar: slash
Encoding: 47 47 15
Width: 1038
GlyphClass: 2
Flags: W
LayerCount: 2
Fore
SplineSet
1135.21582031 1385 m 0,0,1
 1061.21582031 1280 1061.21582031 1280 738.215820312 871.5 c 128,-1,2
 415.215820312 463 415.215820312 463 343.215820312 364 c 0,3,4
 298.215820312 300 298.215820312 300 194.715820312 149 c 128,-1,5
 91.2158203125 -2 91.2158203125 -2 66.2158203125 -35 c 0,6,7
 22.2158203125 -92 22.2158203125 -92 -30.2841796875 -115 c 128,-1,8
 -82.7841796875 -138 -82.7841796875 -138 -111.784179688 -114 c 0,9,10
 -136.784179688 -97 -136.784179688 -97 -128.784179688 -38.5 c 128,-1,11
 -120.784179688 20 -120.784179688 20 -80.7841796875 70 c 0,12,13
 312.215820312 562 312.215820312 562 597.215820312 944 c 0,14,15
 776.215820312 1179 776.215820312 1179 983.215820312 1477 c 0,16,17
 1006.21582031 1509 1006.21582031 1509 1036.21582031 1526.5 c 128,-1,18
 1066.21582031 1544 1066.21582031 1544 1091.21582031 1543 c 128,-1,19
 1116.21582031 1542 1116.21582031 1542 1138.21582031 1531 c 0,20,21
 1168.21582031 1512 1168.21582031 1512 1168.71582031 1474.5 c 128,-1,22
 1169.21582031 1437 1169.21582031 1437 1135.21582031 1385 c 0,0,1
EndSplineSet
EndChar

StartChar: zero
Encoding: 48 48 16
Width: 1038
GlyphClass: 2
Flags: W
LayerCount: 2
Fore
SplineSet
308.579101562 -50 m 0,0,1
 219.579101562 -49 219.579101562 -49 152.079101562 -14.5 c 128,-1,2
 84.5791015625 20 84.5791015625 20 45.0791015625 82 c 128,-1,3
 5.5791015625 144 5.5791015625 144 -3.4208984375 235.5 c 128,-1,4
 -12.4208984375 327 -12.4208984375 327 15.5791015625 438 c 0,5,6
 20.5791015625 458 20.5791015625 458 38.0791015625 539 c 128,-1,7
 55.5791015625 620 55.5791015625 620 67.0791015625 668 c 128,-1,8
 78.5791015625 716 78.5791015625 716 101.079101562 801 c 128,-1,9
 123.579101562 886 123.579101562 886 144.079101562 947.5 c 128,-1,10
 164.579101562 1009 164.579101562 1009 194.579101562 1080 c 128,-1,11
 224.579101562 1151 224.579101562 1151 255.579101562 1205 c 0,12,13
 332.579101562 1335 332.579101562 1335 457.079101562 1402.5 c 128,-1,14
 581.579101562 1470 581.579101562 1470 738.579101562 1470 c 0,15,16
 815.579101562 1470 815.579101562 1470 876.579101562 1441.5 c 128,-1,17
 937.579101562 1413 937.579101562 1413 979.579101562 1358 c 128,-1,18
 1021.57910156 1303 1021.57910156 1303 1036.57910156 1214.5 c 128,-1,19
 1051.57910156 1126 1051.57910156 1126 1034.57910156 1012 c 0,20,21
 1018.57910156 910 1018.57910156 910 989.579101562 780 c 128,-1,22
 960.579101562 650 960.579101562 650 922.079101562 517 c 128,-1,23
 883.579101562 384 883.579101562 384 850.579101562 315 c 128,-1,24
 817.579101562 246 817.579101562 246 784.579101562 193 c 128,-1,25
 751.579101562 140 751.579101562 140 718.579101562 101 c 128,-1,26
 685.579101562 62 685.579101562 62 648.079101562 35 c 128,-1,27
 610.579101562 8 610.579101562 8 575.079101562 -8.5 c 128,-1,28
 539.579101562 -25 539.579101562 -25 495.079101562 -34.5 c 128,-1,29
 450.579101562 -44 450.579101562 -44 408.079101562 -47 c 128,-1,30
 365.579101562 -50 365.579101562 -50 308.579101562 -50 c 0,0,1
208.579101562 471 m 0,31,32
 206.579101562 462 206.579101562 462 204.079101562 446 c 128,-1,33
 201.579101562 430 201.579101562 430 199.579101562 423 c 1,34,35
 540.579101562 798 540.579101562 798 838.579101562 1194 c 1,36,37
 816.579101562 1247 816.579101562 1247 773.079101562 1275.5 c 128,-1,38
 729.579101562 1304 729.579101562 1304 670.579101562 1304 c 0,39,40
 564.579101562 1304 564.579101562 1304 490.579101562 1241 c 128,-1,41
 416.579101562 1178 416.579101562 1178 353.579101562 1036 c 0,42,43
 329.579101562 985 329.579101562 985 308.579101562 916 c 128,-1,44
 287.579101562 847 287.579101562 847 266.079101562 750 c 128,-1,45
 244.579101562 653 244.579101562 653 236.579101562 613 c 128,-1,46
 228.579101562 573 228.579101562 573 208.579101562 471 c 0,31,32
678.579101562 344 m 0,47,48
 691.579101562 369 691.579101562 369 725.579101562 479 c 128,-1,49
 759.579101562 589 759.579101562 589 796.579101562 732 c 128,-1,50
 833.579101562 875 833.579101562 875 853.579101562 1006 c 1,51,52
 544.579101562 555 544.579101562 555 196.579101562 250 c 1,53,54
 219.579101562 123 219.579101562 123 348.579101562 123 c 0,55,56
 400.579101562 123 400.579101562 123 442.579101562 132 c 128,-1,57
 484.579101562 141 484.579101562 141 526.579101562 164.5 c 128,-1,58
 568.579101562 188 568.579101562 188 606.579101562 233 c 128,-1,59
 644.579101562 278 644.579101562 278 678.579101562 344 c 0,47,48
EndSplineSet
EndChar

StartChar: one
Encoding: 49 49 17
Width: 1038
GlyphClass: 2
Flags: W
LayerCount: 2
Fore
SplineSet
983.651367188 77 m 0,0,1
 975.651367188 36 975.651367188 36 947.151367188 9 c 128,-1,2
 918.651367188 -18 918.651367188 -18 861.651367188 -18 c 0,3,4
 837.651367188 -18 837.651367188 -18 524.651367188 -14.5 c 128,-1,5
 211.651367188 -11 211.651367188 -11 117.651367188 -11 c 0,6,7
 74.6513671875 -11 74.6513671875 -11 61.1513671875 14 c 128,-1,8
 47.6513671875 39 47.6513671875 39 55.6513671875 77 c 0,9,10
 63.6513671875 118 63.6513671875 118 90.1513671875 145.5 c 128,-1,11
 116.651367188 173 116.651367188 173 161.651367188 173 c 0,12,13
 247.651367188 173 247.651367188 173 454.651367188 169 c 1,14,15
 473.651367188 250 473.651367188 250 482.651367188 302 c 0,16,17
 484.651367188 319 484.651367188 319 506.651367188 410 c 128,-1,18
 528.651367188 501 528.651367188 501 538.651367188 542.5 c 128,-1,19
 548.651367188 584 548.651367188 584 578.151367188 694.5 c 128,-1,20
 607.651367188 805 607.651367188 805 621.651367188 859.5 c 128,-1,21
 635.651367188 914 635.651367188 914 667.151367188 1031.5 c 128,-1,22
 698.651367188 1149 698.651367188 1149 714.651367188 1205 c 1,23,24
 544.651367188 1079 544.651367188 1079 472.651367188 1052 c 0,25,26
 431.651367188 1036 431.651367188 1036 401.151367188 1072.5 c 128,-1,27
 370.651367188 1109 370.651367188 1109 380.651367188 1146 c 0,28,29
 387.651367188 1178 387.651367188 1178 408.151367188 1204 c 128,-1,30
 428.651367188 1230 428.651367188 1230 468.651367188 1258 c 0,31,32
 534.651367188 1304 534.651367188 1304 607.651367188 1358 c 128,-1,33
 680.651367188 1412 680.651367188 1412 713.651367188 1436.5 c 128,-1,34
 746.651367188 1461 746.651367188 1461 779.151367188 1478.5 c 128,-1,35
 811.651367188 1496 811.651367188 1496 833.651367188 1496 c 0,36,37
 874.651367188 1496 874.651367188 1496 908.651367188 1459 c 128,-1,38
 942.651367188 1422 942.651367188 1422 936.651367188 1396 c 0,39,40
 924.651367188 1348 924.651367188 1348 847.651367188 1061 c 128,-1,41
 770.651367188 774 770.651367188 774 759.651367188 725 c 0,42,43
 712.651367188 521 712.651367188 521 682.651367188 383 c 0,44,45
 664.651367188 307 664.651367188 307 636.651367188 162 c 1,46,47
 691.651367188 161 691.651367188 161 752.651367188 159.5 c 128,-1,48
 813.651367188 158 813.651367188 158 852.651367188 157 c 128,-1,49
 891.651367188 156 891.651367188 156 905.651367188 156 c 0,50,51
 958.651367188 156 958.651367188 156 974.151367188 134 c 128,-1,52
 989.651367188 112 989.651367188 112 983.651367188 77 c 0,0,1
EndSplineSet
EndChar

StartChar: two
Encoding: 50 50 18
Width: 1038
GlyphClass: 2
Flags: W
LayerCount: 2
Fore
SplineSet
765.706054688 -24 m 0,0,1
 686.706054688 -24 686.706054688 -24 566.206054688 -28 c 128,-1,2
 445.706054688 -32 445.706054688 -32 353.206054688 -36 c 128,-1,3
 260.706054688 -40 260.706054688 -40 164.706054688 -40 c 128,-1,4
 68.7060546875 -40 68.7060546875 -40 15.7060546875 -33 c 0,5,6
 -25.2939453125 -28 -25.2939453125 -28 -31.7939453125 23 c 128,-1,7
 -38.2939453125 74 -38.2939453125 74 -15.2939453125 171 c 0,8,9
 5.7060546875 260 5.7060546875 260 62.7060546875 356 c 128,-1,10
 119.706054688 452 119.706054688 452 209.706054688 541.5 c 128,-1,11
 299.706054688 631 299.706054688 631 402.706054688 686 c 0,12,13
 635.706054688 809 635.706054688 809 705.706054688 858 c 0,14,15
 798.706054688 923 798.706054688 923 836.706054688 998 c 0,16,17
 857.706054688 1041 857.706054688 1041 872.706054688 1104 c 0,18,19
 896.706054688 1210 896.706054688 1210 850.706054688 1258 c 128,-1,20
 804.706054688 1306 804.706054688 1306 697.706054688 1306 c 0,21,22
 623.706054688 1306 623.706054688 1306 544.706054688 1257.5 c 128,-1,23
 465.706054688 1209 465.706054688 1209 414.706054688 1148 c 0,24,25
 390.706054688 1121 390.706054688 1121 372.206054688 1106.5 c 128,-1,26
 353.706054688 1092 353.706054688 1092 336.706054688 1090 c 128,-1,27
 319.706054688 1088 319.706054688 1088 306.706054688 1092 c 128,-1,28
 293.706054688 1096 293.706054688 1096 273.706054688 1106 c 0,29,30
 245.706054688 1124 245.706054688 1124 245.706054688 1158.5 c 128,-1,31
 245.706054688 1193 245.706054688 1193 282.706054688 1249 c 0,32,33
 310.706054688 1288 310.706054688 1288 357.206054688 1327.5 c 128,-1,34
 403.706054688 1367 403.706054688 1367 462.206054688 1401.5 c 128,-1,35
 520.706054688 1436 520.706054688 1436 591.706054688 1457.5 c 128,-1,36
 662.706054688 1479 662.706054688 1479 728.706054688 1479 c 0,37,38
 934.706054688 1479 934.706054688 1479 1018.20605469 1376.5 c 128,-1,39
 1101.70605469 1274 1101.70605469 1274 1053.70605469 1069 c 0,40,41
 1014.70605469 900 1014.70605469 900 910.706054688 797 c 0,42,43
 833.706054688 721 833.706054688 721 659.706054688 629 c 0,44,45
 615.706054688 605 615.706054688 605 510.706054688 552 c 0,46,47
 417.706054688 505 417.706054688 505 346.706054688 437 c 128,-1,48
 275.706054688 369 275.706054688 369 234.706054688 297 c 128,-1,49
 193.706054688 225 193.706054688 225 169.706054688 142 c 1,50,51
 274.706054688 136 274.706054688 136 373.206054688 135.5 c 128,-1,52
 471.706054688 135 471.706054688 135 527.706054688 138.5 c 128,-1,53
 583.706054688 142 583.706054688 142 657.206054688 148 c 128,-1,54
 730.706054688 154 730.706054688 154 755.706054688 156 c 0,55,56
 757.706054688 156 757.706054688 156 773.706054688 157 c 128,-1,57
 789.706054688 158 789.706054688 158 795.206054688 158 c 128,-1,58
 800.706054688 158 800.706054688 158 814.206054688 157.5 c 128,-1,59
 827.706054688 157 827.706054688 157 833.706054688 153 c 128,-1,60
 839.706054688 149 839.706054688 149 847.206054688 143.5 c 128,-1,61
 854.706054688 138 854.706054688 138 857.206054688 127.5 c 128,-1,62
 859.706054688 117 859.706054688 117 857.706054688 103 c 0,63,64
 854.706054688 79 854.706054688 79 843.706054688 50.5 c 128,-1,65
 832.706054688 22 832.706054688 22 811.206054688 -1 c 128,-1,66
 789.706054688 -24 789.706054688 -24 765.706054688 -24 c 0,0,1
EndSplineSet
EndChar

StartChar: three
Encoding: 51 51 19
Width: 1038
GlyphClass: 2
Flags: W
LayerCount: 2
Fore
SplineSet
908.198242188 407 m 0,0,1
 860.198242188 197 860.198242188 197 710.198242188 73.5 c 128,-1,2
 560.198242188 -50 560.198242188 -50 344.198242188 -50 c 0,3,4
 277.198242188 -50 277.198242188 -50 216.198242188 -28.5 c 128,-1,5
 155.198242188 -7 155.198242188 -7 112.698242188 27 c 128,-1,6
 70.1982421875 61 70.1982421875 61 41.6982421875 101 c 128,-1,7
 13.1982421875 141 13.1982421875 141 3.1982421875 180 c 0,8,9
 -7.8017578125 228 -7.8017578125 228 8.6982421875 266.5 c 128,-1,10
 25.1982421875 305 25.1982421875 305 60.1982421875 322 c 0,11,12
 102.198242188 342 102.198242188 342 132.198242188 332.5 c 128,-1,13
 162.198242188 323 162.198242188 323 182.198242188 280 c 0,14,15
 210.198242188 218 210.198242188 218 264.198242188 170.5 c 128,-1,16
 318.198242188 123 318.198242188 123 392.198242188 123 c 0,17,18
 505.198242188 123 505.198242188 123 595.198242188 193 c 128,-1,19
 685.198242188 263 685.198242188 263 710.198242188 372 c 0,20,21
 725.198242188 439 725.198242188 439 717.698242188 488.5 c 128,-1,22
 710.198242188 538 710.198242188 538 677.198242188 575.5 c 128,-1,23
 644.198242188 613 644.198242188 613 576.198242188 632 c 128,-1,24
 508.198242188 651 508.198242188 651 408.198242188 651 c 0,25,26
 369.198242188 651 369.198242188 651 348.698242188 684.5 c 128,-1,27
 328.198242188 718 328.198242188 718 337.198242188 760 c 0,28,29
 347.198242188 803 347.198242188 803 374.198242188 830 c 128,-1,30
 401.198242188 857 401.198242188 857 441.198242188 857 c 0,31,32
 601.198242188 857 601.198242188 857 707.698242188 925.5 c 128,-1,33
 814.198242188 994 814.198242188 994 841.198242188 1124 c 1,34,35
 865.198242188 1217 865.198242188 1217 813.198242188 1261.5 c 128,-1,36
 761.198242188 1306 761.198242188 1306 645.198242188 1306 c 0,37,38
 622.198242188 1306 622.198242188 1306 600.698242188 1301.5 c 128,-1,39
 579.198242188 1297 579.198242188 1297 563.698242188 1292 c 128,-1,40
 548.198242188 1287 548.198242188 1287 529.698242188 1274 c 128,-1,41
 511.198242188 1261 511.198242188 1261 500.698242188 1253.5 c 128,-1,42
 490.198242188 1246 490.198242188 1246 471.698242188 1227.5 c 128,-1,43
 453.198242188 1209 453.198242188 1209 446.198242188 1201.5 c 128,-1,44
 439.198242188 1194 439.198242188 1194 420.198242188 1172 c 0,45,46
 379.198242188 1127 379.198242188 1127 345.698242188 1118.5 c 128,-1,47
 312.198242188 1110 312.198242188 1110 280.198242188 1130 c 0,48,49
 252.198242188 1147 252.198242188 1147 253.698242188 1185 c 128,-1,50
 255.198242188 1223 255.198242188 1223 288.198242188 1273 c 0,51,52
 316.198242188 1313 316.198242188 1313 353.198242188 1348 c 128,-1,53
 390.198242188 1383 390.198242188 1383 438.198242188 1413.5 c 128,-1,54
 486.198242188 1444 486.198242188 1444 547.698242188 1461.5 c 128,-1,55
 609.198242188 1479 609.198242188 1479 676.198242188 1479 c 0,56,57
 895.198242188 1479 895.198242188 1479 982.698242188 1380.5 c 128,-1,58
 1070.19824219 1282 1070.19824219 1282 1022.19824219 1089 c 0,59,60
 1009.19824219 1030 1009.19824219 1030 983.698242188 981.5 c 128,-1,61
 958.198242188 933 958.198242188 933 925.198242188 900 c 128,-1,62
 892.198242188 867 892.198242188 867 850.698242188 841.5 c 128,-1,63
 809.198242188 816 809.198242188 816 768.698242188 801.5 c 128,-1,64
 728.198242188 787 728.198242188 787 684.198242188 778 c 1,65,66
 758.198242188 760 758.198242188 760 806.698242188 733.5 c 128,-1,67
 855.198242188 707 855.198242188 707 886.198242188 664.5 c 128,-1,68
 917.198242188 622 917.198242188 622 922.698242188 558.5 c 128,-1,69
 928.198242188 495 928.198242188 495 908.198242188 407 c 0,0,1
EndSplineSet
EndChar

StartChar: four
Encoding: 52 52 20
Width: 1038
GlyphClass: 2
Flags: W
LayerCount: 2
Fore
SplineSet
735.57421875 112 m 0,0,1
 732.57421875 46 732.57421875 46 699.57421875 -1 c 128,-1,2
 666.57421875 -48 666.57421875 -48 623.57421875 -48 c 0,3,4
 588.57421875 -48 588.57421875 -48 561.07421875 -18 c 128,-1,5
 533.57421875 12 533.57421875 12 538.57421875 44 c 0,6,7
 543.57421875 68 543.57421875 68 556.07421875 123 c 128,-1,8
 568.57421875 178 568.57421875 178 593.07421875 281 c 128,-1,9
 617.57421875 384 617.57421875 384 634.57421875 458 c 1,10,11
 288.57421875 463 288.57421875 463 147.57421875 432 c 0,12,13
 116.57421875 425 116.57421875 425 93.57421875 434 c 128,-1,14
 70.57421875 443 70.57421875 443 61.07421875 463 c 128,-1,15
 51.57421875 483 51.57421875 483 49.57421875 509.5 c 128,-1,16
 47.57421875 536 47.57421875 536 54.57421875 565 c 128,-1,17
 61.57421875 594 61.57421875 594 76.57421875 620 c 0,18,19
 109.57421875 678 109.57421875 678 222.57421875 807.5 c 128,-1,20
 335.57421875 937 335.57421875 937 512.07421875 1128.5 c 128,-1,21
 688.57421875 1320 688.57421875 1320 763.57421875 1407 c 0,22,23
 797.57421875 1445 797.57421875 1445 833.57421875 1465 c 128,-1,24
 869.57421875 1485 869.57421875 1485 897.57421875 1485 c 0,25,26
 936.57421875 1489 936.57421875 1489 964.07421875 1470.5 c 128,-1,27
 991.57421875 1452 991.57421875 1452 988.57421875 1407 c 0,28,29
 983.57421875 1335 983.57421875 1335 955.57421875 1186 c 128,-1,30
 927.57421875 1037 927.57421875 1037 905.57421875 933.5 c 128,-1,31
 883.57421875 830 883.57421875 830 838.57421875 620 c 1,32,33
 870.57421875 618 870.57421875 618 911.57421875 618 c 0,34,35
 956.57421875 618 956.57421875 618 969.07421875 597 c 128,-1,36
 981.57421875 576 981.57421875 576 975.57421875 541 c 0,37,38
 954.57421875 451 954.57421875 451 872.57421875 451 c 0,39,40
 834.57421875 451 834.57421875 451 802.57421875 453 c 1,41,42
 736.57421875 153 736.57421875 153 735.57421875 112 c 0,0,1
799.57421875 1233 m 1,43,44
 425.57421875 836 425.57421875 836 273.57421875 616 c 1,45,46
 424.57421875 626 424.57421875 626 672.57421875 622 c 1,47,48
 761.57421875 1006 761.57421875 1006 799.57421875 1233 c 1,43,44
EndSplineSet
EndChar

StartChar: five
Encoding: 53 53 21
Width: 1038
GlyphClass: 2
Flags: W
LayerCount: 2
Fore
SplineSet
937.345703125 607 m 0,0,1
 902.345703125 455 902.345703125 455 838.845703125 333 c 128,-1,2
 775.345703125 211 775.345703125 211 692.345703125 130 c 128,-1,3
 609.345703125 49 609.345703125 49 510.845703125 6 c 128,-1,4
 412.345703125 -37 412.345703125 -37 305.345703125 -37 c 0,5,6
 221.345703125 -37 221.345703125 -37 154.845703125 -18 c 128,-1,7
 88.345703125 1 88.345703125 1 47.845703125 33 c 128,-1,8
 7.345703125 65 7.345703125 65 -16.154296875 101 c 128,-1,9
 -39.654296875 137 -39.654296875 137 -50.654296875 177 c 0,10,11
 -60.654296875 233 -60.654296875 233 -45.654296875 267.5 c 128,-1,12
 -30.654296875 302 -30.654296875 302 7.345703125 320 c 0,13,14
 31.345703125 330 31.345703125 330 45.845703125 334 c 128,-1,15
 60.345703125 338 60.345703125 338 76.845703125 336 c 128,-1,16
 93.345703125 334 93.345703125 334 104.845703125 319.5 c 128,-1,17
 116.345703125 305 116.345703125 305 127.345703125 278 c 0,18,19
 181.345703125 136 181.345703125 136 327.345703125 136 c 0,20,21
 470.345703125 136 470.345703125 136 582.345703125 257 c 128,-1,22
 694.345703125 378 694.345703125 378 742.345703125 583 c 0,23,24
 771.345703125 710 771.345703125 710 735.845703125 785.5 c 128,-1,25
 700.345703125 861 700.345703125 861 592.345703125 861 c 0,26,27
 563.345703125 861 563.345703125 861 535.845703125 857 c 128,-1,28
 508.345703125 853 508.345703125 853 488.345703125 848.5 c 128,-1,29
 468.345703125 844 468.345703125 844 444.345703125 833.5 c 128,-1,30
 420.345703125 823 420.345703125 823 407.345703125 816.5 c 128,-1,31
 394.345703125 810 394.345703125 810 372.345703125 794 c 128,-1,32
 350.345703125 778 350.345703125 778 342.845703125 772 c 128,-1,33
 335.345703125 766 335.345703125 766 312.345703125 747 c 128,-1,34
 289.345703125 728 289.345703125 728 283.345703125 723 c 0,35,36
 264.345703125 708 264.345703125 708 240.845703125 698 c 128,-1,37
 217.345703125 688 217.345703125 688 189.845703125 685 c 128,-1,38
 162.345703125 682 162.345703125 682 138.345703125 694 c 0,39,40
 110.345703125 709 110.345703125 709 105.345703125 758 c 128,-1,41
 100.345703125 807 100.345703125 807 114.345703125 879 c 128,-1,42
 128.345703125 951 128.345703125 951 146.845703125 1017.5 c 128,-1,43
 165.345703125 1084 165.345703125 1084 187.845703125 1160 c 128,-1,44
 210.345703125 1236 210.345703125 1236 217.345703125 1266 c 1,45,46
 207.345703125 1292 207.345703125 1292 211.345703125 1326 c 128,-1,47
 215.345703125 1360 215.345703125 1360 229.345703125 1389 c 128,-1,48
 243.345703125 1418 243.345703125 1418 267.345703125 1438.5 c 128,-1,49
 291.345703125 1459 291.345703125 1459 318.345703125 1459 c 0,50,51
 389.345703125 1459 389.345703125 1459 650.345703125 1454.5 c 128,-1,52
 911.345703125 1450 911.345703125 1450 1048.34570312 1450 c 0,53,54
 1072.34570312 1450 1072.34570312 1450 1083.34570312 1427 c 128,-1,55
 1094.34570312 1404 1094.34570312 1404 1092.34570312 1375.5 c 128,-1,56
 1090.34570312 1347 1090.34570312 1347 1082.34570312 1323 c 0,57,58
 1077.34570312 1309 1077.34570312 1309 1070.34570312 1298.5 c 128,-1,59
 1063.34570312 1288 1063.34570312 1288 1052.84570312 1282.5 c 128,-1,60
 1042.34570312 1277 1042.34570312 1277 1034.84570312 1273.5 c 128,-1,61
 1027.34570312 1270 1027.34570312 1270 1013.34570312 1269 c 128,-1,62
 999.345703125 1268 999.345703125 1268 993.845703125 1268 c 128,-1,63
 988.345703125 1268 988.345703125 1268 972.845703125 1269.5 c 128,-1,64
 957.345703125 1271 957.345703125 1271 955.345703125 1271 c 0,65,66
 928.345703125 1272 928.345703125 1272 861.345703125 1278 c 128,-1,67
 794.345703125 1284 794.345703125 1284 741.345703125 1287.5 c 128,-1,68
 688.345703125 1291 688.345703125 1291 593.345703125 1291 c 128,-1,69
 498.345703125 1291 498.345703125 1291 392.345703125 1284 c 1,70,71
 386.345703125 1263 386.345703125 1263 360.845703125 1165 c 128,-1,72
 335.345703125 1067 335.345703125 1067 324.345703125 1023 c 128,-1,73
 313.345703125 979 313.345703125 979 296.345703125 898 c 1,74,75
 364.345703125 961 364.345703125 961 464.845703125 1002 c 128,-1,76
 565.345703125 1043 565.345703125 1043 682.345703125 1043 c 0,77,78
 767.345703125 1043 767.345703125 1043 827.345703125 1009 c 128,-1,79
 887.345703125 975 887.345703125 975 917.345703125 916 c 128,-1,80
 947.345703125 857 947.345703125 857 952.845703125 778 c 128,-1,81
 958.345703125 699 958.345703125 699 937.345703125 607 c 0,0,1
EndSplineSet
EndChar

StartChar: six
Encoding: 54 54 22
Width: 1038
GlyphClass: 2
Flags: W
LayerCount: 2
Fore
SplineSet
957.53515625 504 m 0,0,1
 931.53515625 390 931.53515625 390 872.53515625 288 c 128,-1,2
 813.53515625 186 813.53515625 186 736.53515625 113 c 128,-1,3
 659.53515625 40 659.53515625 40 564.53515625 -3 c 128,-1,4
 469.53515625 -46 469.53515625 -46 374.53515625 -46 c 0,5,6
 257.53515625 -46 257.53515625 -46 180.53515625 3 c 128,-1,7
 103.53515625 52 103.53515625 52 68.53515625 143 c 128,-1,8
 33.53515625 234 33.53515625 234 35.03515625 360.5 c 128,-1,9
 36.53515625 487 36.53515625 487 75.53515625 646 c 0,10,11
 118.53515625 823 118.53515625 823 182.03515625 963.5 c 128,-1,12
 245.53515625 1104 245.53515625 1104 322.03515625 1200.5 c 128,-1,13
 398.53515625 1297 398.53515625 1297 493.53515625 1363.5 c 128,-1,14
 588.53515625 1430 588.53515625 1430 688.53515625 1464.5 c 128,-1,15
 788.53515625 1499 788.53515625 1499 904.53515625 1509 c 0,16,17
 949.53515625 1513 949.53515625 1513 978.03515625 1495.5 c 128,-1,18
 1006.53515625 1478 1006.53515625 1478 1002.53515625 1439 c 0,19,20
 999.53515625 1414 999.53515625 1414 967.53515625 1384.5 c 128,-1,21
 935.53515625 1355 935.53515625 1355 902.53515625 1345 c 0,22,23
 880.53515625 1339 880.53515625 1339 834.53515625 1329 c 128,-1,24
 788.53515625 1319 788.53515625 1319 756.53515625 1309.5 c 128,-1,25
 724.53515625 1300 724.53515625 1300 678.53515625 1281.5 c 128,-1,26
 632.53515625 1263 632.53515625 1263 583.53515625 1228 c 128,-1,27
 534.53515625 1193 534.53515625 1193 483.53515625 1144 c 0,28,29
 429.53515625 1090 429.53515625 1090 373.03515625 998.5 c 128,-1,30
 316.53515625 907 316.53515625 907 290.53515625 835 c 1,31,32
 367.53515625 910 367.53515625 910 470.53515625 948 c 128,-1,33
 573.53515625 986 573.53515625 986 689.53515625 986 c 0,34,35
 777.53515625 986 777.53515625 986 840.03515625 959 c 128,-1,36
 902.53515625 932 902.53515625 932 940.03515625 875 c 128,-1,37
 977.53515625 818 977.53515625 818 982.03515625 724.5 c 128,-1,38
 986.53515625 631 986.53515625 631 957.53515625 504 c 0,0,1
209.53515625 471 m 0,39,40
 202.53515625 426 202.53515625 426 205.03515625 379.5 c 128,-1,41
 207.53515625 333 207.53515625 333 221.03515625 286.5 c 128,-1,42
 234.53515625 240 234.53515625 240 258.53515625 204.5 c 128,-1,43
 282.53515625 169 282.53515625 169 323.03515625 147.5 c 128,-1,44
 363.53515625 126 363.53515625 126 416.53515625 127 c 0,45,46
 486.53515625 127 486.53515625 127 561.53515625 180 c 128,-1,47
 636.53515625 233 636.53515625 233 691.53515625 314.5 c 128,-1,48
 746.53515625 396 746.53515625 396 766.53515625 480 c 0,49,50
 788.53515625 576 788.53515625 576 787.53515625 641 c 128,-1,51
 786.53515625 706 786.53515625 706 761.53515625 741 c 128,-1,52
 736.53515625 776 736.53515625 776 697.53515625 790 c 128,-1,53
 658.53515625 804 658.53515625 804 598.53515625 804 c 0,54,55
 502.53515625 804 502.53515625 804 406.53515625 751 c 128,-1,56
 310.53515625 698 310.53515625 698 239.53515625 616 c 1,57,58
 218.53515625 528 218.53515625 528 209.53515625 471 c 0,39,40
EndSplineSet
EndChar

StartChar: seven
Encoding: 55 55 23
Width: 1038
GlyphClass: 2
Flags: W
LayerCount: 2
Fore
SplineSet
144.220703125 53 m 0,0,1
 109.220703125 -1 109.220703125 -1 66.720703125 -27.5 c 128,-1,2
 24.220703125 -54 24.220703125 -54 -9.779296875 -46 c 0,3,4
 -48.779296875 -36 -48.779296875 -36 -55.779296875 4 c 128,-1,5
 -62.779296875 44 -62.779296875 44 -31.779296875 90 c 0,6,7
 114.220703125 301 114.220703125 301 273.220703125 509.5 c 128,-1,8
 432.220703125 718 432.220703125 718 533.720703125 842 c 128,-1,9
 635.220703125 966 635.220703125 966 724.220703125 1083.5 c 128,-1,10
 813.220703125 1201 813.220703125 1201 852.220703125 1273 c 1,11,12
 688.220703125 1279 688.220703125 1279 499.720703125 1274 c 128,-1,13
 311.220703125 1269 311.220703125 1269 250.220703125 1253 c 0,14,15
 226.220703125 1247 226.220703125 1247 210.220703125 1255 c 128,-1,16
 194.220703125 1263 194.220703125 1263 186.720703125 1279.5 c 128,-1,17
 179.220703125 1296 179.220703125 1296 178.220703125 1315 c 128,-1,18
 177.220703125 1334 177.220703125 1334 180.220703125 1352 c 0,19,20
 188.220703125 1388 188.220703125 1388 210.720703125 1410 c 128,-1,21
 233.220703125 1432 233.220703125 1432 282.220703125 1442 c 0,22,23
 356.220703125 1456 356.220703125 1456 481.720703125 1460 c 128,-1,24
 607.220703125 1464 607.220703125 1464 710.720703125 1460.5 c 128,-1,25
 814.220703125 1457 814.220703125 1457 913.720703125 1452.5 c 128,-1,26
 1013.22070312 1448 1013.22070312 1448 1021.22070312 1448 c 0,27,28
 1041.22070312 1448 1041.22070312 1448 1058.72070312 1438.5 c 128,-1,29
 1076.22070312 1429 1076.22070312 1429 1087.72070312 1408.5 c 128,-1,30
 1099.22070312 1388 1099.22070312 1388 1092.72070312 1356 c 128,-1,31
 1086.22070312 1324 1086.22070312 1324 1057.22070312 1279 c 0,32,33
 1016.22070312 1217 1016.22070312 1217 917.720703125 1093.5 c 128,-1,34
 819.220703125 970 819.220703125 970 714.220703125 840 c 128,-1,35
 609.220703125 710 609.220703125 710 451.220703125 494.5 c 128,-1,36
 293.220703125 279 293.220703125 279 144.220703125 53 c 0,0,1
EndSplineSet
EndChar

StartChar: eight
Encoding: 56 56 24
Width: 1038
GlyphClass: 2
Flags: W
LayerCount: 2
Fore
SplineSet
956.856445312 418 m 0,0,1
 941.856445312 352 941.856445312 352 910.356445312 287 c 128,-1,2
 878.856445312 222 878.856445312 222 826.356445312 159 c 128,-1,3
 773.856445312 96 773.856445312 96 707.356445312 49 c 128,-1,4
 640.856445312 2 640.856445312 2 548.856445312 -27.5 c 128,-1,5
 456.856445312 -57 456.856445312 -57 350.856445312 -57 c 0,6,7
 254.856445312 -57 254.856445312 -57 183.856445312 -29 c 128,-1,8
 112.856445312 -1 112.856445312 -1 74.3564453125 44 c 128,-1,9
 35.8564453125 89 35.8564453125 89 17.3564453125 150 c 128,-1,10
 -1.1435546875 211 -1.1435546875 211 -0.6435546875 273 c 128,-1,11
 -0.1435546875 335 -0.1435546875 335 14.8564453125 401 c 0,12,13
 30.8564453125 471 30.8564453125 471 81.8564453125 550.5 c 128,-1,14
 132.856445312 630 132.856445312 630 210.856445312 698 c 128,-1,15
 288.856445312 766 288.856445312 766 370.856445312 793 c 1,16,17
 280.856445312 844 280.856445312 844 243.856445312 926.5 c 128,-1,18
 206.856445312 1009 206.856445312 1009 226.856445312 1095 c 0,19,20
 232.856445312 1120 232.856445312 1120 242.856445312 1148 c 128,-1,21
 252.856445312 1176 252.856445312 1176 272.856445312 1213.5 c 128,-1,22
 292.856445312 1251 292.856445312 1251 318.356445312 1285.5 c 128,-1,23
 343.856445312 1320 343.856445312 1320 382.856445312 1354.5 c 128,-1,24
 421.856445312 1389 421.856445312 1389 467.856445312 1414 c 128,-1,25
 513.856445312 1439 513.856445312 1439 577.356445312 1454.5 c 128,-1,26
 640.856445312 1470 640.856445312 1470 711.856445312 1470 c 0,27,28
 784.856445312 1470 784.856445312 1470 842.356445312 1454.5 c 128,-1,29
 899.856445312 1439 899.856445312 1439 934.856445312 1414 c 128,-1,30
 969.856445312 1389 969.856445312 1389 992.856445312 1354.5 c 128,-1,31
 1015.85644531 1320 1015.85644531 1320 1025.85644531 1285.5 c 128,-1,32
 1035.85644531 1251 1035.85644531 1251 1037.85644531 1212 c 128,-1,33
 1039.85644531 1173 1039.85644531 1173 1036.85644531 1144 c 128,-1,34
 1033.85644531 1115 1033.85644531 1115 1027.85644531 1087 c 0,35,36
 1021.85644531 1062 1021.85644531 1062 1010.35644531 1038 c 128,-1,37
 998.856445312 1014 998.856445312 1014 985.356445312 995 c 128,-1,38
 971.856445312 976 971.856445312 976 951.356445312 955.5 c 128,-1,39
 930.856445312 935 930.856445312 935 914.856445312 921 c 128,-1,40
 898.856445312 907 898.856445312 907 872.856445312 889 c 128,-1,41
 846.856445312 871 846.856445312 871 832.356445312 861.5 c 128,-1,42
 817.856445312 852 817.856445312 852 791.856445312 835.5 c 128,-1,43
 765.856445312 819 765.856445312 819 755.856445312 813 c 1,44,45
 818.856445312 781 818.856445312 781 862.856445312 739.5 c 128,-1,46
 906.856445312 698 906.856445312 698 928.856445312 658 c 128,-1,47
 950.856445312 618 950.856445312 618 959.856445312 573 c 128,-1,48
 968.856445312 528 968.856445312 528 967.356445312 492 c 128,-1,49
 965.856445312 456 965.856445312 456 956.856445312 418 c 0,0,1
407.856445312 1102 m 0,50,51
 391.856445312 1034 391.856445312 1034 437.856445312 981.5 c 128,-1,52
 483.856445312 929 483.856445312 929 605.856445312 876 c 1,53,54
 693.856445312 910 693.856445312 910 768.856445312 970.5 c 128,-1,55
 843.856445312 1031 843.856445312 1031 854.856445312 1082 c 0,56,57
 867.856445312 1139 867.856445312 1139 850.856445312 1194.5 c 128,-1,58
 833.856445312 1250 833.856445312 1250 787.356445312 1287 c 128,-1,59
 740.856445312 1324 740.856445312 1324 677.856445312 1323 c 0,60,61
 588.856445312 1323 588.856445312 1323 507.856445312 1254 c 128,-1,62
 426.856445312 1185 426.856445312 1185 407.856445312 1102 c 0,50,51
399.856445312 118 m 0,63,64
 455.856445312 117 455.856445312 117 514.856445312 135 c 128,-1,65
 573.856445312 153 573.856445312 153 626.356445312 186.5 c 128,-1,66
 678.856445312 220 678.856445312 220 718.356445312 272.5 c 128,-1,67
 757.856445312 325 757.856445312 325 771.856445312 386 c 0,68,69
 779.856445312 419 779.856445312 419 781.356445312 448.5 c 128,-1,70
 782.856445312 478 782.856445312 478 773.856445312 516.5 c 128,-1,71
 764.856445312 555 764.856445312 555 742.356445312 588 c 128,-1,72
 719.856445312 621 719.856445312 621 674.356445312 656.5 c 128,-1,73
 628.856445312 692 628.856445312 692 561.856445312 721 c 1,74,75
 414.856445312 682 414.856445312 682 307.856445312 586 c 128,-1,76
 200.856445312 490 200.856445312 490 174.856445312 381 c 0,77,78
 156.856445312 305 156.856445312 305 185.856445312 243.5 c 128,-1,79
 214.856445312 182 214.856445312 182 272.356445312 150.5 c 128,-1,80
 329.856445312 119 329.856445312 119 399.856445312 118 c 0,63,64
EndSplineSet
EndChar

StartChar: nine
Encoding: 57 57 25
Width: 1038
GlyphClass: 2
Flags: W
LayerCount: 2
Fore
SplineSet
113.11328125 -46 m 0,0,1
 68.11328125 -50 68.11328125 -50 39.11328125 -32 c 128,-1,2
 10.11328125 -14 10.11328125 -14 14.11328125 24 c 0,3,4
 17.11328125 50 17.11328125 50 49.11328125 79 c 128,-1,5
 81.11328125 108 81.11328125 108 114.11328125 118 c 0,6,7
 137.11328125 125 137.11328125 125 186.61328125 135.5 c 128,-1,8
 236.11328125 146 236.11328125 146 275.61328125 156.5 c 128,-1,9
 315.11328125 167 315.11328125 167 366.11328125 186 c 128,-1,10
 417.11328125 205 417.11328125 205 468.11328125 237.5 c 128,-1,11
 519.11328125 270 519.11328125 270 567.11328125 315 c 0,12,13
 628.11328125 375 628.11328125 375 683.61328125 453.5 c 128,-1,14
 739.11328125 532 739.11328125 532 766.11328125 596 c 1,15,16
 698.11328125 531 698.11328125 531 610.11328125 506.5 c 128,-1,17
 522.11328125 482 522.11328125 482 399.11328125 482 c 0,18,19
 315.11328125 482 315.11328125 482 249.11328125 524 c 128,-1,20
 183.11328125 566 183.11328125 566 145.61328125 635 c 128,-1,21
 108.11328125 704 108.11328125 704 97.61328125 795 c 128,-1,22
 87.11328125 886 87.11328125 886 109.11328125 981 c 0,23,24
 135.11328125 1095 135.11328125 1095 193.61328125 1194.5 c 128,-1,25
 252.11328125 1294 252.11328125 1294 329.11328125 1364 c 128,-1,26
 406.11328125 1434 406.11328125 1434 499.61328125 1474 c 128,-1,27
 593.11328125 1514 593.11328125 1514 689.11328125 1514 c 0,28,29
 922.11328125 1514 922.11328125 1514 992.61328125 1323 c 128,-1,30
 1063.11328125 1132 1063.11328125 1132 977.11328125 776 c 0,31,32
 938.11328125 613 938.11328125 613 871.11328125 480.5 c 128,-1,33
 804.11328125 348 804.11328125 348 722.11328125 256 c 128,-1,34
 640.11328125 164 640.11328125 164 539.11328125 98.5 c 128,-1,35
 438.11328125 33 438.11328125 33 333.11328125 -1 c 128,-1,36
 228.11328125 -35 228.11328125 -35 113.11328125 -46 c 0,0,1
301.11328125 1006 m 0,37,38
 262.11328125 838 262.11328125 838 309.61328125 751 c 128,-1,39
 357.11328125 664 357.11328125 664 490.11328125 664 c 0,40,41
 574.11328125 664 574.11328125 664 663.61328125 705 c 128,-1,42
 753.11328125 746 753.11328125 746 817.11328125 817 c 1,43,44
 833.11328125 877 833.11328125 877 853.11328125 997 c 0,45,46
 860.11328125 1042 860.11328125 1042 857.61328125 1088.5 c 128,-1,47
 855.11328125 1135 855.11328125 1135 841.61328125 1181.5 c 128,-1,48
 828.11328125 1228 828.11328125 1228 804.11328125 1263.5 c 128,-1,49
 780.11328125 1299 780.11328125 1299 739.61328125 1320.5 c 128,-1,50
 699.11328125 1342 699.11328125 1342 647.11328125 1341 c 0,51,52
 576.11328125 1341 576.11328125 1341 502.61328125 1292.5 c 128,-1,53
 429.11328125 1244 429.11328125 1244 374.61328125 1166.5 c 128,-1,54
 320.11328125 1089 320.11328125 1089 301.11328125 1006 c 0,37,38
EndSplineSet
EndChar

StartChar: colon
Encoding: 58 58 26
Width: 1038
GlyphClass: 2
Flags: W
LayerCount: 2
Fore
SplineSet
716.928710938 854 m 0,0,1
 705.928710938 787 705.928710938 787 668.928710938 710 c 0,2,3
 649.928710938 669 649.928710938 669 613.428710938 648 c 128,-1,4
 576.928710938 627 576.928710938 627 546.928710938 629 c 0,5,6
 433.928710938 636 433.928710938 636 445.928710938 723 c 0,7,8
 453.928710938 779 453.928710938 779 475.928710938 865 c 0,9,10
 482.928710938 891 482.928710938 891 500.428710938 908.5 c 128,-1,11
 517.928710938 926 517.928710938 926 540.928710938 934 c 128,-1,12
 563.928710938 942 563.928710938 942 583.428710938 944.5 c 128,-1,13
 602.928710938 947 602.928710938 947 621.928710938 946 c 0,14,15
 638.928710938 946 638.928710938 946 655.428710938 942 c 128,-1,16
 671.928710938 938 671.928710938 938 688.428710938 928.5 c 128,-1,17
 704.928710938 919 704.928710938 919 712.428710938 900 c 128,-1,18
 719.928710938 881 719.928710938 881 716.928710938 854 c 0,0,1
591.928710938 307 m 0,19,20
 586.928710938 236 586.928710938 236 549.928710938 160 c 0,21,22
 530.928710938 120 530.928710938 120 488.928710938 99.5 c 128,-1,23
 446.928710938 79 446.928710938 79 413.928710938 81 c 0,24,25
 375.928710938 83 375.928710938 83 345.928710938 107.5 c 128,-1,26
 315.928710938 132 315.928710938 132 320.928710938 175 c 0,27,28
 328.928710938 219 328.928710938 219 330.928710938 229.5 c 128,-1,29
 332.928710938 240 332.928710938 240 342.428710938 271 c 128,-1,30
 351.928710938 302 351.928710938 302 356.928710938 318 c 0,31,32
 362.928710938 343 362.928710938 343 379.928710938 361 c 128,-1,33
 396.928710938 379 396.928710938 379 418.928710938 386.5 c 128,-1,34
 440.928710938 394 440.928710938 394 460.428710938 397 c 128,-1,35
 479.928710938 400 479.928710938 400 496.928710938 399 c 0,36,37
 519.928710938 399 519.928710938 399 540.928710938 391.5 c 128,-1,38
 561.928710938 384 561.928710938 384 577.928710938 362 c 128,-1,39
 593.928710938 340 593.928710938 340 591.928710938 307 c 0,19,20
EndSplineSet
EndChar

StartChar: semicolon
Encoding: 59 59 27
Width: 1038
GlyphClass: 2
Flags: W
LayerCount: 2
Fore
SplineSet
828.883789062 769 m 0,0,1
 817.883789062 701 817.883789062 701 780.883789062 624 c 0,2,3
 761.883789062 583 761.883789062 583 725.383789062 562 c 128,-1,4
 688.883789062 541 688.883789062 541 658.883789062 543 c 0,5,6
 634.883789062 545 634.883789062 545 611.383789062 554.5 c 128,-1,7
 587.883789062 564 587.883789062 564 570.883789062 586 c 128,-1,8
 553.883789062 608 553.883789062 608 557.883789062 638 c 0,9,10
 565.883789062 694 565.883789062 694 588.883789062 780 c 0,11,12
 595.883789062 805 595.883789062 805 613.383789062 823 c 128,-1,13
 630.883789062 841 630.883789062 841 653.383789062 848.5 c 128,-1,14
 675.883789062 856 675.883789062 856 696.383789062 859 c 128,-1,15
 716.883789062 862 716.883789062 862 733.883789062 861 c 0,16,17
 751.883789062 861 751.883789062 861 767.883789062 857 c 128,-1,18
 783.883789062 853 783.883789062 853 800.383789062 843.5 c 128,-1,19
 816.883789062 834 816.883789062 834 824.383789062 814.5 c 128,-1,20
 831.883789062 795 831.883789062 795 828.883789062 769 c 0,0,1
648.883789062 151 m 0,21,22
 628.883789062 86 628.883789062 86 401.883789062 -383 c 0,23,24
 381.883789062 -425 381.883789062 -425 349.383789062 -444.5 c 128,-1,25
 316.883789062 -464 316.883789062 -464 286.883789062 -462 c 0,26,27
 248.883789062 -460 248.883789062 -460 223.883789062 -436 c 128,-1,28
 198.883789062 -412 198.883789062 -412 213.883789062 -368 c 0,29,30
 228.883789062 -319 228.883789062 -319 308.883789062 -128.5 c 128,-1,31
 388.883789062 62 388.883789062 62 433.883789062 162 c 0,32,33
 447.883789062 193 447.883789062 193 463.383789062 211.5 c 128,-1,34
 478.883789062 230 478.883789062 230 493.383789062 235.5 c 128,-1,35
 507.883789062 241 507.883789062 241 523.883789062 243.5 c 128,-1,36
 539.883789062 246 539.883789062 246 553.883789062 243 c 0,37,38
 571.883789062 243 571.883789062 243 589.883789062 238.5 c 128,-1,39
 607.883789062 234 607.883789062 234 625.883789062 224.5 c 128,-1,40
 643.883789062 215 643.883789062 215 650.883789062 196 c 128,-1,41
 657.883789062 177 657.883789062 177 648.883789062 151 c 0,21,22
EndSplineSet
EndChar

StartChar: less
Encoding: 60 60 28
Width: 1038
GlyphClass: 2
Flags: W
LayerCount: 2
Fore
SplineSet
758.190429688 28 m 0,0,1
 744.190429688 7 744.190429688 7 722.190429688 -6.5 c 128,-1,2
 700.190429688 -20 700.190429688 -20 666.190429688 -24.5 c 128,-1,3
 632.190429688 -29 632.190429688 -29 592.190429688 -13 c 0,4,5
 548.190429688 3 548.190429688 3 490.690429688 58.5 c 128,-1,6
 433.190429688 114 433.190429688 114 370.190429688 191.5 c 128,-1,7
 307.190429688 269 307.190429688 269 245.690429688 349 c 128,-1,8
 184.190429688 429 184.190429688 429 115.190429688 513 c 128,-1,9
 46.1904296875 597 46.1904296875 597 -4.8095703125 646 c 0,10,11
 -24.8095703125 665 -24.8095703125 665 -24.3095703125 701 c 128,-1,12
 -23.8095703125 737 -23.8095703125 737 -6.8095703125 770.5 c 128,-1,13
 10.1904296875 804 10.1904296875 804 37.1904296875 819 c 0,14,15
 165.190429688 905 165.190429688 905 341.190429688 1035.5 c 128,-1,16
 517.190429688 1166 517.190429688 1166 662.690429688 1271 c 128,-1,17
 808.190429688 1376 808.190429688 1376 917.190429688 1437 c 0,18,19
 951.190429688 1457 951.190429688 1457 978.190429688 1459 c 128,-1,20
 1005.19042969 1461 1005.19042969 1461 1021.69042969 1449 c 128,-1,21
 1038.19042969 1437 1038.19042969 1437 1047.69042969 1421 c 128,-1,22
 1057.19042969 1405 1057.19042969 1405 1060.19042969 1387 c 0,23,24
 1069.19042969 1352 1069.19042969 1352 1040.19042969 1316 c 128,-1,25
 1011.19042969 1280 1011.19042969 1280 935.190429688 1231 c 0,26,27
 811.190429688 1151 811.190429688 1151 551.190429688 968.5 c 128,-1,28
 291.190429688 786 291.190429688 786 220.190429688 738 c 1,29,30
 279.190429688 677 279.190429688 677 350.690429688 589 c 128,-1,31
 422.190429688 501 422.190429688 501 474.690429688 430.5 c 128,-1,32
 527.190429688 360 527.190429688 360 590.190429688 286.5 c 128,-1,33
 653.190429688 213 653.190429688 213 704.190429688 171 c 0,34,35
 755.190429688 128 755.190429688 128 767.690429688 95.5 c 128,-1,36
 780.190429688 63 780.190429688 63 758.190429688 28 c 0,0,1
EndSplineSet
EndChar

StartChar: equal
Encoding: 61 61 29
Width: 1038
GlyphClass: 2
Flags: W
LayerCount: 2
Fore
SplineSet
310.555664062 1082 m 0,0,1
 418.555664062 1078 418.555664062 1078 533.055664062 1078 c 128,-1,2
 647.555664062 1078 647.555664062 1078 748.055664062 1080 c 128,-1,3
 848.555664062 1082 848.555664062 1082 868.555664062 1082 c 0,4,5
 913.555664062 1082 913.555664062 1082 926.055664062 1061.5 c 128,-1,6
 938.555664062 1041 938.555664062 1041 932.555664062 1006 c 0,7,8
 928.555664062 987 928.555664062 987 921.555664062 971.5 c 128,-1,9
 914.555664062 956 914.555664062 956 903.055664062 942 c 128,-1,10
 891.555664062 928 891.555664062 928 873.055664062 920.5 c 128,-1,11
 854.555664062 913 854.555664062 913 830.555664062 916 c 0,12,13
 762.555664062 919 762.555664062 919 686.555664062 917 c 128,-1,14
 610.555664062 915 610.555664062 915 476.555664062 911 c 128,-1,15
 342.555664062 907 342.555664062 907 279.555664062 907 c 0,16,17
 232.555664062 907 232.555664062 907 211.555664062 932 c 128,-1,18
 190.555664062 957 190.555664062 957 198.555664062 992 c 0,19,20
 205.555664062 1030 205.555664062 1030 234.055664062 1057 c 128,-1,21
 262.555664062 1084 262.555664062 1084 310.555664062 1082 c 0,0,1
222.555664062 675 m 0,22,23
 372.555664062 672 372.555664062 672 573.055664062 676.5 c 128,-1,24
 773.555664062 681 773.555664062 681 776.555664062 681 c 0,25,26
 821.555664062 681 821.555664062 681 833.555664062 660.5 c 128,-1,27
 845.555664062 640 845.555664062 640 839.555664062 605 c 0,28,29
 835.555664062 586 835.555664062 586 828.555664062 571 c 128,-1,30
 821.555664062 556 821.555664062 556 810.055664062 541.5 c 128,-1,31
 798.555664062 527 798.555664062 527 780.055664062 519.5 c 128,-1,32
 761.555664062 512 761.555664062 512 738.555664062 515 c 0,33,34
 670.555664062 518 670.555664062 518 592.055664062 516.5 c 128,-1,35
 513.555664062 515 513.555664062 515 377.555664062 510.5 c 128,-1,36
 241.555664062 506 241.555664062 506 179.555664062 506 c 0,37,38
 132.555664062 506 132.555664062 506 115.055664062 531.5 c 128,-1,39
 97.5556640625 557 97.5556640625 557 106.555664062 594 c 0,40,41
 112.555664062 629 112.555664062 629 143.055664062 652.5 c 128,-1,42
 173.555664062 676 173.555664062 676 222.555664062 675 c 0,22,23
EndSplineSet
EndChar

StartChar: greater
Encoding: 62 62 30
Width: 1038
GlyphClass: 2
Flags: W
LayerCount: 2
Fore
SplineSet
120.809570312 11 m 0,0,1
 87.8095703125 -8 87.8095703125 -8 60.3095703125 -10.5 c 128,-1,2
 32.8095703125 -13 32.8095703125 -13 16.3095703125 -1 c 128,-1,3
 -0.1904296875 11 -0.1904296875 11 -9.1904296875 27 c 128,-1,4
 -18.1904296875 43 -18.1904296875 43 -22.1904296875 61 c 0,5,6
 -31.1904296875 96 -31.1904296875 96 -2.1904296875 132 c 128,-1,7
 26.8095703125 168 26.8095703125 168 103.809570312 217 c 0,8,9
 227.809570312 297 227.809570312 297 487.809570312 479.5 c 128,-1,10
 747.809570312 662 747.809570312 662 818.809570312 710 c 1,11,12
 758.809570312 771 758.809570312 771 687.309570312 859 c 128,-1,13
 615.809570312 947 615.809570312 947 563.309570312 1017.5 c 128,-1,14
 510.809570312 1088 510.809570312 1088 447.809570312 1161.5 c 128,-1,15
 384.809570312 1235 384.809570312 1235 333.809570312 1277 c 0,16,17
 282.809570312 1320 282.809570312 1320 270.309570312 1352.5 c 128,-1,18
 257.809570312 1385 257.809570312 1385 279.809570312 1420 c 0,19,20
 293.809570312 1441 293.809570312 1441 316.309570312 1454.5 c 128,-1,21
 338.809570312 1468 338.809570312 1468 372.309570312 1472.5 c 128,-1,22
 405.809570312 1477 405.809570312 1477 445.809570312 1461 c 0,23,24
 489.809570312 1445 489.809570312 1445 547.809570312 1390 c 128,-1,25
 605.809570312 1335 605.809570312 1335 668.309570312 1257 c 128,-1,26
 730.809570312 1179 730.809570312 1179 792.309570312 1099 c 128,-1,27
 853.809570312 1019 853.809570312 1019 922.809570312 935 c 128,-1,28
 991.809570312 851 991.809570312 851 1043.80957031 802 c 0,29,30
 1062.80957031 783 1062.80957031 783 1062.30957031 747 c 128,-1,31
 1061.80957031 711 1061.80957031 711 1044.80957031 677.5 c 128,-1,32
 1027.80957031 644 1027.80957031 644 1000.80957031 629 c 0,33,34
 872.809570312 544 872.809570312 544 696.809570312 413 c 128,-1,35
 520.809570312 282 520.809570312 282 375.309570312 177.5 c 128,-1,36
 229.809570312 73 229.809570312 73 120.809570312 11 c 0,0,1
EndSplineSet
EndChar

StartChar: question
Encoding: 63 63 31
Width: 1038
GlyphClass: 2
Flags: W
LayerCount: 2
Fore
SplineSet
458.642578125 537 m 0,0,1
 438.642578125 484 438.642578125 484 404.642578125 455.5 c 128,-1,2
 370.642578125 427 370.642578125 427 321.642578125 440 c 0,3,4
 271.642578125 455 271.642578125 455 264.142578125 493.5 c 128,-1,5
 256.642578125 532 256.642578125 532 286.642578125 598 c 0,6,7
 312.642578125 654 312.642578125 654 350.142578125 702.5 c 128,-1,8
 387.642578125 751 387.642578125 751 425.142578125 786 c 128,-1,9
 462.642578125 821 462.642578125 821 503.642578125 852.5 c 128,-1,10
 544.642578125 884 544.642578125 884 581.642578125 912 c 128,-1,11
 618.642578125 940 618.642578125 940 650.142578125 968.5 c 128,-1,12
 681.642578125 997 681.642578125 997 704.142578125 1031 c 128,-1,13
 726.642578125 1065 726.642578125 1065 735.642578125 1104 c 0,14,15
 759.642578125 1210 759.642578125 1210 713.642578125 1258 c 128,-1,16
 667.642578125 1306 667.642578125 1306 560.642578125 1306 c 0,17,18
 533.642578125 1306 533.642578125 1306 503.642578125 1293 c 128,-1,19
 473.642578125 1280 473.642578125 1280 450.642578125 1263.5 c 128,-1,20
 427.642578125 1247 427.642578125 1247 398.642578125 1219 c 128,-1,21
 369.642578125 1191 369.642578125 1191 353.142578125 1172.5 c 128,-1,22
 336.642578125 1154 336.642578125 1154 312.642578125 1126 c 0,23,24
 289.642578125 1099 289.642578125 1099 271.142578125 1084.5 c 128,-1,25
 252.642578125 1070 252.642578125 1070 235.642578125 1068 c 128,-1,26
 218.642578125 1066 218.642578125 1066 205.642578125 1070 c 128,-1,27
 192.642578125 1074 192.642578125 1074 172.642578125 1084 c 0,28,29
 144.642578125 1102 144.642578125 1102 144.642578125 1136.5 c 128,-1,30
 144.642578125 1171 144.642578125 1171 181.642578125 1227 c 0,31,32
 211.642578125 1269 211.642578125 1269 251.642578125 1309.5 c 128,-1,33
 291.642578125 1350 291.642578125 1350 344.142578125 1390 c 128,-1,34
 396.642578125 1430 396.642578125 1430 462.142578125 1454.5 c 128,-1,35
 527.642578125 1479 527.642578125 1479 592.642578125 1479 c 0,36,37
 798.642578125 1479 798.642578125 1479 881.642578125 1376.5 c 128,-1,38
 964.642578125 1274 964.642578125 1274 917.642578125 1069 c 0,39,40
 904.642578125 1014 904.642578125 1014 877.642578125 968.5 c 128,-1,41
 850.642578125 923 850.642578125 923 816.642578125 890.5 c 128,-1,42
 782.642578125 858 782.642578125 858 742.642578125 829.5 c 128,-1,43
 702.642578125 801 702.642578125 801 661.142578125 772.5 c 128,-1,44
 619.642578125 744 619.642578125 744 582.142578125 712.5 c 128,-1,45
 544.642578125 681 544.642578125 681 511.642578125 636 c 128,-1,46
 478.642578125 591 478.642578125 591 458.642578125 537 c 0,0,1
230.642578125 -28 m 0,47,48
 157.642578125 -36 157.642578125 -36 125.142578125 13.5 c 128,-1,49
 92.642578125 63 92.642578125 63 108.642578125 131 c 0,50,51
 123.642578125 194 123.642578125 194 182.142578125 239 c 128,-1,52
 240.642578125 284 240.642578125 284 303.642578125 287 c 0,53,54
 370.642578125 290 370.642578125 290 402.142578125 245 c 128,-1,55
 433.642578125 200 433.642578125 200 418.642578125 134 c 0,56,57
 403.642578125 69 403.642578125 69 352.142578125 24.5 c 128,-1,58
 300.642578125 -20 300.642578125 -20 230.642578125 -28 c 0,47,48
EndSplineSet
EndChar

StartChar: at
Encoding: 64 64 32
Width: 1038
GlyphClass: 2
Flags: W
LayerCount: 2
Fore
SplineSet
777.297851562 11 m 0,0,1
 760.297851562 -18 760.297851562 -18 744.797851562 -40 c 128,-1,2
 729.297851562 -62 729.297851562 -62 704.297851562 -93 c 128,-1,3
 679.297851562 -124 679.297851562 -124 653.297851562 -146.5 c 128,-1,4
 627.297851562 -169 627.297851562 -169 589.797851562 -193 c 128,-1,5
 552.297851562 -217 552.297851562 -217 511.797851562 -232 c 128,-1,6
 471.297851562 -247 471.297851562 -247 417.297851562 -256.5 c 128,-1,7
 363.297851562 -266 363.297851562 -266 304.297851562 -265 c 0,8,9
 204.297851562 -265 204.297851562 -265 128.297851562 -211.5 c 128,-1,10
 52.2978515625 -158 52.2978515625 -158 10.7978515625 -63 c 128,-1,11
 -30.7021484375 32 -30.7021484375 32 -35.7021484375 169 c 128,-1,12
 -40.7021484375 306 -40.7021484375 306 -3.7021484375 467 c 0,13,14
 38.2978515625 647 38.2978515625 647 100.297851562 803 c 128,-1,15
 162.297851562 959 162.297851562 959 236.297851562 1074.5 c 128,-1,16
 310.297851562 1190 310.297851562 1190 393.297851562 1273 c 128,-1,17
 476.297851562 1356 476.297851562 1356 564.297851562 1397.5 c 128,-1,18
 652.297851562 1439 652.297851562 1439 737.297851562 1439 c 0,19,20
 801.297851562 1439 801.297851562 1439 851.297851562 1428.5 c 128,-1,21
 901.297851562 1418 901.297851562 1418 943.797851562 1392 c 128,-1,22
 986.297851562 1366 986.297851562 1366 1013.79785156 1323.5 c 128,-1,23
 1041.29785156 1281 1041.29785156 1281 1057.79785156 1216.5 c 128,-1,24
 1074.29785156 1152 1074.29785156 1152 1074.29785156 1065 c 128,-1,25
 1074.29785156 978 1074.29785156 978 1058.29785156 861.5 c 128,-1,26
 1042.29785156 745 1042.29785156 745 1009.29785156 600 c 0,27,28
 992.297851562 526 992.297851562 526 967.297851562 460 c 128,-1,29
 942.297851562 394 942.297851562 394 907.797851562 335.5 c 128,-1,30
 873.297851562 277 873.297851562 277 826.797851562 242.5 c 128,-1,31
 780.297851562 208 780.297851562 208 728.297851562 208 c 0,32,33
 590.297851562 208 590.297851562 208 614.297851562 381 c 1,34,35
 538.297851562 241 538.297851562 241 416.297851562 241 c 0,36,37
 303.297851562 241 303.297851562 241 258.297851562 317 c 128,-1,38
 213.297851562 393 213.297851562 393 249.297851562 548 c 0,39,40
 267.297851562 626 267.297851562 626 298.297851562 692 c 128,-1,41
 329.297851562 758 329.297851562 758 367.797851562 803.5 c 128,-1,42
 406.297851562 849 406.297851562 849 450.797851562 881 c 128,-1,43
 495.297851562 913 495.297851562 913 541.797851562 926.5 c 128,-1,44
 588.297851562 940 588.297851562 940 634.297851562 937.5 c 128,-1,45
 680.297851562 935 680.297851562 935 721.297851562 916 c 0,46,47
 761.297851562 897 761.297851562 897 779.797851562 866.5 c 128,-1,48
 798.297851562 836 798.297851562 836 780.297851562 811 c 0,49,50
 769.297851562 795 769.297851562 795 757.297851562 784.5 c 128,-1,51
 745.297851562 774 745.297851562 774 730.797851562 769.5 c 128,-1,52
 716.297851562 765 716.297851562 765 704.797851562 763.5 c 128,-1,53
 693.297851562 762 693.297851562 762 676.797851562 765 c 128,-1,54
 660.297851562 768 660.297851562 768 650.797851562 770.5 c 128,-1,55
 641.297851562 773 641.297851562 773 624.297851562 778 c 0,56,57
 601.297851562 783 601.297851562 783 576.297851562 781 c 128,-1,58
 551.297851562 779 551.297851562 779 525.297851562 763.5 c 128,-1,59
 499.297851562 748 499.297851562 748 475.797851562 724 c 128,-1,60
 452.297851562 700 452.297851562 700 432.797851562 661 c 128,-1,61
 413.297851562 622 413.297851562 622 402.297851562 574 c 0,62,63
 396.297851562 548 396.297851562 548 393.297851562 523.5 c 128,-1,64
 390.297851562 499 390.297851562 499 391.797851562 470 c 128,-1,65
 393.297851562 441 393.297851562 441 407.297851562 423 c 128,-1,66
 421.297851562 405 421.297851562 405 448.297851562 405 c 0,67,68
 508.297851562 405 508.297851562 405 545.297851562 455.5 c 128,-1,69
 582.297851562 506 582.297851562 506 612.297851562 622 c 0,70,71
 620.297851562 654 620.297851562 654 673.297851562 675 c 0,72,73
 731.297851562 698 731.297851562 698 764.297851562 682 c 0,74,75
 787.297851562 671 787.297851562 671 777.297851562 642 c 0,76,77
 741.297851562 533 741.297851562 533 732.797851562 472.5 c 128,-1,78
 724.297851562 412 724.297851562 412 732.797851562 390 c 128,-1,79
 741.297851562 368 741.297851562 368 765.297851562 368 c 0,80,81
 781.297851562 368 781.297851562 368 798.797851562 395 c 128,-1,82
 816.297851562 422 816.297851562 422 830.797851562 464.5 c 128,-1,83
 845.297851562 507 845.297851562 507 854.797851562 540.5 c 128,-1,84
 864.297851562 574 864.297851562 574 871.297851562 605 c 0,85,86
 895.297851562 709 895.297851562 709 907.297851562 797 c 128,-1,87
 919.297851562 885 919.297851562 885 920.797851562 947.5 c 128,-1,88
 922.297851562 1010 922.297851562 1010 912.797851562 1060.5 c 128,-1,89
 903.297851562 1111 903.297851562 1111 891.797851562 1142.5 c 128,-1,90
 880.297851562 1174 880.297851562 1174 858.797851562 1196.5 c 128,-1,91
 837.297851562 1219 837.297851562 1219 820.297851562 1230 c 128,-1,92
 803.297851562 1241 803.297851562 1241 778.797851562 1247.5 c 128,-1,93
 754.297851562 1254 754.297851562 1254 741.297851562 1254.5 c 128,-1,94
 728.297851562 1255 728.297851562 1255 710.297851562 1255 c 0,95,96
 635.297851562 1255 635.297851562 1255 556.297851562 1204 c 128,-1,97
 477.297851562 1153 477.297851562 1153 406.297851562 1061.5 c 128,-1,98
 335.297851562 970 335.297851562 970 274.797851562 835 c 128,-1,99
 214.297851562 700 214.297851562 700 178.297851562 541 c 0,100,101
 146.297851562 401 146.297851562 401 139.797851562 290 c 128,-1,102
 133.297851562 179 133.297851562 179 149.297851562 109.5 c 128,-1,103
 165.297851562 40 165.297851562 40 197.297851562 -6.5 c 128,-1,104
 229.297851562 -53 229.297851562 -53 268.297851562 -71.5 c 128,-1,105
 307.297851562 -90 307.297851562 -90 354.297851562 -90 c 0,106,107
 404.297851562 -90 404.297851562 -90 447.797851562 -80 c 128,-1,108
 491.297851562 -70 491.297851562 -70 521.797851562 -55.5 c 128,-1,109
 552.297851562 -41 552.297851562 -41 582.297851562 -16.5 c 128,-1,110
 612.297851562 8 612.297851562 8 631.297851562 29 c 128,-1,111
 650.297851562 50 650.297851562 50 675.297851562 81 c 0,112,113
 686.297851562 96 686.297851562 96 693.797851562 104.5 c 128,-1,114
 701.297851562 113 701.297851562 113 711.297851562 124 c 128,-1,115
 721.297851562 135 721.297851562 135 728.297851562 140 c 128,-1,116
 735.297851562 145 735.297851562 145 744.297851562 149.5 c 128,-1,117
 753.297851562 154 753.297851562 154 762.797851562 153.5 c 128,-1,118
 772.297851562 153 772.297851562 153 780.297851562 149 c 0,119,120
 794.297851562 143 794.297851562 143 801.797851562 133.5 c 128,-1,121
 809.297851562 124 809.297851562 124 812.297851562 109 c 128,-1,122
 815.297851562 94 815.297851562 94 806.297851562 69 c 128,-1,123
 797.297851562 44 797.297851562 44 777.297851562 11 c 0,0,1
EndSplineSet
EndChar

StartChar: A
Encoding: 65 65 33
Width: 1038
GlyphClass: 2
Flags: W
LayerCount: 2
Fore
SplineSet
173.375976562 83 m 2,0,1
 140.375976562 19 140.375976562 19 100.375976562 -1 c 128,-1,2
 60.3759765625 -21 60.3759765625 -21 28.3759765625 -4 c 0,3,4
 -31.6240234375 28 -31.6240234375 28 23.3759765625 151 c 0,5,6
 50.3759765625 217 50.3759765625 217 206.375976562 471 c 1,7,8
 177.375976562 495 177.375976562 495 186.375976562 530 c 0,9,10
 191.375976562 558 191.375976562 558 223.875976562 584.5 c 128,-1,11
 256.375976562 611 256.375976562 611 299.375976562 624 c 1,12,13
 668.375976562 1210 668.375976562 1210 840.375976562 1407 c 0,14,15
 877.375976562 1448 877.375976562 1448 903.875976562 1466.5 c 128,-1,16
 930.375976562 1485 930.375976562 1485 957.375976562 1485 c 0,17,18
 994.375976562 1489 994.375976562 1489 1019.37597656 1470.5 c 128,-1,19
 1044.37597656 1452 1044.37597656 1452 1040.37597656 1407 c 0,20,21
 1020.37597656 1153 1020.37597656 1153 1007.87597656 687 c 128,-1,22
 995.375976562 221 995.375976562 221 1015.37597656 151 c 0,23,24
 1026.37597656 113 1026.37597656 113 1015.37597656 81 c 128,-1,25
 1004.37597656 49 1004.37597656 49 983.875976562 27.5 c 128,-1,26
 963.375976562 6 963.375976562 6 938.375976562 -4 c 0,27,28
 899.375976562 -21 899.375976562 -21 867.875976562 -1 c 128,-1,29
 836.375976562 19 836.375976562 19 828.375976562 83 c 0,30,31
 819.375976562 147 819.375976562 147 832.375976562 515 c 1,32,33
 586.375976562 504 586.375976562 504 386.375976562 471 c 1,34,-1
 173.375976562 83 l 2,0,1
861.375976562 1233 m 1,35,36
 746.375976562 1096 746.375976562 1096 489.375976562 651 c 1,37,38
 688.375976562 675 688.375976562 675 839.375976562 679 c 1,39,-1
 861.375976562 1233 l 1,35,36
EndSplineSet
EndChar

StartChar: B
Encoding: 66 66 34
Width: 1038
GlyphClass: 2
Flags: W
LayerCount: 2
Fore
SplineSet
322.284179688 -28 m 0,0,1
 290.284179688 -31 290.284179688 -31 249.284179688 -35 c 128,-1,2
 208.284179688 -39 208.284179688 -39 183.284179688 -41.5 c 128,-1,3
 158.284179688 -44 158.284179688 -44 131.284179688 -46 c 128,-1,4
 104.284179688 -48 104.284179688 -48 84.7841796875 -47.5 c 128,-1,5
 65.2841796875 -47 65.2841796875 -47 50.2841796875 -44 c 2,6,-1
 43.2841796875 -44 l 2,7,8
 5.2841796875 -44 5.2841796875 -44 -12.7158203125 -16 c 128,-1,9
 -30.7158203125 12 -30.7158203125 12 -15.7158203125 61 c 0,10,11
 10.2841796875 146 10.2841796875 146 63.7841796875 388 c 128,-1,12
 117.284179688 630 117.284179688 630 167.284179688 887 c 0,13,14
 195.284179688 1025 195.284179688 1025 206.284179688 1072 c 128,-1,15
 217.284179688 1119 217.284179688 1119 238.784179688 1198.5 c 128,-1,16
 260.284179688 1278 260.284179688 1278 268.284179688 1308 c 0,17,18
 283.284179688 1363 283.284179688 1363 316.284179688 1391.5 c 128,-1,19
 349.284179688 1420 349.284179688 1420 388.284179688 1420 c 2,20,-1
 396.284179688 1420 l 1,21,22
 428.284179688 1430 428.284179688 1430 463.784179688 1436.5 c 128,-1,23
 499.284179688 1443 499.284179688 1443 527.784179688 1446.5 c 128,-1,24
 556.284179688 1450 556.284179688 1450 588.284179688 1451.5 c 128,-1,25
 620.284179688 1453 620.284179688 1453 637.284179688 1453 c 128,-1,26
 654.284179688 1453 654.284179688 1453 675.784179688 1453 c 128,-1,27
 697.284179688 1453 697.284179688 1453 697.284179688 1453 c 2,28,29
 826.284179688 1453 826.284179688 1453 915.284179688 1401.5 c 128,-1,30
 1004.28417969 1350 1004.28417969 1350 1040.28417969 1253 c 128,-1,31
 1076.28417969 1156 1076.28417969 1156 1048.28417969 1027 c 0,32,33
 1022.28417969 908 1022.28417969 908 950.784179688 823 c 128,-1,34
 879.284179688 738 879.284179688 738 781.284179688 699 c 1,35,36
 840.284179688 676 840.284179688 676 891.784179688 632 c 128,-1,37
 943.284179688 588 943.284179688 588 972.784179688 533.5 c 128,-1,38
 1002.28417969 479 1002.28417969 479 991.284179688 432 c 0,39,40
 974.284179688 354 974.284179688 354 918.784179688 277.5 c 128,-1,41
 863.284179688 201 863.284179688 201 779.284179688 137.5 c 128,-1,42
 695.284179688 74 695.284179688 74 575.784179688 29 c 128,-1,43
 456.284179688 -16 456.284179688 -16 322.284179688 -28 c 0,0,1
655.284179688 1290 m 0,44,45
 553.284179688 1290 553.284179688 1290 449.284179688 1264 c 1,46,47
 439.284179688 1226 439.284179688 1226 416.284179688 1139 c 128,-1,48
 393.284179688 1052 393.284179688 1052 369.284179688 956.5 c 128,-1,49
 345.284179688 861 345.284179688 861 323.284179688 760 c 1,50,51
 411.284179688 756 411.284179688 756 491.284179688 756 c 0,52,53
 549.284179688 756 549.284179688 756 598.784179688 766 c 128,-1,54
 648.284179688 776 648.284179688 776 684.784179688 792.5 c 128,-1,55
 721.284179688 809 721.284179688 809 751.784179688 833 c 128,-1,56
 782.284179688 857 782.284179688 857 802.284179688 881.5 c 128,-1,57
 822.284179688 906 822.284179688 906 837.784179688 935 c 128,-1,58
 853.284179688 964 853.284179688 964 861.784179688 988 c 128,-1,59
 870.284179688 1012 870.284179688 1012 876.284179688 1038 c 0,60,61
 888.284179688 1092 888.284179688 1092 879.784179688 1136.5 c 128,-1,62
 871.284179688 1181 871.284179688 1181 847.784179688 1209 c 128,-1,63
 824.284179688 1237 824.284179688 1237 790.284179688 1256 c 128,-1,64
 756.284179688 1275 756.284179688 1275 722.284179688 1282.5 c 128,-1,65
 688.284179688 1290 688.284179688 1290 655.284179688 1290 c 0,44,45
473.284179688 609 m 1,66,67
 334.284179688 609 334.284179688 609 291.284179688 607 c 1,68,69
 223.284179688 277 223.284179688 277 196.284179688 138 c 1,70,71
 217.284179688 139 217.284179688 139 265.784179688 140 c 128,-1,72
 314.284179688 141 314.284179688 141 339.284179688 142 c 0,73,74
 427.284179688 146 427.284179688 146 511.284179688 174 c 128,-1,75
 595.284179688 202 595.284179688 202 653.284179688 242.5 c 128,-1,76
 711.284179688 283 711.284179688 283 749.284179688 326.5 c 128,-1,77
 787.284179688 370 787.284179688 370 796.284179688 407 c 0,78,79
 802.284179688 433 802.284179688 433 787.284179688 460.5 c 128,-1,80
 772.284179688 488 772.284179688 488 737.284179688 516 c 128,-1,81
 702.284179688 544 702.284179688 544 633.784179688 569 c 128,-1,82
 565.284179688 594 565.284179688 594 473.284179688 609 c 1,66,67
EndSplineSet
EndChar

StartChar: C
Encoding: 67 67 35
Width: 1038
GlyphClass: 2
Flags: W
LayerCount: 2
Fore
SplineSet
788.60546875 131 m 0,0,1
 579.60546875 -69 579.60546875 -69 240.60546875 -64 c 0,2,3
 162.60546875 -64 162.60546875 -64 100.10546875 -35.5 c 128,-1,4
 37.60546875 -7 37.60546875 -7 -1.39453125 41 c 128,-1,5
 -40.39453125 89 -40.39453125 89 -62.89453125 151.5 c 128,-1,6
 -85.39453125 214 -85.39453125 214 -87.39453125 284 c 128,-1,7
 -89.39453125 354 -89.39453125 354 -72.39453125 425 c 0,8,9
 -38.39453125 574 -38.39453125 574 23.10546875 714.5 c 128,-1,10
 84.60546875 855 84.60546875 855 158.60546875 967 c 128,-1,11
 232.60546875 1079 232.60546875 1079 319.60546875 1173 c 128,-1,12
 406.60546875 1267 406.60546875 1267 493.60546875 1329.5 c 128,-1,13
 580.60546875 1392 580.60546875 1392 665.10546875 1426.5 c 128,-1,14
 749.60546875 1461 749.60546875 1461 821.60546875 1461 c 0,15,16
 891.60546875 1461 891.60546875 1461 945.60546875 1444 c 1,17,18
 959.60546875 1474 959.60546875 1474 986.10546875 1493.5 c 128,-1,19
 1012.60546875 1513 1012.60546875 1513 1039.60546875 1516 c 0,20,21
 1071.60546875 1522 1071.60546875 1522 1098.60546875 1500.5 c 128,-1,22
 1125.60546875 1479 1125.60546875 1479 1125.60546875 1437 c 0,23,24
 1125.60546875 1407 1125.60546875 1407 1122.10546875 1377 c 128,-1,25
 1118.60546875 1347 1118.60546875 1347 1113.60546875 1319 c 128,-1,26
 1108.60546875 1291 1108.60546875 1291 1104.10546875 1272.5 c 128,-1,27
 1099.60546875 1254 1099.60546875 1254 1093.60546875 1229 c 128,-1,28
 1087.60546875 1204 1087.60546875 1204 1085.60546875 1198 c 0,29,30
 1075.60546875 1154 1075.60546875 1154 1036.10546875 1110 c 128,-1,31
 996.60546875 1066 996.60546875 1066 965.60546875 1063 c 0,32,33
 929.60546875 1057 929.60546875 1057 899.60546875 1082 c 128,-1,34
 869.60546875 1107 869.60546875 1107 879.60546875 1150 c 0,35,36
 883.60546875 1166 883.60546875 1166 902.60546875 1236 c 0,37,38
 900.60546875 1238 900.60546875 1238 887.60546875 1249.5 c 128,-1,39
 874.60546875 1261 874.60546875 1261 868.10546875 1266.5 c 128,-1,40
 861.60546875 1272 861.60546875 1272 848.60546875 1280 c 128,-1,41
 835.60546875 1288 835.60546875 1288 823.10546875 1291.5 c 128,-1,42
 810.60546875 1295 810.60546875 1295 796.60546875 1295 c 0,43,44
 736.60546875 1295 736.60546875 1295 660.10546875 1253.5 c 128,-1,45
 583.60546875 1212 583.60546875 1212 504.10546875 1136 c 128,-1,46
 424.60546875 1060 424.60546875 1060 351.60546875 962 c 128,-1,47
 278.60546875 864 278.60546875 864 219.60546875 740 c 128,-1,48
 160.60546875 616 160.60546875 616 132.60546875 491 c 0,49,50
 111.60546875 400 111.60546875 400 125.10546875 315 c 128,-1,51
 138.60546875 230 138.60546875 230 186.60546875 175 c 128,-1,52
 234.60546875 120 234.60546875 120 304.60546875 120 c 0,53,54
 365.60546875 120 365.60546875 120 427.60546875 133.5 c 128,-1,55
 489.60546875 147 489.60546875 147 541.10546875 169 c 128,-1,56
 592.60546875 191 592.60546875 191 631.10546875 212.5 c 128,-1,57
 669.60546875 234 669.60546875 234 704.60546875 259 c 0,58,59
 732.60546875 277 732.60546875 277 753.10546875 286.5 c 128,-1,60
 773.60546875 296 773.60546875 296 795.10546875 296.5 c 128,-1,61
 816.60546875 297 816.60546875 297 831.60546875 283 c 0,62,63
 888.60546875 226 888.60546875 226 788.60546875 131 c 0,0,1
EndSplineSet
EndChar

StartChar: D
Encoding: 68 68 36
Width: 1038
GlyphClass: 2
Flags: W
LayerCount: 2
Fore
SplineSet
486.5390625 -64 m 0,0,1
 391.5390625 -65 391.5390625 -65 303.0390625 -55.5 c 128,-1,2
 214.5390625 -46 214.5390625 -46 164.0390625 -33.5 c 128,-1,3
 113.5390625 -21 113.5390625 -21 75.5390625 -10.5 c 128,-1,4
 37.5390625 0 37.5390625 0 30.5390625 0 c 0,5,6
 -7.4609375 0 -7.4609375 0 -25.4609375 27.5 c 128,-1,7
 -43.4609375 55 -43.4609375 55 -28.4609375 105 c 0,8,9
 0.5390625 203 0.5390625 203 56.0390625 454 c 128,-1,10
 111.5390625 705 111.5390625 705 169.5390625 997 c 0,11,12
 193.5390625 1111 193.5390625 1111 202.0390625 1147.5 c 128,-1,13
 210.5390625 1184 210.5390625 1184 231.0390625 1260 c 128,-1,14
 251.5390625 1336 251.5390625 1336 255.5390625 1352 c 0,15,16
 270.5390625 1407 270.5390625 1407 303.5390625 1435 c 128,-1,17
 336.5390625 1463 336.5390625 1463 375.5390625 1463 c 0,18,19
 400.5390625 1463 400.5390625 1463 437.0390625 1459 c 128,-1,20
 473.5390625 1455 473.5390625 1455 531.5390625 1442 c 128,-1,21
 589.5390625 1429 589.5390625 1429 647.5390625 1407.5 c 128,-1,22
 705.5390625 1386 705.5390625 1386 769.5390625 1347 c 128,-1,23
 833.5390625 1308 833.5390625 1308 887.0390625 1257 c 128,-1,24
 940.5390625 1206 940.5390625 1206 984.5390625 1129.5 c 128,-1,25
 1028.5390625 1053 1028.5390625 1053 1052.0390625 961.5 c 128,-1,26
 1075.5390625 870 1075.5390625 870 1073.0390625 744 c 128,-1,27
 1070.5390625 618 1070.5390625 618 1036.5390625 473 c 0,28,29
 1020.5390625 402 1020.5390625 402 985.0390625 327.5 c 128,-1,30
 949.5390625 253 949.5390625 253 896.5390625 183 c 128,-1,31
 843.5390625 113 843.5390625 113 781.0390625 58 c 128,-1,32
 718.5390625 3 718.5390625 3 641.5390625 -30.5 c 128,-1,33
 564.5390625 -64 564.5390625 -64 486.5390625 -64 c 0,0,1
291.5390625 712 m 0,34,35
 273.5390625 623 273.5390625 623 237.0390625 446.5 c 128,-1,36
 200.5390625 270 200.5390625 270 183.5390625 180 c 1,37,38
 253.5390625 143 253.5390625 143 335.0390625 127.5 c 128,-1,39
 416.5390625 112 416.5390625 112 525.5390625 112 c 0,40,41
 578.5390625 112 578.5390625 112 634.5390625 150.5 c 128,-1,42
 690.5390625 189 690.5390625 189 735.0390625 249.5 c 128,-1,43
 779.5390625 310 779.5390625 310 814.5390625 382.5 c 128,-1,44
 849.5390625 455 849.5390625 455 865.5390625 524 c 0,45,46
 954.5390625 909 954.5390625 909 708.5390625 1112 c 0,47,48
 620.5390625 1183 620.5390625 1183 442.5390625 1260 c 1,49,-1
 442.5390625 1261 l 1,50,-1
 441.5390625 1261 l 1,51,-1
 440.5390625 1261 l 1,52,-1
 439.5390625 1262 l 1,53,-1
 438.5390625 1262 l 1,54,-1
 437.5390625 1262 l 1,55,-1
 436.5390625 1263 l 1,56,-1
 435.5390625 1263 l 1,57,-1
 435.5390625 1264 l 1,58,-1
 434.5390625 1264 l 1,59,-1
 433.5390625 1264 l 1,60,-1
 432.5390625 1265 l 1,61,-1
 431.5390625 1265 l 1,62,-1
 430.5390625 1265 l 1,63,-1
 430.5390625 1266 l 1,64,-1
 428.5390625 1266 l 1,65,-1
 427.5390625 1267 l 1,66,-1
 426.5390625 1267 l 1,67,-1
 425.5390625 1267 l 1,68,-1
 425.5390625 1268 l 1,69,-1
 424.5390625 1268 l 1,70,-1
 423.5390625 1268 l 1,71,-1
 422.5390625 1269 l 1,72,-1
 421.5390625 1269 l 1,73,-1
 420.5390625 1270 l 1,74,-1
 419.5390625 1270 l 1,75,-1
 418.5390625 1270 l 1,76,-1
 418.5390625 1271 l 1,77,78
 350.5390625 1004 350.5390625 1004 291.5390625 712 c 0,34,35
EndSplineSet
EndChar

StartChar: E
Encoding: 69 69 37
Width: 1038
GlyphClass: 2
Flags: W
LayerCount: 2
Fore
SplineSet
717.887695312 -13 m 0,0,1
 684.887695312 -10 684.887695312 -10 550.387695312 -19 c 128,-1,2
 415.887695312 -28 415.887695312 -28 256.387695312 -36 c 128,-1,3
 96.8876953125 -44 96.8876953125 -44 10.8876953125 -37 c 0,4,5
 -33.1123046875 -34 -33.1123046875 -34 -66.1123046875 10 c 128,-1,6
 -99.1123046875 54 -99.1123046875 54 -92.1123046875 116 c 0,7,8
 -86.1123046875 169 -86.1123046875 169 -54.1123046875 308 c 128,-1,9
 -22.1123046875 447 -22.1123046875 447 15.8876953125 602.5 c 128,-1,10
 53.8876953125 758 53.8876953125 758 92.8876953125 953 c 0,11,12
 118.887695312 1076 118.887695312 1076 127.887695312 1116 c 128,-1,13
 136.887695312 1156 136.887695312 1156 157.887695312 1233 c 128,-1,14
 178.887695312 1310 178.887695312 1310 183.887695312 1330 c 0,15,16
 198.887695312 1385 198.887695312 1385 231.887695312 1413.5 c 128,-1,17
 264.887695312 1442 264.887695312 1442 303.887695312 1442 c 0,18,19
 354.887695312 1445 354.887695312 1445 372.887695312 1407 c 1,20,21
 484.887695312 1423 484.887695312 1423 631.387695312 1427.5 c 128,-1,22
 777.887695312 1432 777.887695312 1432 889.887695312 1428 c 128,-1,23
 1001.88769531 1424 1001.88769531 1424 1065.88769531 1415 c 0,24,25
 1109.88769531 1409 1109.88769531 1409 1122.88769531 1390.5 c 128,-1,26
 1135.88769531 1372 1135.88769531 1372 1128.88769531 1339 c 0,27,28
 1124.88769531 1320 1124.88769531 1320 1117.88769531 1304.5 c 128,-1,29
 1110.88769531 1289 1110.88769531 1289 1099.38769531 1275 c 128,-1,30
 1087.88769531 1261 1087.88769531 1261 1068.88769531 1253.5 c 128,-1,31
 1049.88769531 1246 1049.88769531 1246 1026.88769531 1249 c 0,32,33
 850.887695312 1263 850.887695312 1263 668.387695312 1258 c 128,-1,34
 485.887695312 1253 485.887695312 1253 350.887695312 1233 c 1,35,36
 292.887695312 1019 292.887695312 1019 246.887695312 815 c 1,37,38
 386.887695312 816 386.887695312 816 630.387695312 831 c 128,-1,39
 873.887695312 846 873.887695312 846 903.887695312 846 c 0,40,41
 948.887695312 846 948.887695312 846 961.387695312 825 c 128,-1,42
 973.887695312 804 973.887695312 804 966.887695312 769 c 0,43,44
 945.887695312 679 945.887695312 679 864.887695312 679 c 0,45,46
 830.887695312 679 830.887695312 679 566.887695312 659 c 128,-1,47
 302.887695312 639 302.887695312 639 207.887695312 638 c 1,48,49
 197.887695312 592 197.887695312 592 181.887695312 520 c 128,-1,50
 165.887695312 448 165.887695312 448 154.387695312 396 c 128,-1,51
 142.887695312 344 142.887695312 344 131.887695312 289 c 128,-1,52
 120.887695312 234 120.887695312 234 115.887695312 198 c 128,-1,53
 110.887695312 162 110.887695312 162 112.887695312 147 c 1,54,55
 158.887695312 132 158.887695312 132 408.887695312 143 c 128,-1,56
 658.887695312 154 658.887695312 154 732.887695312 169 c 0,57,58
 760.887695312 173 760.887695312 173 780.387695312 173 c 128,-1,59
 799.887695312 173 799.887695312 173 812.387695312 165 c 128,-1,60
 824.887695312 157 824.887695312 157 831.387695312 149 c 128,-1,61
 837.887695312 141 837.887695312 141 839.887695312 128 c 128,-1,62
 841.887695312 115 841.887695312 115 841.887695312 105 c 128,-1,63
 841.887695312 95 841.887695312 95 838.887695312 83 c 0,64,65
 829.887695312 44 829.887695312 44 798.387695312 13 c 128,-1,66
 766.887695312 -18 766.887695312 -18 717.887695312 -13 c 0,0,1
EndSplineSet
EndChar

StartChar: F
Encoding: 70 70 38
Width: 1038
GlyphClass: 2
Flags: W
LayerCount: 2
Fore
SplineSet
95.9365234375 50 m 1,0,1
 80.9365234375 6 80.9365234375 6 41.4365234375 -20 c 128,-1,2
 1.9365234375 -46 1.9365234375 -46 -39.0634765625 -44 c 0,3,4
 -77.0634765625 -44 -77.0634765625 -44 -95.0634765625 -16 c 128,-1,5
 -113.063476562 12 -113.063476562 12 -98.0634765625 61 c 0,6,7
 -71.0634765625 151 -71.0634765625 151 -14.5634765625 406 c 128,-1,8
 41.9365234375 661 41.9365234375 661 94.9365234375 931 c 0,9,10
 122.936523438 1069 122.936523438 1069 133.936523438 1116 c 128,-1,11
 144.936523438 1163 144.936523438 1163 166.436523438 1242.5 c 128,-1,12
 187.936523438 1322 187.936523438 1322 195.936523438 1352 c 0,13,14
 210.936523438 1407 210.936523438 1407 243.936523438 1435 c 128,-1,15
 276.936523438 1463 276.936523438 1463 315.936523438 1463 c 0,16,17
 368.936523438 1467 368.936523438 1467 386.936523438 1428 c 1,18,19
 576.936523438 1443 576.936523438 1443 767.936523438 1446 c 128,-1,20
 958.936523438 1449 958.936523438 1449 1077.93652344 1437 c 0,21,22
 1121.93652344 1433 1121.93652344 1433 1134.43652344 1413.5 c 128,-1,23
 1146.93652344 1394 1146.93652344 1394 1140.93652344 1360 c 0,24,25
 1131.93652344 1322 1131.93652344 1322 1104.43652344 1294.5 c 128,-1,26
 1076.93652344 1267 1076.93652344 1267 1030.93652344 1268 c 0,27,28
 727.936523438 1284 727.936523438 1284 362.936523438 1253 c 1,29,30
 353.936523438 1219 353.936523438 1219 333.436523438 1141.5 c 128,-1,31
 312.936523438 1064 312.936523438 1064 293.436523438 985 c 128,-1,32
 273.936523438 906 273.936523438 906 255.936523438 824 c 1,33,34
 358.936523438 837 358.936523438 837 483.436523438 834 c 128,-1,35
 607.936523438 831 607.936523438 831 706.436523438 822 c 128,-1,36
 804.936523438 813 804.936523438 813 861.936523438 802 c 0,37,38
 905.936523438 793 905.936523438 793 918.436523438 775 c 128,-1,39
 930.936523438 757 930.936523438 757 925.936523438 725 c 0,40,41
 921.936523438 707 921.936523438 707 914.436523438 691.5 c 128,-1,42
 906.936523438 676 906.936523438 676 894.936523438 661.5 c 128,-1,43
 882.936523438 647 882.936523438 647 864.936523438 640 c 128,-1,44
 846.936523438 633 846.936523438 633 822.936523438 635 c 0,45,46
 766.936523438 645 766.936523438 645 664.936523438 652.5 c 128,-1,47
 562.936523438 660 562.936523438 660 433.436523438 660.5 c 128,-1,48
 303.936523438 661 303.936523438 661 216.936523438 648 c 1,49,50
 106.936523438 105 106.936523438 105 95.9365234375 50 c 1,0,1
EndSplineSet
EndChar

StartChar: G
Encoding: 71 71 39
Width: 1038
GlyphClass: 2
Flags: W
LayerCount: 2
Fore
SplineSet
879.291015625 500 m 0,0,1
 864.291015625 456 864.291015625 456 831.791015625 399 c 128,-1,2
 799.291015625 342 799.291015625 342 753.291015625 278 c 128,-1,3
 707.291015625 214 707.291015625 214 647.291015625 153 c 128,-1,4
 587.291015625 92 587.291015625 92 523.791015625 43 c 128,-1,5
 460.291015625 -6 460.291015625 -6 386.291015625 -35.5 c 128,-1,6
 312.291015625 -65 312.291015625 -65 243.291015625 -64 c 0,7,8
 165.291015625 -64 165.291015625 -64 102.791015625 -35.5 c 128,-1,9
 40.291015625 -7 40.291015625 -7 1.291015625 41 c 128,-1,10
 -37.708984375 89 -37.708984375 89 -60.208984375 151.5 c 128,-1,11
 -82.708984375 214 -82.708984375 214 -84.708984375 284 c 128,-1,12
 -86.708984375 354 -86.708984375 354 -69.708984375 425 c 0,13,14
 -34.708984375 577 -34.708984375 577 27.291015625 720.5 c 128,-1,15
 89.291015625 864 89.291015625 864 163.791015625 978.5 c 128,-1,16
 238.291015625 1093 238.291015625 1093 325.791015625 1189 c 128,-1,17
 413.291015625 1285 413.291015625 1285 500.291015625 1349 c 128,-1,18
 587.291015625 1413 587.291015625 1413 672.291015625 1448 c 128,-1,19
 757.291015625 1483 757.291015625 1483 829.291015625 1483 c 0,20,21
 908.291015625 1483 908.291015625 1483 997.791015625 1443 c 128,-1,22
 1087.29101562 1403 1087.29101562 1403 1108.29101562 1374 c 0,23,24
 1140.29101562 1328 1140.29101562 1328 1102.29101562 1258 c 0,25,26
 1089.29101562 1232 1089.29101562 1232 1057.79101562 1219.5 c 128,-1,27
 1026.29101562 1207 1026.29101562 1207 999.291015625 1218 c 0,28,29
 988.291015625 1223 988.291015625 1223 952.791015625 1249.5 c 128,-1,30
 917.291015625 1276 917.291015625 1276 878.791015625 1296.5 c 128,-1,31
 840.291015625 1317 840.291015625 1317 804.291015625 1317 c 0,32,33
 744.291015625 1317 744.291015625 1317 667.291015625 1274.5 c 128,-1,34
 590.291015625 1232 590.291015625 1232 510.291015625 1153.5 c 128,-1,35
 430.291015625 1075 430.291015625 1075 356.791015625 974.5 c 128,-1,36
 283.291015625 874 283.291015625 874 223.791015625 747 c 128,-1,37
 164.291015625 620 164.291015625 620 135.291015625 491 c 0,38,39
 114.291015625 400 114.291015625 400 127.791015625 315 c 128,-1,40
 141.291015625 230 141.291015625 230 189.291015625 175 c 128,-1,41
 237.291015625 120 237.291015625 120 307.291015625 120 c 0,42,43
 353.291015625 120 353.291015625 120 408.791015625 152 c 128,-1,44
 464.291015625 184 464.291015625 184 514.291015625 233.5 c 128,-1,45
 564.291015625 283 564.291015625 283 612.791015625 344 c 128,-1,46
 661.291015625 405 661.291015625 405 697.291015625 463 c 128,-1,47
 733.291015625 521 733.291015625 521 756.291015625 570 c 1,48,49
 635.291015625 564 635.291015625 564 516.791015625 547 c 128,-1,50
 398.291015625 530 398.291015625 530 348.291015625 504 c 0,51,52
 312.291015625 485 312.291015625 485 287.291015625 505.5 c 128,-1,53
 262.291015625 526 262.291015625 526 265.291015625 561 c 0,54,55
 272.291015625 639 272.291015625 639 366.291015625 681 c 0,56,57
 427.291015625 710 427.291015625 710 609.291015625 726 c 128,-1,58
 791.291015625 742 791.291015625 742 892.291015625 736 c 0,59,60
 939.291015625 733 939.291015625 733 954.291015625 717.5 c 128,-1,61
 969.291015625 702 969.291015625 702 966.291015625 670 c 0,62,63
 957.291015625 595 957.291015625 595 904.291015625 576 c 1,64,65
 902.291015625 569 902.291015625 569 893.291015625 542.5 c 128,-1,66
 884.291015625 516 884.291015625 516 879.291015625 500 c 0,0,1
EndSplineSet
EndChar

StartChar: H
Encoding: 72 72 40
Width: 1038
GlyphClass: 2
Flags: W
LayerCount: 2
Fore
SplineSet
809.243164062 50 m 1,0,1
 795.243164062 6 795.243164062 6 756.243164062 -20 c 128,-1,2
 717.243164062 -46 717.243164062 -46 676.243164062 -44 c 0,3,4
 638.243164062 -44 638.243164062 -44 620.243164062 -16 c 128,-1,5
 602.243164062 12 602.243164062 12 617.243164062 61 c 0,6,7
 701.243164062 345 701.243164062 345 781.243164062 701 c 1,8,9
 749.243164062 699 749.243164062 699 540.743164062 668.5 c 128,-1,10
 332.243164062 638 332.243164062 638 247.243164062 638 c 1,11,12
 245.243164062 631 245.243164062 631 241.243164062 616.5 c 128,-1,13
 237.243164062 602 237.243164062 602 235.243164062 596 c 0,14,15
 177.243164062 393 177.243164062 393 109.243164062 50 c 1,16,17
 94.2431640625 6 94.2431640625 6 54.7431640625 -20 c 128,-1,18
 15.2431640625 -46 15.2431640625 -46 -24.7568359375 -44 c 0,19,20
 -61.7568359375 -44 -61.7568359375 -44 -80.7568359375 -16 c 128,-1,21
 -99.7568359375 12 -99.7568359375 12 -83.7568359375 61 c 0,22,23
 -74.7568359375 90 -74.7568359375 90 -59.2568359375 153.5 c 128,-1,24
 -43.7568359375 217 -43.7568359375 217 -19.2568359375 324 c 128,-1,25
 5.2431640625 431 5.2431640625 431 27.2431640625 517 c 0,26,27
 44.2431640625 586 44.2431640625 586 77.2431640625 715.5 c 128,-1,28
 110.243164062 845 110.243164062 845 125.243164062 908 c 128,-1,29
 140.243164062 971 140.243164062 971 167.243164062 1095 c 0,30,31
 186.243164062 1187 186.243164062 1187 192.743164062 1213 c 128,-1,32
 199.243164062 1239 199.243164062 1239 211.743164062 1284 c 128,-1,33
 224.243164062 1329 224.243164062 1329 230.243164062 1352 c 0,34,35
 245.243164062 1407 245.243164062 1407 278.243164062 1435 c 128,-1,36
 311.243164062 1463 311.243164062 1463 350.243164062 1463 c 0,37,38
 392.243164062 1465 392.243164062 1465 414.243164062 1439.5 c 128,-1,39
 436.243164062 1414 436.243164062 1414 423.243164062 1358 c 0,40,41
 418.243164062 1337 418.243164062 1337 397.743164062 1269.5 c 128,-1,42
 377.243164062 1202 377.243164062 1202 364.243164062 1144 c 0,43,44
 352.243164062 1091 352.243164062 1091 328.743164062 982 c 128,-1,45
 305.243164062 873 305.243164062 873 291.243164062 815 c 1,46,47
 391.243164062 816 391.243164062 816 499.243164062 827.5 c 128,-1,48
 607.243164062 839 607.243164062 839 695.743164062 852 c 128,-1,49
 784.243164062 865 784.243164062 865 818.243164062 868 c 1,50,51
 821.243164062 882 821.243164062 882 826.243164062 910.5 c 128,-1,52
 831.243164062 939 831.243164062 939 835.243164062 953 c 0,53,54
 863.243164062 1081 863.243164062 1081 872.243164062 1121.5 c 128,-1,55
 881.243164062 1162 881.243164062 1162 903.743164062 1248 c 128,-1,56
 926.243164062 1334 926.243164062 1334 931.243164062 1352 c 0,57,58
 945.243164062 1407 945.243164062 1407 978.743164062 1435 c 128,-1,59
 1012.24316406 1463 1012.24316406 1463 1050.24316406 1463 c 0,60,61
 1093.24316406 1465 1093.24316406 1465 1115.24316406 1439.5 c 128,-1,62
 1137.24316406 1414 1137.24316406 1414 1124.24316406 1358 c 0,63,64
 1115.24316406 1319 1115.24316406 1319 1085.24316406 1198.5 c 128,-1,65
 1055.24316406 1078 1055.24316406 1078 1033.74316406 986.5 c 128,-1,66
 1012.24316406 895 1012.24316406 895 975.243164062 723 c 0,67,68
 946.243164062 580 946.243164062 580 884.743164062 347 c 128,-1,69
 823.243164062 114 823.243164062 114 809.243164062 50 c 1,0,1
EndSplineSet
EndChar

StartChar: I
Encoding: 73 73 41
Width: 1038
GlyphClass: 2
Flags: W
LayerCount: 2
Fore
SplineSet
749.774414062 -22 m 0,0,1
 701.774414062 -14 701.774414062 -14 590.274414062 -13.5 c 128,-1,2
 478.774414062 -13 478.774414062 -13 370.774414062 -16.5 c 128,-1,3
 262.774414062 -20 262.774414062 -20 141.274414062 -24 c 128,-1,4
 19.7744140625 -28 19.7744140625 -28 -27.2255859375 -28 c 0,5,6
 -76.2255859375 -28 -76.2255859375 -28 -95.7255859375 -8 c 128,-1,7
 -115.225585938 12 -115.225585938 12 -107.225585938 46 c 0,8,9
 -101.225585938 82 -101.225585938 82 -72.2255859375 107.5 c 128,-1,10
 -43.2255859375 133 -43.2255859375 133 6.7744140625 136 c 0,11,12
 88.7744140625 140 88.7744140625 140 289.774414062 145 c 1,13,14
 390.774414062 495 390.774414062 495 471.774414062 887 c 0,15,16
 485.774414062 960 485.774414062 960 500.774414062 1026 c 128,-1,17
 515.774414062 1092 515.774414062 1092 522.274414062 1120 c 128,-1,18
 528.774414062 1148 528.774414062 1148 546.274414062 1209 c 128,-1,19
 563.774414062 1270 563.774414062 1270 565.774414062 1279 c 1,20,21
 392.774414062 1283 392.774414062 1283 288.774414062 1279 c 0,22,23
 240.774414062 1278 240.774414062 1278 221.274414062 1301.5 c 128,-1,24
 201.774414062 1325 201.774414062 1325 209.774414062 1360 c 0,25,26
 215.774414062 1396 215.774414062 1396 246.274414062 1422.5 c 128,-1,27
 276.774414062 1449 276.774414062 1449 326.774414062 1450 c 0,28,29
 807.774414062 1465 807.774414062 1465 1076.77441406 1435 c 0,30,31
 1158.77441406 1427 1158.77441406 1427 1145.77441406 1352 c 0,32,33
 1141.77441406 1334 1141.77441406 1334 1132.27441406 1316 c 128,-1,34
 1122.77441406 1298 1122.77441406 1298 1108.77441406 1281.5 c 128,-1,35
 1094.77441406 1265 1094.77441406 1265 1074.27441406 1256.5 c 128,-1,36
 1053.77441406 1248 1053.77441406 1248 1030.77441406 1253 c 0,37,38
 976.774414062 1263 976.774414062 1263 756.774414062 1275 c 1,39,40
 752.774414062 1259 752.774414062 1259 733.274414062 1183 c 128,-1,41
 713.774414062 1107 713.774414062 1107 703.274414062 1062.5 c 128,-1,42
 692.774414062 1018 692.774414062 1018 673.774414062 934 c 128,-1,43
 654.774414062 850 654.774414062 850 637.774414062 767 c 0,44,45
 607.774414062 622 607.774414062 622 550.774414062 405.5 c 128,-1,46
 493.774414062 189 493.774414062 189 483.774414062 147 c 1,47,48
 566.774414062 147 566.774414062 147 673.774414062 146 c 128,-1,49
 780.774414062 145 780.774414062 145 788.774414062 145 c 0,50,51
 833.774414062 145 833.774414062 145 846.274414062 124 c 128,-1,52
 858.774414062 103 858.774414062 103 852.774414062 68 c 0,53,54
 848.774414062 49 848.774414062 49 841.774414062 33.5 c 128,-1,55
 834.774414062 18 834.774414062 18 822.774414062 3 c 128,-1,56
 810.774414062 -12 810.774414062 -12 791.774414062 -19 c 128,-1,57
 772.774414062 -26 772.774414062 -26 749.774414062 -22 c 0,0,1
EndSplineSet
EndChar

StartChar: J
Encoding: 74 74 42
Width: 1038
GlyphClass: 2
Flags: W
LayerCount: 2
Fore
SplineSet
614.845703125 440 m 0,0,1
 556.845703125 255 556.845703125 255 500.345703125 140.5 c 128,-1,2
 443.845703125 26 443.845703125 26 388.845703125 -23 c 128,-1,3
 333.845703125 -72 333.845703125 -72 272.845703125 -72 c 0,4,5
 207.845703125 -72 207.845703125 -72 151.845703125 -47 c 128,-1,6
 95.845703125 -22 95.845703125 -22 58.345703125 18.5 c 128,-1,7
 20.845703125 59 20.845703125 59 -7.654296875 107 c 128,-1,8
 -36.154296875 155 -36.154296875 155 -51.654296875 203 c 128,-1,9
 -67.154296875 251 -67.154296875 251 -73.654296875 289.5 c 128,-1,10
 -80.154296875 328 -80.154296875 328 -78.154296875 351 c 0,11,12
 -78.154296875 369 -78.154296875 369 -70.154296875 394 c 128,-1,13
 -62.154296875 419 -62.154296875 419 -51.154296875 441.5 c 128,-1,14
 -40.154296875 464 -40.154296875 464 -18.654296875 481.5 c 128,-1,15
 2.845703125 499 2.845703125 499 32.845703125 504 c 0,16,17
 77.845703125 512 77.845703125 512 96.845703125 486.5 c 128,-1,18
 115.845703125 461 115.845703125 461 106.845703125 421 c 0,19,20
 101.845703125 398 101.845703125 398 101.345703125 366.5 c 128,-1,21
 100.845703125 335 100.845703125 335 109.345703125 293.5 c 128,-1,22
 117.845703125 252 117.845703125 252 137.345703125 217.5 c 128,-1,23
 156.845703125 183 156.845703125 183 198.345703125 159.5 c 128,-1,24
 239.845703125 136 239.845703125 136 297.845703125 136 c 0,25,26
 365.845703125 136 365.845703125 136 457.845703125 491 c 0,27,28
 468.845703125 536 468.845703125 536 520.845703125 779.5 c 128,-1,29
 572.845703125 1023 572.845703125 1023 634.845703125 1277 c 1,30,31
 423.845703125 1284 423.845703125 1284 257.845703125 1279 c 0,32,33
 209.845703125 1278 209.845703125 1278 190.345703125 1301.5 c 128,-1,34
 170.845703125 1325 170.845703125 1325 178.845703125 1360 c 0,35,36
 184.845703125 1396 184.845703125 1396 215.845703125 1422.5 c 128,-1,37
 246.845703125 1449 246.845703125 1449 295.845703125 1450 c 0,38,39
 776.845703125 1465 776.845703125 1465 1045.84570312 1435 c 0,40,41
 1127.84570312 1427 1127.84570312 1427 1114.84570312 1352 c 0,42,43
 1110.84570312 1334 1110.84570312 1334 1101.34570312 1316 c 128,-1,44
 1091.84570312 1298 1091.84570312 1298 1077.84570312 1281.5 c 128,-1,45
 1063.84570312 1265 1063.84570312 1265 1043.34570312 1256.5 c 128,-1,46
 1022.84570312 1248 1022.84570312 1248 999.845703125 1253 c 0,47,48
 936.845703125 1264 936.845703125 1264 798.845703125 1271 c 1,49,50
 784.845703125 1211 784.845703125 1211 761.345703125 1091 c 128,-1,51
 737.845703125 971 737.845703125 971 718.345703125 872 c 128,-1,52
 698.845703125 773 698.845703125 773 669.845703125 651 c 128,-1,53
 640.845703125 529 640.845703125 529 614.845703125 440 c 0,0,1
EndSplineSet
EndChar

StartChar: K
Encoding: 75 75 43
Width: 1038
GlyphClass: 2
Flags: W
LayerCount: 2
Fore
SplineSet
133.09765625 50 m 1,0,1
 118.09765625 6 118.09765625 6 78.59765625 -20 c 128,-1,2
 39.09765625 -46 39.09765625 -46 -1.90234375 -44 c 0,3,4
 -39.90234375 -44 -39.90234375 -44 -57.90234375 -16 c 128,-1,5
 -75.90234375 12 -75.90234375 12 -60.90234375 61 c 0,6,7
 -33.90234375 151 -33.90234375 151 22.59765625 406 c 128,-1,8
 79.09765625 661 79.09765625 661 132.09765625 931 c 0,9,10
 159.09765625 1062 159.09765625 1062 169.59765625 1108.5 c 128,-1,11
 180.09765625 1155 180.09765625 1155 204.09765625 1242.5 c 128,-1,12
 228.09765625 1330 228.09765625 1330 233.09765625 1352 c 0,13,14
 248.09765625 1407 248.09765625 1407 281.09765625 1435 c 128,-1,15
 314.09765625 1463 314.09765625 1463 353.09765625 1463 c 0,16,17
 395.09765625 1465 395.09765625 1465 417.09765625 1439.5 c 128,-1,18
 439.09765625 1414 439.09765625 1414 426.09765625 1358 c 0,19,20
 415.09765625 1309 415.09765625 1309 372.09765625 1143 c 128,-1,21
 329.09765625 977 329.09765625 977 303.09765625 868 c 1,22,23
 388.09765625 939 388.09765625 939 560.59765625 1085 c 128,-1,24
 733.09765625 1231 733.09765625 1231 833.59765625 1315.5 c 128,-1,25
 934.09765625 1400 934.09765625 1400 963.09765625 1422 c 0,26,27
 995.09765625 1449 995.09765625 1449 1022.09765625 1458 c 128,-1,28
 1049.09765625 1467 1049.09765625 1467 1066.09765625 1461.5 c 128,-1,29
 1083.09765625 1456 1083.09765625 1456 1095.09765625 1439 c 0,30,31
 1131.09765625 1382 1131.09765625 1382 1045.09765625 1297 c 0,32,33
 1008.09765625 1260 1008.09765625 1260 791.59765625 1072 c 128,-1,34
 575.09765625 884 575.09765625 884 409.09765625 745 c 1,35,36
 456.09765625 672 456.09765625 672 575.59765625 515.5 c 128,-1,37
 695.09765625 359 695.09765625 359 781.59765625 240 c 128,-1,38
 868.09765625 121 868.09765625 121 873.09765625 90 c 0,39,40
 875.09765625 52 875.09765625 52 857.09765625 21 c 128,-1,41
 839.09765625 -10 839.09765625 -10 812.09765625 -26 c 0,42,43
 737.09765625 -74 737.09765625 -74 693.09765625 9 c 0,44,45
 679.09765625 35 679.09765625 35 589.09765625 149.5 c 128,-1,46
 499.09765625 264 499.09765625 264 395.59765625 402.5 c 128,-1,47
 292.09765625 541 292.09765625 541 248.09765625 622 c 1,48,-1
 238.09765625 581 l 2,49,50
 232.09765625 548 232.09765625 548 133.09765625 50 c 1,0,1
EndSplineSet
EndChar

StartChar: L
Encoding: 76 76 44
Width: 1038
GlyphClass: 2
Flags: W
LayerCount: 2
Fore
SplineSet
894.409179688 20 m 0,0,1
 758.409179688 -7 758.409179688 -7 492.909179688 -19 c 128,-1,2
 227.409179688 -31 227.409179688 -31 104.409179688 -31 c 0,3,4
 66.4091796875 -31 66.4091796875 -31 48.4091796875 -3 c 128,-1,5
 30.4091796875 25 30.4091796875 25 45.4091796875 74 c 0,6,7
 50.4091796875 90 50.4091796875 90 121.909179688 308.5 c 128,-1,8
 193.409179688 527 193.409179688 527 249.409179688 730 c 0,9,10
 276.409179688 822 276.409179688 822 329.409179688 1067.5 c 128,-1,11
 382.409179688 1313 382.409179688 1313 387.409179688 1334 c 0,12,13
 402.409179688 1390 402.409179688 1390 435.409179688 1418 c 128,-1,14
 468.409179688 1446 468.409179688 1446 506.409179688 1446 c 0,15,16
 548.409179688 1448 548.409179688 1448 570.909179688 1422 c 128,-1,17
 593.409179688 1396 593.409179688 1396 580.409179688 1341 c 0,18,19
 566.409179688 1282 566.409179688 1282 539.409179688 1179.5 c 128,-1,20
 512.409179688 1077 512.409179688 1077 471.409179688 921 c 128,-1,21
 430.409179688 765 430.409179688 765 400.409179688 651 c 0,22,23
 378.409179688 566 378.409179688 566 328.909179688 402 c 128,-1,24
 279.409179688 238 279.409179688 238 258.409179688 147 c 1,25,26
 418.409179688 145 418.409179688 145 634.409179688 167 c 128,-1,27
 850.409179688 189 850.409179688 189 926.409179688 208 c 0,28,29
 950.409179688 214 950.409179688 214 966.909179688 206.5 c 128,-1,30
 983.409179688 199 983.409179688 199 990.409179688 182 c 128,-1,31
 997.409179688 165 997.409179688 165 998.909179688 146 c 128,-1,32
 1000.40917969 127 1000.40917969 127 997.409179688 110 c 0,33,34
 988.409179688 73 988.409179688 73 966.409179688 51 c 128,-1,35
 944.409179688 29 944.409179688 29 894.409179688 20 c 0,0,1
EndSplineSet
EndChar

StartChar: M
Encoding: 77 77 45
Width: 1038
GlyphClass: 2
Flags: W
LayerCount: 2
Fore
SplineSet
85.4169921875 120 m 0,0,1
 73.4169921875 55 73.4169921875 55 36.9169921875 17 c 128,-1,2
 0.4169921875 -21 0.4169921875 -21 -37.5830078125 -20 c 0,3,4
 -105.583007812 -17 -105.583007812 -17 -71.5830078125 131 c 0,5,6
 -65.5830078125 156 -65.5830078125 156 -46.5830078125 215.5 c 128,-1,7
 -27.5830078125 275 -27.5830078125 275 3.9169921875 371 c 128,-1,8
 35.4169921875 467 35.4169921875 467 57.4169921875 539 c 0,9,10
 64.4169921875 563 64.4169921875 563 80.4169921875 614 c 0,11,12
 126.416992188 766 126.416992188 766 152.916992188 851 c 128,-1,13
 179.416992188 936 179.416992188 936 220.916992188 1062.5 c 128,-1,14
 262.416992188 1189 262.416992188 1189 291.416992188 1262.5 c 128,-1,15
 320.416992188 1336 320.416992188 1336 339.416992188 1363 c 0,16,17
 368.416992188 1405 368.416992188 1405 413.416992188 1425 c 128,-1,18
 458.416992188 1445 458.416992188 1445 493.416992188 1442 c 0,19,20
 579.416992188 1442 579.416992188 1442 580.416992188 1367 c 0,21,22
 582.416992188 1277 582.416992188 1277 561.416992188 1069 c 128,-1,23
 540.416992188 861 540.416992188 861 507.416992188 594 c 128,-1,24
 474.416992188 327 474.416992188 327 465.416992188 241 c 1,25,26
 551.416992188 530 551.416992188 530 628.416992188 762 c 0,27,28
 684.416992188 933 684.416992188 933 753.916992188 1104 c 128,-1,29
 823.416992188 1275 823.416992188 1275 866.416992188 1367 c 0,30,31
 881.416992188 1398 881.416992188 1398 909.916992188 1416.5 c 128,-1,32
 938.416992188 1435 938.416992188 1435 964.916992188 1439.5 c 128,-1,33
 991.416992188 1444 991.416992188 1444 1015.41699219 1442 c 0,34,35
 1018.41699219 1442 1018.41699219 1442 1023.41699219 1442 c 0,36,37
 1039.41699219 1442 1039.41699219 1442 1049.41699219 1441.5 c 128,-1,38
 1059.41699219 1441 1059.41699219 1441 1075.91699219 1436.5 c 128,-1,39
 1092.41699219 1432 1092.41699219 1432 1101.41699219 1424 c 128,-1,40
 1110.41699219 1416 1110.41699219 1416 1116.41699219 1398.5 c 128,-1,41
 1122.41699219 1381 1122.41699219 1381 1120.41699219 1356 c 0,42,43
 1113.41699219 1294 1113.41699219 1294 1025.91699219 756 c 128,-1,44
 938.416992188 218 938.416992188 218 937.416992188 147 c 0,45,46
 935.416992188 24 935.416992188 24 860.416992188 -9 c 0,47,48
 820.416992188 -25 820.416992188 -25 789.916992188 -5 c 128,-1,49
 759.416992188 15 759.416992188 15 755.416992188 79 c 0,50,51
 747.416992188 216 747.416992188 216 961.416992188 1275 c 1,52,53
 838.416992188 979 838.416992188 979 765.416992188 736 c 0,54,55
 693.416992188 502 693.416992188 502 615.916992188 291.5 c 128,-1,56
 538.416992188 81 538.416992188 81 509.416992188 35 c 0,57,58
 477.416992188 -15 477.416992188 -15 391.416992188 -15 c 0,59,60
 353.416992188 -17 353.416992188 -17 331.916992188 -2 c 128,-1,61
 310.416992188 13 310.416992188 13 310.416992188 39 c 0,62,63
 311.416992188 138 311.416992188 138 339.916992188 490.5 c 128,-1,64
 368.416992188 843 368.416992188 843 399.416992188 1168 c 1,65,66
 378.416992188 1103 378.416992188 1103 352.916992188 1020 c 128,-1,67
 327.416992188 937 327.416992188 937 309.916992188 877 c 128,-1,68
 292.416992188 817 292.416992188 817 257.916992188 698.5 c 128,-1,69
 223.416992188 580 223.416992188 580 205.416992188 519 c 0,70,71
 181.416992188 434 181.416992188 434 151.916992188 341.5 c 128,-1,72
 122.416992188 249 122.416992188 249 106.416992188 196.5 c 128,-1,73
 90.4169921875 144 90.4169921875 144 85.4169921875 120 c 0,0,1
EndSplineSet
EndChar

StartChar: N
Encoding: 78 78 46
Width: 1038
GlyphClass: 2
Flags: W
LayerCount: 2
Fore
SplineSet
680.432617188 -28 m 0,0,1
 644.432617188 -30 644.432617188 -30 623.932617188 -14.5 c 128,-1,2
 603.432617188 1 603.432617188 1 599.432617188 26 c 0,3,4
 591.432617188 67 591.432617188 67 549.932617188 207 c 128,-1,5
 508.432617188 347 508.432617188 347 463.932617188 497 c 128,-1,6
 419.432617188 647 419.432617188 647 375.932617188 833.5 c 128,-1,7
 332.432617188 1020 332.432617188 1020 319.432617188 1152 c 1,8,9
 279.432617188 929 279.432617188 929 231.932617188 736 c 128,-1,10
 184.432617188 543 184.432617188 543 132.432617188 343.5 c 128,-1,11
 80.4326171875 144 80.4326171875 144 72.4326171875 101 c 0,12,13
 60.4326171875 36 60.4326171875 36 26.4326171875 5 c 128,-1,14
 -7.5673828125 -26 -7.5673828125 -26 -46.5673828125 -24 c 0,15,16
 -85.5673828125 -23 -85.5673828125 -23 -92.0673828125 11.5 c 128,-1,17
 -98.5673828125 46 -98.5673828125 46 -83.5673828125 112 c 0,18,19
 -74.5673828125 152 -74.5673828125 152 -5.0673828125 429.5 c 128,-1,20
 64.4326171875 707 64.4326171875 707 114.932617188 914 c 128,-1,21
 165.432617188 1121 165.432617188 1121 203.432617188 1310 c 0,22,23
 210.432617188 1351 210.432617188 1351 228.432617188 1379.5 c 128,-1,24
 246.432617188 1408 246.432617188 1408 270.432617188 1422 c 128,-1,25
 294.432617188 1436 294.432617188 1436 318.932617188 1440.5 c 128,-1,26
 343.432617188 1445 343.432617188 1445 367.432617188 1442 c 0,27,28
 450.432617188 1442 450.432617188 1442 454.432617188 1367 c 0,29,30
 463.432617188 1232 463.432617188 1232 560.432617188 869 c 128,-1,31
 657.432617188 506 657.432617188 506 731.432617188 283 c 1,32,33
 783.432617188 476 783.432617188 476 864.432617188 843 c 128,-1,34
 945.432617188 1210 945.432617188 1210 958.432617188 1328 c 0,35,36
 964.432617188 1377 964.432617188 1377 995.932617188 1410.5 c 128,-1,37
 1027.43261719 1444 1027.43261719 1444 1065.43261719 1444 c 0,38,39
 1086.43261719 1444 1086.43261719 1444 1100.43261719 1439 c 128,-1,40
 1114.43261719 1434 1114.43261719 1434 1121.43261719 1427 c 128,-1,41
 1128.43261719 1420 1128.43261719 1420 1130.43261719 1403.5 c 128,-1,42
 1132.43261719 1387 1132.43261719 1387 1131.93261719 1373.5 c 128,-1,43
 1131.43261719 1360 1131.43261719 1360 1128.43261719 1332 c 0,44,45
 1125.43261719 1299 1125.43261719 1299 1058.43261719 1002.5 c 128,-1,46
 991.432617188 706 991.432617188 706 909.932617188 389 c 128,-1,47
 828.432617188 72 828.432617188 72 797.432617188 22 c 0,48,49
 766.432617188 -28 766.432617188 -28 680.432617188 -28 c 0,0,1
EndSplineSet
EndChar

StartChar: O
Encoding: 79 79 47
Width: 1038
GlyphClass: 2
Flags: W
LayerCount: 2
Fore
SplineSet
282.254882812 -50 m 0,0,1
 165.254882812 -48 165.254882812 -48 89.7548828125 27 c 128,-1,2
 14.2548828125 102 14.2548828125 102 -7.2451171875 228 c 128,-1,3
 -28.7451171875 354 -28.7451171875 354 8.2548828125 504 c 0,4,5
 11.2548828125 515 11.2548828125 515 16.2548828125 539 c 0,6,7
 37.2548828125 631 37.2548828125 631 51.7548828125 686.5 c 128,-1,8
 66.2548828125 742 66.2548828125 742 93.2548828125 834 c 128,-1,9
 120.254882812 926 120.254882812 926 155.754882812 1008.5 c 128,-1,10
 191.254882812 1091 191.254882812 1091 234.254882812 1166 c 0,11,12
 313.254882812 1300 313.254882812 1300 453.254882812 1385 c 128,-1,13
 593.254882812 1470 593.254882812 1470 744.254882812 1470 c 0,14,15
 820.254882812 1470 820.254882812 1470 882.754882812 1438.5 c 128,-1,16
 945.254882812 1407 945.254882812 1407 987.754882812 1347.5 c 128,-1,17
 1030.25488281 1288 1030.25488281 1288 1045.75488281 1196 c 128,-1,18
 1061.25488281 1104 1061.25488281 1104 1044.25488281 990 c 0,19,20
 1028.25488281 888 1028.25488281 888 1002.25488281 770.5 c 128,-1,21
 976.254882812 653 976.254882812 653 940.754882812 533 c 128,-1,22
 905.254882812 413 905.254882812 413 872.254882812 344 c 0,23,24
 826.254882812 248 826.254882812 248 773.754882812 178.5 c 128,-1,25
 721.254882812 109 721.254882812 109 667.254882812 65 c 128,-1,26
 613.254882812 21 613.254882812 21 549.254882812 -5 c 128,-1,27
 485.254882812 -31 485.254882812 -31 422.754882812 -40.5 c 128,-1,28
 360.254882812 -50 360.254882812 -50 282.254882812 -50 c 0,0,1
322.254882812 123 m 0,29,30
 373.254882812 123 373.254882812 123 423.754882812 136.5 c 128,-1,31
 474.254882812 150 474.254882812 150 524.254882812 179 c 128,-1,32
 574.254882812 208 574.254882812 208 619.754882812 257.5 c 128,-1,33
 665.254882812 307 665.254882812 307 699.254882812 372 c 0,34,35
 712.254882812 398 712.254882812 398 743.254882812 494.5 c 128,-1,36
 774.254882812 591 774.254882812 591 809.254882812 724.5 c 128,-1,37
 844.254882812 858 844.254882812 858 864.254882812 988 c 0,38,39
 884.254882812 1123 884.254882812 1123 834.754882812 1213.5 c 128,-1,40
 785.254882812 1304 785.254882812 1304 684.254882812 1304 c 0,41,42
 581.254882812 1304 581.254882812 1304 493.254882812 1223 c 128,-1,43
 405.254882812 1142 405.254882812 1142 340.254882812 997 c 0,44,45
 252.254882812 803 252.254882812 803 201.254882812 537 c 0,46,47
 189.254882812 472 189.254882812 472 183.254882812 416 c 128,-1,48
 177.254882812 360 177.254882812 360 180.754882812 304.5 c 128,-1,49
 184.254882812 249 184.254882812 249 198.754882812 210 c 128,-1,50
 213.254882812 171 213.254882812 171 244.754882812 147 c 128,-1,51
 276.254882812 123 276.254882812 123 322.254882812 123 c 0,29,30
EndSplineSet
EndChar

StartChar: P
Encoding: 80 80 48
Width: 1038
GlyphClass: 2
Flags: W
LayerCount: 2
Fore
SplineSet
163.338867188 50 m 0,0,1
 155.338867188 7 155.338867188 7 115.838867188 -17 c 128,-1,2
 76.3388671875 -41 76.3388671875 -41 35.3388671875 -39 c 0,3,4
 -4.6611328125 -38 -4.6611328125 -38 -24.6611328125 -12.5 c 128,-1,5
 -44.6611328125 13 -44.6611328125 13 -28.6611328125 61 c 0,6,7
 -19.6611328125 94 -19.6611328125 94 -4.1611328125 159 c 128,-1,8
 11.3388671875 224 11.3388671875 224 31.8388671875 318.5 c 128,-1,9
 52.3388671875 413 52.3388671875 413 71.3388671875 502.5 c 128,-1,10
 90.3388671875 592 90.3388671875 592 116.838867188 720.5 c 128,-1,11
 143.338867188 849 143.338867188 849 162.338867188 935 c 0,12,13
 190.338867188 1069 190.338867188 1069 246.338867188 1288 c 1,14,15
 238.338867188 1299 238.338867188 1299 238.338867188 1299 c 1,16,17
 229.338867188 1324 229.338867188 1324 239.338867188 1349.5 c 128,-1,18
 249.338867188 1375 249.338867188 1375 270.338867188 1395 c 128,-1,19
 291.338867188 1415 291.338867188 1415 310.338867188 1420 c 0,20,21
 383.338867188 1437 383.338867188 1437 518.838867188 1447 c 128,-1,22
 654.338867188 1457 654.338867188 1457 707.338867188 1457 c 0,23,24
 837.338867188 1457 837.338867188 1457 926.838867188 1407.5 c 128,-1,25
 1016.33886719 1358 1016.33886719 1358 1053.33886719 1258.5 c 128,-1,26
 1090.33886719 1159 1090.33886719 1159 1060.33886719 1021 c 0,27,28
 1034.33886719 907 1034.33886719 907 976.338867188 806 c 128,-1,29
 918.338867188 705 918.338867188 705 840.838867188 631 c 128,-1,30
 763.338867188 557 763.338867188 557 665.838867188 514 c 128,-1,31
 568.338867188 471 568.338867188 471 466.338867188 471 c 0,32,33
 317.338867188 471 317.338867188 471 237.338867188 493 c 1,34,35
 221.338867188 406 221.338867188 406 208.338867188 328 c 128,-1,36
 195.338867188 250 195.338867188 250 181.838867188 165.5 c 128,-1,37
 168.338867188 81 168.338867188 81 163.338867188 50 c 0,0,1
668.338867188 1290 m 0,38,39
 602.338867188 1290 602.338867188 1290 423.338867188 1273 c 1,40,41
 413.338867188 1232 413.338867188 1232 384.838867188 1122 c 128,-1,42
 356.338867188 1012 356.338867188 1012 327.338867188 895.5 c 128,-1,43
 298.338867188 779 298.338867188 779 274.338867188 668 c 1,44,45
 344.338867188 638 344.338867188 638 448.338867188 638 c 0,46,47
 503.338867188 638 503.338867188 638 550.838867188 647 c 128,-1,48
 598.338867188 656 598.338867188 656 635.338867188 670.5 c 128,-1,49
 672.338867188 685 672.338867188 685 704.338867188 708.5 c 128,-1,50
 736.338867188 732 736.338867188 732 759.338867188 755 c 128,-1,51
 782.338867188 778 782.338867188 778 801.838867188 809.5 c 128,-1,52
 821.338867188 841 821.338867188 841 833.838867188 866.5 c 128,-1,53
 846.338867188 892 846.338867188 892 857.838867188 926 c 128,-1,54
 869.338867188 960 869.338867188 960 875.338867188 982 c 128,-1,55
 881.338867188 1004 881.338867188 1004 888.338867188 1034 c 0,56,57
 901.338867188 1092 901.338867188 1092 892.838867188 1138 c 128,-1,58
 884.338867188 1184 884.338867188 1184 861.338867188 1211.5 c 128,-1,59
 838.338867188 1239 838.338867188 1239 803.838867188 1257.5 c 128,-1,60
 769.338867188 1276 769.338867188 1276 735.338867188 1283 c 128,-1,61
 701.338867188 1290 701.338867188 1290 668.338867188 1290 c 0,38,39
EndSplineSet
EndChar

StartChar: Q
Encoding: 81 81 49
Width: 1038
GlyphClass: 2
Flags: W
LayerCount: 2
Fore
SplineSet
694.193359375 -421 m 0,0,1
 660.193359375 -441 660.193359375 -441 627.193359375 -431 c 128,-1,2
 594.193359375 -421 594.193359375 -421 576.193359375 -386 c 0,3,4
 558.193359375 -349 558.193359375 -349 517.693359375 -248.5 c 128,-1,5
 477.193359375 -148 477.193359375 -148 440.193359375 -42 c 1,6,7
 389.193359375 -50 389.193359375 -50 328.193359375 -50 c 0,8,9
 243.193359375 -50 243.193359375 -50 178.693359375 -21 c 128,-1,10
 114.193359375 8 114.193359375 8 73.193359375 59.5 c 128,-1,11
 32.193359375 111 32.193359375 111 10.693359375 181 c 128,-1,12
 -10.806640625 251 -10.806640625 251 -11.306640625 332.5 c 128,-1,13
 -11.806640625 414 -11.806640625 414 5.193359375 504 c 0,14,15
 83.193359375 902 83.193359375 902 231.193359375 1157 c 0,16,17
 311.193359375 1292 311.193359375 1292 451.693359375 1381 c 128,-1,18
 592.193359375 1470 592.193359375 1470 741.193359375 1470 c 0,19,20
 819.193359375 1470 819.193359375 1470 880.193359375 1442 c 128,-1,21
 941.193359375 1414 941.193359375 1414 983.693359375 1358 c 128,-1,22
 1026.19335938 1302 1026.19335938 1302 1041.69335938 1208 c 128,-1,23
 1057.19335938 1114 1057.19335938 1114 1041.19335938 990 c 0,24,25
 1022.19335938 848 1022.19335938 848 971.193359375 644 c 128,-1,26
 920.193359375 440 920.193359375 440 874.193359375 333 c 0,27,28
 782.193359375 112 782.193359375 112 614.193359375 18 c 1,29,30
 639.193359375 -41 639.193359375 -41 667.693359375 -102 c 128,-1,31
 696.193359375 -163 696.193359375 -163 723.193359375 -217 c 128,-1,32
 750.193359375 -271 750.193359375 -271 759.193359375 -289 c 0,33,34
 768.193359375 -311 768.193359375 -311 758.193359375 -337.5 c 128,-1,35
 748.193359375 -364 748.193359375 -364 729.693359375 -387 c 128,-1,36
 711.193359375 -410 711.193359375 -410 694.193359375 -421 c 0,0,1
199.193359375 537 m 0,37,38
 179.193359375 421 179.193359375 421 192.193359375 327 c 128,-1,39
 205.193359375 233 205.193359375 233 250.193359375 178 c 128,-1,40
 295.193359375 123 295.193359375 123 368.193359375 123 c 2,41,-1
 388.193359375 123 l 1,42,43
 363.193359375 215 363.193359375 215 356.193359375 267 c 0,44,45
 341.193359375 387 341.193359375 387 414.193359375 438 c 0,46,47
 434.193359375 453 434.193359375 453 454.193359375 455.5 c 128,-1,48
 474.193359375 458 474.193359375 458 489.693359375 443.5 c 128,-1,49
 505.193359375 429 505.193359375 429 508.193359375 397 c 0,50,51
 519.193359375 295 519.193359375 295 557.193359375 175 c 1,52,53
 653.193359375 235 653.193359375 235 708.193359375 364 c 0,54,55
 721.193359375 394 721.193359375 394 749.193359375 487.5 c 128,-1,56
 777.193359375 581 777.193359375 581 811.193359375 721 c 128,-1,57
 845.193359375 861 845.193359375 861 861.193359375 988 c 0,58,59
 879.193359375 1133 879.193359375 1133 831.193359375 1218.5 c 128,-1,60
 783.193359375 1304 783.193359375 1304 681.193359375 1304 c 0,61,62
 577.193359375 1304 577.193359375 1304 488.693359375 1224.5 c 128,-1,63
 400.193359375 1145 400.193359375 1145 336.193359375 1001 c 0,64,65
 240.193359375 788 240.193359375 788 199.193359375 537 c 0,37,38
EndSplineSet
EndChar

StartChar: R
Encoding: 82 82 50
Width: 1038
GlyphClass: 2
Flags: W
LayerCount: 2
Fore
SplineSet
161.319335938 50 m 0,0,1
 153.319335938 7 153.319335938 7 114.319335938 -17 c 128,-1,2
 75.3193359375 -41 75.3193359375 -41 32.3193359375 -39 c 0,3,4
 -6.6806640625 -38 -6.6806640625 -38 -27.1806640625 -12.5 c 128,-1,5
 -47.6806640625 13 -47.6806640625 13 -31.6806640625 61 c 0,6,7
 0.3193359375 167 0.3193359375 167 18.8193359375 242.5 c 128,-1,8
 37.3193359375 318 37.3193359375 318 101.319335938 611 c 0,9,10
 109.319335938 650 109.319335938 650 143.319335938 777.5 c 128,-1,11
 177.319335938 905 177.319335938 905 199.319335938 1019 c 0,12,13
 213.319335938 1089 213.319335938 1089 232.819335938 1208.5 c 128,-1,14
 252.319335938 1328 252.319335938 1328 258.319335938 1352 c 2,15,-1
 260.319335938 1363 l 2,16,17
 266.319335938 1401 266.319335938 1401 301.319335938 1431 c 1,18,19
 333.319335938 1463 333.319335938 1463 377.319335938 1463 c 0,20,21
 414.319335938 1463 414.319335938 1463 433.319335938 1446 c 1,22,23
 588.319335938 1438 588.319335938 1438 709.819335938 1401.5 c 128,-1,24
 831.319335938 1365 831.319335938 1365 904.819335938 1312.5 c 128,-1,25
 978.319335938 1260 978.319335938 1260 1021.31933594 1192.5 c 128,-1,26
 1064.31933594 1125 1064.31933594 1125 1073.31933594 1057 c 128,-1,27
 1082.31933594 989 1082.31933594 989 1067.31933594 920 c 0,28,29
 1055.31933594 868 1055.31933594 868 1032.81933594 825.5 c 128,-1,30
 1010.31933594 783 1010.31933594 783 979.819335938 751 c 128,-1,31
 949.319335938 719 949.319335938 719 907.319335938 694 c 128,-1,32
 865.319335938 669 865.319335938 669 820.319335938 652 c 128,-1,33
 775.319335938 635 775.319335938 635 716.819335938 622 c 128,-1,34
 658.319335938 609 658.319335938 609 601.319335938 601 c 128,-1,35
 544.319335938 593 544.319335938 593 473.319335938 587 c 1,36,37
 641.319335938 480 641.319335938 480 754.819335938 338.5 c 128,-1,38
 868.319335938 197 868.319335938 197 891.319335938 96 c 1,39,40
 894.319335938 59 894.319335938 59 875.819335938 28 c 128,-1,41
 857.319335938 -3 857.319335938 -3 829.319335938 -20 c 0,42,43
 796.319335938 -42 796.319335938 -42 763.819335938 -34 c 128,-1,44
 731.319335938 -26 731.319335938 -26 712.319335938 15 c 0,45,46
 691.319335938 58 691.319335938 58 649.819335938 120.5 c 128,-1,47
 608.319335938 183 608.319335938 183 546.819335938 259.5 c 128,-1,48
 485.319335938 336 485.319335938 336 401.819335938 410.5 c 128,-1,49
 318.319335938 485 318.319335938 485 233.319335938 530 c 1,50,51
 211.319335938 412 211.319335938 412 189.819335938 250.5 c 128,-1,52
 168.319335938 89 168.319335938 89 161.319335938 50 c 0,0,1
370.319335938 1019 m 0,53,54
 365.319335938 996 365.319335938 996 354.319335938 959 c 128,-1,55
 343.319335938 922 343.319335938 922 334.319335938 892.5 c 128,-1,56
 325.319335938 863 325.319335938 863 308.819335938 810.5 c 128,-1,57
 292.319335938 758 292.319335938 758 285.319335938 736 c 1,58,59
 323.319335938 728 323.319335938 728 404.319335938 734 c 0,60,61
 482.319335938 738 482.319335938 738 537.819335938 743 c 128,-1,62
 593.319335938 748 593.319335938 748 648.819335938 756.5 c 128,-1,63
 704.319335938 765 704.319335938 765 742.319335938 777.5 c 128,-1,64
 780.319335938 790 780.319335938 790 812.319335938 808.5 c 128,-1,65
 844.319335938 827 844.319335938 827 863.319335938 852.5 c 128,-1,66
 882.319335938 878 882.319335938 878 890.319335938 911 c 0,67,68
 903.319335938 968 903.319335938 968 876.319335938 1022 c 128,-1,69
 849.319335938 1076 849.319335938 1076 798.319335938 1116.5 c 128,-1,70
 747.319335938 1157 747.319335938 1157 678.819335938 1190.5 c 128,-1,71
 610.319335938 1224 610.319335938 1224 545.819335938 1245 c 128,-1,72
 481.319335938 1266 481.319335938 1266 422.319335938 1277 c 1,73,74
 390.319335938 1127 390.319335938 1127 370.319335938 1019 c 0,53,54
EndSplineSet
EndChar

StartChar: S
Encoding: 83 83 51
Width: 1038
GlyphClass: 2
Flags: W
LayerCount: 2
Fore
SplineSet
-79.189453125 136 m 0,0,1
 -90.189453125 191 -90.189453125 191 -74.189453125 226 c 128,-1,2
 -58.189453125 261 -58.189453125 261 -22.189453125 278 c 0,3,4
 2.810546875 289 2.810546875 289 17.810546875 292.5 c 128,-1,5
 32.810546875 296 32.810546875 296 48.310546875 294 c 128,-1,6
 63.810546875 292 63.810546875 292 76.310546875 278 c 128,-1,7
 88.810546875 264 88.810546875 264 99.810546875 237 c 0,8,9
 120.810546875 181 120.810546875 181 173.310546875 147.5 c 128,-1,10
 225.810546875 114 225.810546875 114 302.810546875 114 c 0,11,12
 348.810546875 114 348.810546875 114 401.810546875 127.5 c 128,-1,13
 454.810546875 141 454.810546875 141 508.310546875 168.5 c 128,-1,14
 561.810546875 196 561.810546875 196 608.310546875 233 c 128,-1,15
 654.810546875 270 654.810546875 270 688.810546875 320 c 128,-1,16
 722.810546875 370 722.810546875 370 735.810546875 425 c 0,17,18
 742.810546875 455 742.810546875 455 745.310546875 480 c 128,-1,19
 747.810546875 505 747.810546875 505 743.310546875 534 c 128,-1,20
 738.810546875 563 738.810546875 563 726.310546875 586.5 c 128,-1,21
 713.810546875 610 713.810546875 610 686.810546875 634 c 128,-1,22
 659.810546875 658 659.810546875 658 620.310546875 676 c 128,-1,23
 580.810546875 694 580.810546875 694 521.310546875 709.5 c 128,-1,24
 461.810546875 725 461.810546875 725 385.810546875 734 c 0,25,26
 319.810546875 742 319.810546875 742 270.810546875 772.5 c 128,-1,27
 221.810546875 803 221.810546875 803 197.310546875 846.5 c 128,-1,28
 172.810546875 890 172.810546875 890 164.810546875 939 c 128,-1,29
 156.810546875 988 156.810546875 988 167.810546875 1036 c 0,30,31
 183.810546875 1105 183.810546875 1105 221.310546875 1170 c 128,-1,32
 258.810546875 1235 258.810546875 1235 317.810546875 1292 c 128,-1,33
 376.810546875 1349 376.810546875 1349 450.810546875 1391.5 c 128,-1,34
 524.810546875 1434 524.810546875 1434 620.810546875 1458.5 c 128,-1,35
 716.810546875 1483 716.810546875 1483 820.810546875 1483 c 0,36,37
 871.810546875 1483 871.810546875 1483 958.810546875 1473.5 c 128,-1,38
 1045.81054688 1464 1045.81054688 1464 1076.81054688 1450 c 0,39,40
 1109.81054688 1436 1109.81054688 1436 1118.31054688 1405 c 128,-1,41
 1126.81054688 1374 1126.81054688 1374 1113.81054688 1339 c 0,42,43
 1105.81054688 1315 1105.81054688 1315 1089.81054688 1301 c 128,-1,44
 1073.81054688 1287 1073.81054688 1287 1054.81054688 1284.5 c 128,-1,45
 1035.81054688 1282 1035.81054688 1282 1020.31054688 1283.5 c 128,-1,46
 1004.81054688 1285 1004.81054688 1285 988.810546875 1290 c 0,47,48
 985.810546875 1291 985.810546875 1291 977.810546875 1294 c 0,49,50
 946.810546875 1303 946.810546875 1303 927.810546875 1307.5 c 128,-1,51
 908.810546875 1312 908.810546875 1312 866.310546875 1316.5 c 128,-1,52
 823.810546875 1321 823.810546875 1321 767.810546875 1321 c 0,53,54
 680.810546875 1321 680.810546875 1321 596.810546875 1293.5 c 128,-1,55
 512.810546875 1266 512.810546875 1266 450.310546875 1211 c 128,-1,56
 387.810546875 1156 387.810546875 1156 371.810546875 1087 c 0,57,58
 353.810546875 1007 353.810546875 1007 405.310546875 952.5 c 128,-1,59
 456.810546875 898 456.810546875 898 572.810546875 892 c 0,60,61
 677.810546875 886 677.810546875 886 753.310546875 857 c 128,-1,62
 828.810546875 828 828.810546875 828 869.310546875 786 c 128,-1,63
 909.810546875 744 909.810546875 744 929.310546875 687.5 c 128,-1,64
 948.810546875 631 948.810546875 631 948.310546875 576 c 128,-1,65
 947.810546875 521 947.810546875 521 933.810546875 460 c 0,66,67
 911.810546875 366 911.810546875 366 862.810546875 283 c 128,-1,68
 813.810546875 200 813.810546875 200 746.810546875 138 c 128,-1,69
 679.810546875 76 679.810546875 76 599.310546875 31 c 128,-1,70
 518.810546875 -14 518.810546875 -14 430.810546875 -36.5 c 128,-1,71
 342.810546875 -59 342.810546875 -59 255.810546875 -59 c 0,72,73
 121.810546875 -59 121.810546875 -59 31.310546875 -2 c 128,-1,74
 -59.189453125 55 -59.189453125 55 -79.189453125 136 c 0,0,1
EndSplineSet
EndChar

StartChar: T
Encoding: 84 84 52
Width: 1038
GlyphClass: 2
Flags: W
LayerCount: 2
Fore
SplineSet
342.154296875 68 m 1,0,1
 328.154296875 24 328.154296875 24 288.654296875 -2 c 128,-1,2
 249.154296875 -28 249.154296875 -28 209.154296875 -26 c 0,3,4
 171.154296875 -26 171.154296875 -26 152.154296875 1.5 c 128,-1,5
 133.154296875 29 133.154296875 29 150.154296875 79 c 0,6,7
 178.154296875 172 178.154296875 172 274.154296875 650.5 c 128,-1,8
 370.154296875 1129 370.154296875 1129 404.154296875 1271 c 1,9,10
 158.154296875 1284 158.154296875 1284 121.154296875 1290 c 0,11,12
 27.154296875 1306 27.154296875 1306 42.154296875 1371 c 0,13,14
 49.154296875 1410 49.154296875 1410 81.654296875 1440 c 128,-1,15
 114.154296875 1470 114.154296875 1470 159.154296875 1461 c 0,16,17
 260.154296875 1442 260.154296875 1442 927.154296875 1435 c 0,18,19
 973.154296875 1435 973.154296875 1435 987.654296875 1411 c 128,-1,20
 1002.15429688 1387 1002.15429688 1387 996.154296875 1352 c 0,21,22
 987.154296875 1312 987.154296875 1312 956.654296875 1281 c 128,-1,23
 926.154296875 1250 926.154296875 1250 881.154296875 1253 c 0,24,25
 866.154296875 1254 866.154296875 1254 594.154296875 1264 c 1,26,27
 500.154296875 846 500.154296875 846 342.154296875 68 c 1,0,1
EndSplineSet
EndChar

StartChar: U
Encoding: 85 85 53
Width: 1038
GlyphClass: 2
Flags: W
LayerCount: 2
Fore
SplineSet
916.701171875 532 m 0,0,1
 892.701171875 439 892.701171875 439 854.201171875 358.5 c 128,-1,2
 815.701171875 278 815.701171875 278 771.701171875 218.5 c 128,-1,3
 727.701171875 159 727.701171875 159 675.701171875 111 c 128,-1,4
 623.701171875 63 623.701171875 63 571.701171875 32 c 128,-1,5
 519.701171875 1 519.701171875 1 465.201171875 -20 c 128,-1,6
 410.701171875 -41 410.701171875 -41 362.201171875 -50 c 128,-1,7
 313.701171875 -59 313.701171875 -59 268.701171875 -59 c 0,8,9
 212.701171875 -59 212.701171875 -59 159.701171875 -43 c 128,-1,10
 106.701171875 -27 106.701171875 -27 56.201171875 13.5 c 128,-1,11
 5.701171875 54 5.701171875 54 -26.298828125 114.5 c 128,-1,12
 -58.298828125 175 -58.298828125 175 -66.798828125 271.5 c 128,-1,13
 -75.298828125 368 -75.298828125 368 -51.298828125 489 c 0,14,15
 77.701171875 1112 77.701171875 1112 138.701171875 1336 c 0,16,17
 152.701171875 1391 152.701171875 1391 187.701171875 1422 c 128,-1,18
 222.701171875 1453 222.701171875 1453 261.701171875 1453 c 0,19,20
 340.701171875 1453 340.701171875 1453 315.701171875 1347 c 0,21,22
 155.701171875 653 155.701171875 653 132.701171875 508 c 0,23,24
 122.701171875 451 122.701171875 451 120.701171875 400 c 128,-1,25
 118.701171875 349 118.701171875 349 128.201171875 298 c 128,-1,26
 137.701171875 247 137.701171875 247 159.701171875 210 c 128,-1,27
 181.701171875 173 181.701171875 173 223.701171875 150 c 128,-1,28
 265.701171875 127 265.701171875 127 325.701171875 127 c 0,29,30
 462.701171875 127 462.701171875 127 569.701171875 224.5 c 128,-1,31
 676.701171875 322 676.701171875 322 734.701171875 521 c 0,32,33
 760.701171875 608 760.701171875 608 792.701171875 738.5 c 128,-1,34
 824.701171875 869 824.701171875 869 847.201171875 970.5 c 128,-1,35
 869.701171875 1072 869.701171875 1072 894.701171875 1185 c 128,-1,36
 919.701171875 1298 919.701171875 1298 924.701171875 1319 c 0,37,38
 935.701171875 1365 935.701171875 1365 948.701171875 1394 c 128,-1,39
 961.701171875 1423 961.701171875 1423 979.201171875 1435.5 c 128,-1,40
 996.701171875 1448 996.701171875 1448 1010.20117188 1451.5 c 128,-1,41
 1023.70117188 1455 1023.70117188 1455 1043.70117188 1455 c 0,42,43
 1079.70117188 1455 1079.70117188 1455 1096.70117188 1424.5 c 128,-1,44
 1113.70117188 1394 1113.70117188 1394 1102.70117188 1341 c 0,45,46
 1044.70117188 1021 1044.70117188 1021 916.701171875 532 c 0,0,1
EndSplineSet
EndChar

StartChar: V
Encoding: 86 86 54
Width: 1038
GlyphClass: 2
Flags: W
LayerCount: 2
Fore
SplineSet
320.891601562 55 m 0,0,1
 279.891601562 -32 279.891601562 -32 200.891601562 -24 c 1,2,3
 117.891601562 -24 117.891601562 -24 106.891601562 50 c 0,4,5
 78.8916015625 270 78.8916015625 270 41.8916015625 731.5 c 128,-1,6
 4.8916015625 1193 4.8916015625 1193 7.8916015625 1293 c 0,7,8
 9.8916015625 1416 9.8916015625 1416 83.8916015625 1448 c 0,9,10
 123.891601562 1465 123.891601562 1465 154.391601562 1445 c 128,-1,11
 184.891601562 1425 184.891601562 1425 188.891601562 1360 c 0,12,13
 188.891601562 1348 188.891601562 1348 195.391601562 1228.5 c 128,-1,14
 201.891601562 1109 201.891601562 1109 208.391601562 994.5 c 128,-1,15
 214.891601562 880 214.891601562 880 223.891601562 736.5 c 128,-1,16
 232.891601562 593 232.891601562 593 241.391601562 467 c 128,-1,17
 249.891601562 341 249.891601562 341 256.891601562 263 c 1,18,19
 381.891601562 490 381.891601562 490 612.391601562 924 c 128,-1,20
 842.891601562 1358 842.891601562 1358 843.891601562 1360 c 0,21,22
 877.891601562 1424 877.891601562 1424 919.891601562 1444.5 c 128,-1,23
 961.891601562 1465 961.891601562 1465 994.891601562 1448 c 0,24,25
 1013.89160156 1438 1013.89160156 1438 1023.39160156 1416.5 c 128,-1,26
 1032.89160156 1395 1032.89160156 1395 1029.39160156 1363.5 c 128,-1,27
 1025.89160156 1332 1025.89160156 1332 999.891601562 1293 c 0,28,29
 932.891601562 1187 932.891601562 1187 667.891601562 708 c 128,-1,30
 402.891601562 229 402.891601562 229 320.891601562 55 c 0,0,1
EndSplineSet
EndChar

StartChar: W
Encoding: 87 87 55
Width: 1038
GlyphClass: 2
Flags: W
LayerCount: 2
Fore
SplineSet
185.638671875 53 m 0,0,1
 170.638671875 22 170.638671875 22 141.638671875 3.5 c 128,-1,2
 112.638671875 -15 112.638671875 -15 85.138671875 -19.5 c 128,-1,3
 57.638671875 -24 57.638671875 -24 34.638671875 -22 c 0,4,5
 31.638671875 -22 31.638671875 -22 26.638671875 -22 c 0,6,7
 10.638671875 -22 10.638671875 -22 0.638671875 -21.5 c 128,-1,8
 -9.361328125 -21 -9.361328125 -21 -25.861328125 -17 c 128,-1,9
 -42.361328125 -13 -42.361328125 -13 -51.361328125 -4.5 c 128,-1,10
 -60.361328125 4 -60.361328125 4 -66.361328125 21.5 c 128,-1,11
 -72.361328125 39 -72.361328125 39 -70.361328125 64 c 0,12,13
 -69.361328125 67 -69.361328125 67 -60.361328125 191.5 c 128,-1,14
 -51.361328125 316 -51.361328125 316 -38.361328125 414 c 0,15,16
 -6.361328125 649 -6.361328125 649 89.638671875 1295 c 0,17,18
 109.638671875 1424 109.638671875 1424 181.638671875 1455 c 0,19,20
 199.638671875 1464 199.638671875 1464 218.638671875 1461.5 c 128,-1,21
 237.638671875 1459 237.638671875 1459 252.638671875 1450.5 c 128,-1,22
 267.638671875 1442 267.638671875 1442 273.138671875 1418.5 c 128,-1,23
 278.638671875 1395 278.638671875 1395 270.638671875 1363 c 0,24,25
 240.638671875 1246 240.638671875 1246 130.638671875 491 c 0,26,27
 119.638671875 421 119.638671875 421 105.138671875 300.5 c 128,-1,28
 90.638671875 180 90.638671875 180 86.638671875 153 c 1,29,30
 108.638671875 215 108.638671875 215 168.638671875 391 c 128,-1,31
 228.638671875 567 228.638671875 567 277.638671875 708.5 c 128,-1,32
 326.638671875 850 326.638671875 850 383.138671875 1010.5 c 128,-1,33
 439.638671875 1171 439.638671875 1171 480.138671875 1275.5 c 128,-1,34
 520.638671875 1380 520.638671875 1380 537.638671875 1407 c 0,35,36
 569.638671875 1457 569.638671875 1457 654.638671875 1457 c 0,37,38
 693.638671875 1459 693.638671875 1459 714.638671875 1444 c 128,-1,39
 735.638671875 1429 735.638671875 1429 735.638671875 1402 c 0,40,41
 735.638671875 1367 735.638671875 1367 727.138671875 1279.5 c 128,-1,42
 718.638671875 1192 718.638671875 1192 709.638671875 1109 c 128,-1,43
 700.638671875 1026 700.638671875 1026 681.638671875 873 c 128,-1,44
 662.638671875 720 662.638671875 720 653.638671875 638 c 0,45,46
 638.638671875 517 638.638671875 517 617.638671875 237 c 1,47,48
 716.638671875 526 716.638671875 526 857.638671875 1010 c 0,49,50
 928.638671875 1254 928.638671875 1254 941.638671875 1321 c 0,51,52
 953.638671875 1387 953.638671875 1387 990.138671875 1425 c 128,-1,53
 1026.63867188 1463 1026.63867188 1463 1062.63867188 1461 c 0,54,55
 1131.63867188 1459 1131.63867188 1459 1097.63867188 1310 c 0,56,57
 1073.63867188 1204 1073.63867188 1204 1005.63867188 990 c 0,58,59
 943.638671875 791 943.638671875 791 915.638671875 703 c 128,-1,60
 887.638671875 615 887.638671875 615 832.138671875 444 c 128,-1,61
 776.638671875 273 776.638671875 273 740.638671875 181 c 128,-1,62
 704.638671875 89 704.638671875 89 681.638671875 57 c 0,63,64
 652.638671875 14 652.638671875 14 607.638671875 -6 c 128,-1,65
 562.638671875 -26 562.638671875 -26 527.638671875 -22 c 1,66,67
 442.638671875 -22 442.638671875 -22 440.638671875 53 c 0,68,69
 439.638671875 248 439.638671875 248 487.638671875 576 c 0,70,71
 500.638671875 665 500.638671875 665 534.638671875 890 c 128,-1,72
 568.638671875 1115 568.638671875 1115 578.638671875 1198 c 1,73,74
 473.638671875 868 473.638671875 868 354.638671875 513 c 128,-1,75
 235.638671875 158 235.638671875 158 185.638671875 53 c 0,0,1
EndSplineSet
EndChar

StartChar: X
Encoding: 88 88 56
Width: 1038
GlyphClass: 2
Flags: W
LayerCount: 2
Fore
SplineSet
40.208984375 0 m 0,0,1
 9.208984375 -33 9.208984375 -33 -18.291015625 -43.5 c 128,-1,2
 -45.791015625 -54 -45.791015625 -54 -64.291015625 -46.5 c 128,-1,3
 -82.791015625 -39 -82.791015625 -39 -96.791015625 -20 c 0,4,5
 -139.791015625 36 -139.791015625 36 -66.791015625 129 c 0,6,7
 -45.791015625 155 -45.791015625 155 151.708984375 390.5 c 128,-1,8
 349.208984375 626 349.208984375 626 434.208984375 736 c 1,9,-1
 228.208984375 1266 l 2,10,11
 190.208984375 1366 190.208984375 1366 262.208984375 1420 c 0,12,13
 285.208984375 1437 285.208984375 1437 310.208984375 1443.5 c 128,-1,14
 335.208984375 1450 335.208984375 1450 362.708984375 1438 c 128,-1,15
 390.208984375 1426 390.208984375 1426 408.208984375 1391 c 0,16,17
 450.208984375 1305 450.208984375 1305 590.208984375 883 c 1,18,19
 910.208984375 1310 910.208984375 1310 990.208984375 1398 c 0,20,21
 1019.20898438 1430 1019.20898438 1430 1047.70898438 1443 c 128,-1,22
 1076.20898438 1456 1076.20898438 1456 1097.20898438 1452 c 128,-1,23
 1118.20898438 1448 1118.20898438 1448 1132.20898438 1433 c 0,24,25
 1146.20898438 1419 1146.20898438 1419 1149.70898438 1399.5 c 128,-1,26
 1153.20898438 1380 1153.20898438 1380 1144.70898438 1352 c 128,-1,27
 1136.20898438 1324 1136.20898438 1324 1113.20898438 1295 c 0,28,29
 1093.20898438 1270 1093.20898438 1270 909.708984375 1043 c 128,-1,30
 726.208984375 816 726.208984375 816 658.208984375 727 c 0,31,32
 657.208984375 727 657.208984375 727 653.708984375 723 c 128,-1,33
 650.208984375 719 650.208984375 719 648.208984375 716 c 0,34,35
 676.208984375 637 676.208984375 637 747.208984375 414.5 c 128,-1,36
 818.208984375 192 818.208984375 192 845.208984375 134 c 0,37,38
 861.208984375 98 861.208984375 98 863.708984375 70 c 128,-1,39
 866.208984375 42 866.208984375 42 858.708984375 24 c 128,-1,40
 851.208984375 6 851.208984375 6 834.208984375 -11 c 0,41,42
 812.208984375 -32 812.208984375 -32 788.708984375 -40.5 c 128,-1,43
 765.208984375 -49 765.208984375 -49 735.708984375 -37.5 c 128,-1,44
 706.208984375 -26 706.208984375 -26 682.208984375 11 c 0,45,46
 655.208984375 53 655.208984375 53 624.708984375 143.5 c 128,-1,47
 594.208984375 234 594.208984375 234 554.208984375 375 c 128,-1,48
 514.208984375 516 514.208984375 516 496.208984375 574 c 1,49,50
 413.208984375 479 413.208984375 479 237.708984375 251 c 128,-1,51
 62.208984375 23 62.208984375 23 40.208984375 0 c 0,0,1
EndSplineSet
EndChar

StartChar: Y
Encoding: 89 89 57
Width: 1038
GlyphClass: 2
Flags: W
LayerCount: 2
Fore
SplineSet
130.104492188 -24 m 0,0,1
 103.104492188 -63 103.104492188 -63 62.6044921875 -76.5 c 128,-1,2
 22.1044921875 -90 22.1044921875 -90 -8.8955078125 -61 c 0,3,4
 -23.8955078125 -46 -23.8955078125 -46 -29.8955078125 -26 c 128,-1,5
 -35.8955078125 -6 -35.8955078125 -6 -31.8955078125 21 c 128,-1,6
 -27.8955078125 48 -27.8955078125 48 -4.8955078125 77 c 2,7,-1
 292.104492188 502 l 1,8,9
 273.104492188 576 273.104492188 576 237.604492188 692 c 128,-1,10
 202.104492188 808 202.104492188 808 190.104492188 852 c 0,11,12
 176.104492188 901 176.104492188 901 147.104492188 991 c 128,-1,13
 118.104492188 1081 118.104492188 1081 100.604492188 1147 c 128,-1,14
 83.1044921875 1213 83.1044921875 1213 76.1044921875 1277 c 0,15,16
 70.1044921875 1324 70.1044921875 1324 82.1044921875 1358.5 c 128,-1,17
 94.1044921875 1393 94.1044921875 1393 112.104492188 1413 c 128,-1,18
 130.104492188 1433 130.104492188 1433 155.104492188 1444 c 0,19,20
 174.104492188 1453 174.104492188 1453 194.104492188 1454.5 c 128,-1,21
 214.104492188 1456 214.104492188 1456 232.604492188 1448.5 c 128,-1,22
 251.104492188 1441 251.104492188 1441 264.104492188 1416.5 c 128,-1,23
 277.104492188 1392 277.104492188 1392 280.104492188 1354 c 0,24,25
 282.104492188 1314 282.104492188 1314 287.604492188 1272 c 128,-1,26
 293.104492188 1230 293.104492188 1230 297.604492188 1204 c 128,-1,27
 302.104492188 1178 302.104492188 1178 315.104492188 1129 c 128,-1,28
 328.104492188 1080 328.104492188 1080 331.604492188 1068.5 c 128,-1,29
 335.104492188 1057 335.104492188 1057 352.604492188 999.5 c 128,-1,30
 370.104492188 942 370.104492188 942 371.104492188 940 c 0,31,32
 408.104492188 819 408.104492188 819 428.104492188 701 c 1,33,34
 438.104492188 714 438.104492188 714 484.104492188 784 c 0,35,36
 526.104492188 848 526.104492188 848 625.104492188 991 c 128,-1,37
 724.104492188 1134 724.104492188 1134 773.104492188 1214 c 0,38,39
 788.104492188 1239 788.104492188 1239 823.604492188 1289.5 c 128,-1,40
 859.104492188 1340 859.104492188 1340 875.104492188 1367 c 0,41,42
 895.104492188 1402 895.104492188 1402 918.104492188 1425 c 128,-1,43
 941.104492188 1448 941.104492188 1448 962.104492188 1456.5 c 128,-1,44
 983.104492188 1465 983.104492188 1465 1001.10449219 1465 c 128,-1,45
 1019.10449219 1465 1019.10449219 1465 1034.10449219 1457 c 0,46,47
 1047.10449219 1449 1047.10449219 1449 1056.60449219 1435 c 128,-1,48
 1066.10449219 1421 1066.10449219 1421 1070.10449219 1401 c 128,-1,49
 1074.10449219 1381 1074.10449219 1381 1066.60449219 1351.5 c 128,-1,50
 1059.10449219 1322 1059.10449219 1322 1038.10449219 1288 c 0,51,52
 1022.10449219 1263 1022.10449219 1263 980.104492188 1204.5 c 128,-1,53
 938.104492188 1146 938.104492188 1146 915.104492188 1109 c 0,54,55
 888.104492188 1065 888.104492188 1065 809.604492188 957.5 c 128,-1,56
 731.104492188 850 731.104492188 850 685.104492188 780 c 0,57,58
 636.104492188 705 636.104492188 705 566.104492188 602 c 128,-1,59
 496.104492188 499 496.104492188 499 453.604492188 438 c 128,-1,60
 411.104492188 377 411.104492188 377 290.104492188 204 c 128,-1,61
 169.104492188 31 169.104492188 31 130.104492188 -24 c 0,0,1
EndSplineSet
EndChar

StartChar: Z
Encoding: 90 90 58
Width: 1038
GlyphClass: 2
Flags: W
LayerCount: 2
Fore
SplineSet
854.134765625 77 m 0,0,1
 846.134765625 36 846.134765625 36 817.634765625 9 c 128,-1,2
 789.134765625 -18 789.134765625 -18 733.134765625 -18 c 0,3,4
 720.134765625 -18 720.134765625 -18 555.134765625 -13.5 c 128,-1,5
 390.134765625 -9 390.134765625 -9 253.134765625 -7.5 c 128,-1,6
 116.134765625 -6 116.134765625 -6 -38.865234375 -11 c 0,7,8
 -73.865234375 -12 -73.865234375 -12 -88.365234375 28.5 c 128,-1,9
 -102.865234375 69 -102.865234375 69 -93.865234375 107 c 0,10,11
 -82.865234375 156 -82.865234375 156 32.134765625 309 c 0,12,13
 120.134765625 426 120.134765625 426 415.634765625 770.5 c 128,-1,14
 711.134765625 1115 711.134765625 1115 857.134765625 1271 c 1,15,16
 759.134765625 1268 759.134765625 1268 553.634765625 1265.5 c 128,-1,17
 348.134765625 1263 348.134765625 1263 280.134765625 1260 c 0,18,19
 237.134765625 1258 237.134765625 1258 223.634765625 1284 c 128,-1,20
 210.134765625 1310 210.134765625 1310 218.134765625 1347 c 0,21,22
 225.134765625 1385 225.134765625 1385 267.134765625 1417.5 c 128,-1,23
 309.134765625 1450 309.134765625 1450 356.134765625 1450 c 0,24,25
 398.134765625 1450 398.134765625 1450 470.134765625 1438 c 128,-1,26
 542.134765625 1426 542.134765625 1426 589.134765625 1426 c 0,27,28
 672.134765625 1425 672.134765625 1425 757.634765625 1428.5 c 128,-1,29
 843.134765625 1432 843.134765625 1432 952.134765625 1439.5 c 128,-1,30
 1061.13476562 1447 1061.13476562 1447 1075.13476562 1448 c 0,31,32
 1108.13476562 1450 1108.13476562 1450 1124.63476562 1418 c 128,-1,33
 1141.13476562 1386 1141.13476562 1386 1132.13476562 1343 c 0,34,35
 1129.13476562 1327 1129.13476562 1327 1097.13476562 1294.5 c 128,-1,36
 1065.13476562 1262 1065.13476562 1262 1021.63476562 1221.5 c 128,-1,37
 978.134765625 1181 978.134765625 1181 959.134765625 1157 c 0,38,39
 877.134765625 1055 877.134765625 1055 710.134765625 865 c 128,-1,40
 543.134765625 675 543.134765625 675 385.134765625 489 c 128,-1,41
 227.134765625 303 227.134765625 303 123.134765625 158 c 1,42,43
 339.134765625 172 339.134765625 172 517.634765625 172.5 c 128,-1,44
 696.134765625 173 696.134765625 173 777.134765625 160 c 0,45,46
 827.134765625 149 827.134765625 149 843.634765625 129 c 128,-1,47
 860.134765625 109 860.134765625 109 854.134765625 77 c 0,0,1
EndSplineSet
EndChar

StartChar: bracketleft
Encoding: 91 91 59
Width: 1038
GlyphClass: 2
Flags: W
LayerCount: 2
Fore
SplineSet
565.264648438 -175 m 0,0,1
 516.264648438 -168 516.264648438 -168 446.764648438 -167.5 c 128,-1,2
 377.264648438 -167 377.264648438 -167 317.264648438 -170.5 c 128,-1,3
 257.264648438 -174 257.264648438 -174 179.264648438 -178 c 128,-1,4
 101.264648438 -182 101.264648438 -182 52.2646484375 -182 c 0,5,6
 4.2646484375 -182 4.2646484375 -182 -15.7353515625 -162 c 128,-1,7
 -35.7353515625 -142 -35.7353515625 -142 -27.7353515625 -107 c 0,8,9
 -23.7353515625 -88 -23.7353515625 -88 -13.7353515625 -68 c 1,10,-1
 -8.7353515625 -48 l 1,11,12
 24.2646484375 57 24.2646484375 57 93.2646484375 334 c 128,-1,13
 162.264648438 611 162.264648438 611 220.264648438 887 c 0,14,15
 232.264648438 952 232.264648438 952 250.764648438 1034 c 128,-1,16
 269.264648438 1116 269.264648438 1116 290.764648438 1204.5 c 128,-1,17
 312.264648438 1293 312.264648438 1293 327.764648438 1357.5 c 128,-1,18
 343.264648438 1422 343.264648438 1422 363.764648438 1501 c 128,-1,19
 384.264648438 1580 384.264648438 1580 387.264648438 1593 c 2,20,-1
 390.264648438 1606 l 1,21,22
 386.264648438 1623 386.264648438 1623 390.264648438 1645 c 0,23,24
 396.264648438 1681 396.264648438 1681 427.264648438 1707.5 c 128,-1,25
 458.264648438 1734 458.264648438 1734 507.264648438 1735 c 0,26,27
 657.264648438 1740 657.264648438 1740 776.764648438 1739.5 c 128,-1,28
 896.264648438 1739 896.264648438 1739 998.264648438 1742 c 0,29,30
 1043.26464844 1743 1043.26464844 1743 1057.76464844 1718.5 c 128,-1,31
 1072.26464844 1694 1072.26464844 1694 1066.26464844 1658 c 0,32,33
 1062.26464844 1641 1062.26464844 1641 1052.76464844 1623 c 128,-1,34
 1043.26464844 1605 1043.26464844 1605 1029.26464844 1589 c 128,-1,35
 1015.26464844 1573 1015.26464844 1573 994.764648438 1564.5 c 128,-1,36
 974.264648438 1556 974.264648438 1556 952.264648438 1560 c 0,37,38
 843.264648438 1577 843.264648438 1577 564.264648438 1569 c 1,39,40
 554.264648438 1525 554.264648438 1525 508.264648438 1347 c 128,-1,41
 462.264648438 1169 462.264648438 1169 432.764648438 1050.5 c 128,-1,42
 403.264648438 932 403.264648438 932 367.264648438 767 c 0,43,44
 343.264648438 645 343.264648438 645 270.264648438 343 c 128,-1,45
 197.264648438 41 197.264648438 41 183.264648438 -20 c 1,46,47
 297.264648438 -22 297.264648438 -22 443.764648438 -15.5 c 128,-1,48
 590.264648438 -9 590.264648438 -9 604.264648438 -9 c 0,49,50
 649.264648438 -9 649.264648438 -9 661.764648438 -29.5 c 128,-1,51
 674.264648438 -50 674.264648438 -50 668.264648438 -85 c 0,52,53
 664.264648438 -104 664.264648438 -104 656.764648438 -120 c 128,-1,54
 649.264648438 -136 649.264648438 -136 637.264648438 -150.5 c 128,-1,55
 625.264648438 -165 625.264648438 -165 606.764648438 -172 c 128,-1,56
 588.264648438 -179 588.264648438 -179 565.264648438 -175 c 0,0,1
EndSplineSet
EndChar

StartChar: backslash
Encoding: 92 92 60
Width: 1038
GlyphClass: 2
Flags: W
LayerCount: 2
Fore
SplineSet
532.909179688 364 m 0,0,1
 506.909179688 463 506.909179688 463 372.409179688 871.5 c 128,-1,2
 237.909179688 1280 237.909179688 1280 212.909179688 1385 c 0,3,4
 202.909179688 1437 202.909179688 1437 220.409179688 1474.5 c 128,-1,5
 237.909179688 1512 237.909179688 1512 276.909179688 1531 c 0,6,7
 303.909179688 1542 303.909179688 1542 329.909179688 1543 c 128,-1,8
 355.909179688 1544 355.909179688 1544 377.909179688 1526.5 c 128,-1,9
 399.909179688 1509 399.909179688 1509 406.909179688 1477 c 0,10,11
 476.909179688 1179 476.909179688 1179 546.909179688 944 c 0,12,13
 656.909179688 562 656.909179688 562 821.909179688 70 c 0,14,15
 836.909179688 20 836.909179688 20 818.909179688 -38.5 c 128,-1,16
 800.909179688 -97 800.909179688 -97 766.909179688 -114 c 0,17,18
 726.909179688 -138 726.909179688 -138 685.409179688 -115 c 128,-1,19
 643.909179688 -92 643.909179688 -92 626.909179688 -35 c 0,20,21
 616.909179688 -2 616.909179688 -2 583.409179688 149 c 128,-1,22
 549.909179688 300 549.909179688 300 532.909179688 364 c 0,0,1
EndSplineSet
EndChar

StartChar: bracketright
Encoding: 93 93 61
Width: 1038
GlyphClass: 2
Flags: W
LayerCount: 2
Fore
SplineSet
666.487304688 -107 m 0,0,1
 658.487304688 -142 658.487304688 -142 629.487304688 -162 c 128,-1,2
 600.487304688 -182 600.487304688 -182 551.487304688 -182 c 256,3,4
 502.487304688 -182 502.487304688 -182 426.487304688 -178 c 128,-1,5
 350.487304688 -174 350.487304688 -174 292.487304688 -170.5 c 128,-1,6
 234.487304688 -167 234.487304688 -167 164.487304688 -167.5 c 128,-1,7
 94.4873046875 -168 94.4873046875 -168 41.4873046875 -175 c 0,8,9
 17.4873046875 -179 17.4873046875 -179 1.9873046875 -172 c 128,-1,10
 -13.5126953125 -165 -13.5126953125 -165 -18.5126953125 -150.5 c 128,-1,11
 -23.5126953125 -136 -23.5126953125 -136 -23.0126953125 -120 c 128,-1,12
 -22.5126953125 -104 -22.5126953125 -104 -18.5126953125 -85 c 0,13,14
 -8.5126953125 -50 -8.5126953125 -50 13.4873046875 -29.5 c 128,-1,15
 35.4873046875 -9 35.4873046875 -9 79.4873046875 -9 c 0,16,17
 93.4873046875 -9 93.4873046875 -9 237.487304688 -15.5 c 128,-1,18
 381.487304688 -22 381.487304688 -22 495.487304688 -20 c 1,19,20
 510.487304688 41 510.487304688 41 576.487304688 343 c 128,-1,21
 642.487304688 645 642.487304688 645 674.487304688 767 c 0,22,23
 714.487304688 932 714.487304688 932 739.987304688 1050.5 c 128,-1,24
 765.487304688 1169 765.487304688 1169 801.987304688 1347 c 128,-1,25
 838.487304688 1525 838.487304688 1525 847.487304688 1569 c 1,26,27
 572.487304688 1577 572.487304688 1577 457.487304688 1560 c 0,28,29
 432.487304688 1556 432.487304688 1556 415.487304688 1564.5 c 128,-1,30
 398.487304688 1573 398.487304688 1573 391.987304688 1589 c 128,-1,31
 385.487304688 1605 385.487304688 1605 384.487304688 1623 c 128,-1,32
 383.487304688 1641 383.487304688 1641 387.487304688 1658 c 0,33,34
 397.487304688 1694 397.487304688 1694 423.987304688 1718.5 c 128,-1,35
 450.487304688 1743 450.487304688 1743 494.487304688 1742 c 0,36,37
 593.487304688 1739 593.487304688 1739 715.487304688 1739.5 c 128,-1,38
 837.487304688 1740 837.487304688 1740 982.487304688 1735 c 0,39,40
 1031.48730469 1734 1031.48730469 1734 1049.48730469 1707.5 c 128,-1,41
 1067.48730469 1681 1067.48730469 1681 1057.48730469 1645 c 0,42,43
 1052.48730469 1623 1052.48730469 1623 1039.48730469 1606 c 1,44,-1
 1036.48730469 1593 l 2,45,46
 1034.48730469 1580 1034.48730469 1580 1017.48730469 1501 c 128,-1,47
 1000.48730469 1422 1000.48730469 1422 986.487304688 1357.5 c 128,-1,48
 972.487304688 1293 972.487304688 1293 953.487304688 1204.5 c 128,-1,49
 934.487304688 1116 934.487304688 1116 914.987304688 1034 c 128,-1,50
 895.487304688 952 895.487304688 952 878.487304688 887 c 0,51,52
 808.487304688 611 808.487304688 611 749.487304688 334 c 128,-1,53
 690.487304688 57 690.487304688 57 674.487304688 -48 c 1,54,-1
 669.487304688 -68 l 1,55,56
 670.487304688 -88 670.487304688 -88 666.487304688 -107 c 0,0,1
EndSplineSet
EndChar

StartChar: asciicircum
Encoding: 94 94 62
Width: 1038
GlyphClass: 2
Flags: W
LayerCount: 2
Fore
SplineSet
216.293945312 1319 m 0,0,1
 207.293945312 1311 207.293945312 1311 192.293945312 1296 c 0,2,3
 135.293945312 1243 135.293945312 1243 110.793945312 1227.5 c 128,-1,4
 86.2939453125 1212 86.2939453125 1212 62.2939453125 1225 c 0,5,6
 48.2939453125 1233 48.2939453125 1233 37.7939453125 1248 c 128,-1,7
 27.2939453125 1263 27.2939453125 1263 20.7939453125 1284.5 c 128,-1,8
 14.2939453125 1306 14.2939453125 1306 24.2939453125 1335 c 128,-1,9
 34.2939453125 1364 34.2939453125 1364 62.2939453125 1393 c 0,10,11
 111.293945312 1446 111.293945312 1446 191.793945312 1521.5 c 128,-1,12
 272.293945312 1597 272.293945312 1597 369.793945312 1692 c 128,-1,13
 467.293945312 1787 467.293945312 1787 567.293945312 1897 c 0,14,15
 591.293945312 1923 591.293945312 1923 626.293945312 1931.5 c 128,-1,16
 661.293945312 1940 661.293945312 1940 690.793945312 1930 c 128,-1,17
 720.293945312 1920 720.293945312 1920 728.293945312 1895 c 0,18,19
 775.293945312 1790 775.293945312 1790 812.293945312 1719 c 128,-1,20
 849.293945312 1648 849.293945312 1648 869.793945312 1615 c 128,-1,21
 890.293945312 1582 890.293945312 1582 931.793945312 1520 c 128,-1,22
 973.293945312 1458 973.293945312 1458 1006.29394531 1404 c 0,23,24
 1022.29394531 1377 1022.29394531 1377 1019.29394531 1349 c 128,-1,25
 1016.29394531 1321 1016.29394531 1321 998.293945312 1299 c 128,-1,26
 980.293945312 1277 980.293945312 1277 960.293945312 1261.5 c 128,-1,27
 940.293945312 1246 940.293945312 1246 920.293945312 1238 c 0,28,29
 890.293945312 1223 890.293945312 1223 870.793945312 1239 c 128,-1,30
 851.293945312 1255 851.293945312 1255 813.293945312 1312 c 0,31,32
 803.293945312 1326 803.293945312 1326 798.293945312 1334 c 0,33,34
 715.293945312 1456 715.293945312 1456 684.293945312 1509.5 c 128,-1,35
 653.293945312 1563 653.293945312 1563 602.293945312 1678 c 1,36,37
 534.293945312 1603 534.293945312 1603 482.293945312 1552.5 c 128,-1,38
 430.293945312 1502 430.293945312 1502 400.293945312 1478 c 128,-1,39
 370.293945312 1454 370.293945312 1454 319.293945312 1411.5 c 128,-1,40
 268.293945312 1369 268.293945312 1369 216.293945312 1319 c 0,0,1
EndSplineSet
EndChar

StartChar: underscore
Encoding: 95 95 63
Width: 1038
GlyphClass: 2
Flags: W
LayerCount: 2
Fore
SplineSet
144.640625 -31 m 0,0,1
 349.640625 -34 349.640625 -34 472.640625 -33.5 c 128,-1,2
 595.640625 -33 595.640625 -33 746.640625 -30.5 c 128,-1,3
 897.640625 -28 897.640625 -28 931.640625 -28 c 0,4,5
 976.640625 -28 976.640625 -28 988.640625 -50.5 c 128,-1,6
 1000.640625 -73 1000.640625 -73 994.640625 -110 c 0,7,8
 973.640625 -199 973.640625 -199 891.640625 -199 c 0,9,10
 847.640625 -199 847.640625 -199 540.140625 -201.5 c 128,-1,11
 232.640625 -204 232.640625 -204 106.640625 -204 c 0,12,13
 24.640625 -204 24.640625 -204 45.640625 -116 c 0,14,15
 61.640625 -28 61.640625 -28 144.640625 -31 c 0,0,1
EndSplineSet
EndChar

StartChar: grave
Encoding: 96 96 64
Width: 1038
GlyphClass: 2
Flags: W
LayerCount: 2
Fore
SplineSet
564.37109375 1299 m 0,0,1
 558.37109375 1303 558.37109375 1303 515.37109375 1332.5 c 128,-1,2
 472.37109375 1362 472.37109375 1362 450.37109375 1378.5 c 128,-1,3
 428.37109375 1395 428.37109375 1395 393.87109375 1423 c 128,-1,4
 359.37109375 1451 359.37109375 1451 336.37109375 1474 c 0,5,6
 319.37109375 1492 319.37109375 1492 314.37109375 1520 c 128,-1,7
 309.37109375 1548 309.37109375 1548 315.37109375 1572 c 128,-1,8
 321.37109375 1596 321.37109375 1596 334.37109375 1615 c 0,9,10
 361.37109375 1646 361.37109375 1646 405.87109375 1655.5 c 128,-1,11
 450.37109375 1665 450.37109375 1665 480.37109375 1639 c 0,12,13
 485.37109375 1633 485.37109375 1633 522.87109375 1593 c 128,-1,14
 560.37109375 1553 560.37109375 1553 576.37109375 1536 c 128,-1,15
 592.37109375 1519 592.37109375 1519 622.87109375 1492.5 c 128,-1,16
 653.37109375 1466 653.37109375 1466 677.37109375 1450 c 0,17,18
 714.37109375 1425 714.37109375 1425 723.37109375 1383 c 128,-1,19
 732.37109375 1341 732.37109375 1341 709.37109375 1314 c 0,20,21
 686.37109375 1285 686.37109375 1285 645.87109375 1279 c 128,-1,22
 605.37109375 1273 605.37109375 1273 564.37109375 1299 c 0,0,1
EndSplineSet
EndChar

StartChar: a
Encoding: 97 97 65
Width: 1031
GlyphClass: 2
Flags: W
LayerCount: 2
Fore
SplineSet
920 -29 m 1024,0,1
344 848 m 0,2,3
 378 887 378 887 424 922 c 0,4,5
 464 953 464 953 519 978.5 c 128,-1,6
 574 1004 574 1004 653 1024 c 128,-1,7
 732 1044 732 1044 827 1044 c 0,8,9
 1006 1040 1006 1040 1041 948 c 0,10,11
 1093 809 1093 809 1037 551 c 0,12,13
 1023 490 1023 490 973 291 c 0,14,15
 963 246 963 246 945 92 c 0,16,17
 927 -78 927 -78 869 -78 c 0,18,19
 791 -78 791 -78 791 -37 c 0,20,21
 790 141 790 141 789 141 c 0,22,23
 700 28 700 28 616 -18 c 0,24,25
 548 -57 548 -57 416 -57 c 0,26,27
 357 -57 357 -57 294.5 -22.5 c 128,-1,28
 232 12 232 12 198 85 c 128,-1,29
 164 158 164 158 156 233 c 1,30,31
 168 286 168 286 194 348 c 0,32,33
 222 414 222 414 278 461 c 0,34,35
 352 527 352 527 379 539 c 0,36,37
 488 594 488 594 508 600 c 0,38,39
 663 643 663 643 668 643 c 0,40,41
 767 655 767 655 795 662 c 0,42,43
 805 664 805 664 893 696 c 1,44,45
 907 723 907 723 909 756 c 0,46,47
 910 770 910 770 901 793 c 4,48,49
 885 824 885 824 860 840 c 0,50,51
 837 856 837 856 773 860 c 0,52,53
 723 864 723 864 667.5 847.5 c 128,-1,54
 612 831 612 831 573.5 808.5 c 128,-1,55
 535 786 535 786 510 768 c 0,56,57
 487 750 487 750 477 741 c 0,58,59
 378 635 378 635 319 688 c 0,60,61
 253 746 253 746 344 848 c 0,2,3
493 102 m 0,62,63
 526 102 526 102 562 114.5 c 128,-1,64
 598 127 598 127 639 155.5 c 128,-1,65
 680 184 680 184 716 224 c 128,-1,66
 752 264 752 264 785.5 326.5 c 128,-1,67
 819 389 819 389 840 465 c 1,68,69
 459 430 459 430 332 270 c 1,70,71
 354 178 354 178 394 140 c 128,-1,72
 434 102 434 102 493 102 c 0,62,63
EndSplineSet
EndChar

StartChar: b
Encoding: 98 98 66
Width: 1038
GlyphClass: 2
Flags: W
LayerCount: 2
Fore
SplineSet
974.68359375 536 m 0,0,1
 951.68359375 428 951.68359375 428 909.18359375 336 c 128,-1,2
 866.68359375 244 866.68359375 244 814.68359375 178 c 128,-1,3
 762.68359375 112 762.68359375 112 701.68359375 65 c 128,-1,4
 640.68359375 18 640.68359375 18 579.18359375 -5 c 128,-1,5
 517.68359375 -28 517.68359375 -28 459.68359375 -28 c 0,6,7
 300.68359375 -28 300.68359375 -28 212.68359375 68 c 1,8,9
 196.68359375 19 196.68359375 19 171.18359375 -0.5 c 128,-1,10
 145.68359375 -20 145.68359375 -20 111.68359375 -22 c 0,11,12
 20.68359375 -26 20.68359375 -26 47.68359375 90 c 0,13,14
 103.68359375 342 103.68359375 342 214.18359375 813 c 128,-1,15
 324.68359375 1284 324.68359375 1284 369.68359375 1459 c 0,16,17
 384.68359375 1522 384.68359375 1522 411.18359375 1546.5 c 128,-1,18
 437.68359375 1571 437.68359375 1571 473.68359375 1573 c 0,19,20
 516.68359375 1577 516.68359375 1577 537.68359375 1549 c 128,-1,21
 558.68359375 1521 558.68359375 1521 540.68359375 1449 c 0,22,23
 536.68359375 1431 536.68359375 1431 493.18359375 1247 c 128,-1,24
 449.68359375 1063 449.68359375 1063 416.68359375 922 c 1,25,26
 554.68359375 1014 554.68359375 1014 712.68359375 1014 c 0,27,28
 827.68359375 1012 827.68359375 1012 899.18359375 950.5 c 128,-1,29
 970.68359375 889 970.68359375 889 989.68359375 781.5 c 128,-1,30
 1008.68359375 674 1008.68359375 674 974.68359375 536 c 0,0,1
631.68359375 845 m 0,31,32
 510.68359375 851 510.68359375 851 374.68359375 746 c 1,33,34
 318.68359375 501 318.68359375 501 251.68359375 228 c 1,35,36
 280.68359375 184 280.68359375 184 328.68359375 165.5 c 128,-1,37
 376.68359375 147 376.68359375 147 448.68359375 147 c 0,38,39
 574.68359375 147 574.68359375 147 665.68359375 248 c 128,-1,40
 756.68359375 349 756.68359375 349 794.68359375 520 c 0,41,42
 812.68359375 606 812.68359375 606 802.18359375 677.5 c 128,-1,43
 791.68359375 749 791.68359375 749 748.18359375 795.5 c 128,-1,44
 704.68359375 842 704.68359375 842 631.68359375 845 c 0,31,32
EndSplineSet
EndChar

StartChar: c
Encoding: 99 99 67
Width: 1038
GlyphClass: 2
Flags: W
LayerCount: 2
Fore
SplineSet
958.311523438 815 m 0,0,1
 958.311523438 698 958.311523438 698 868.311523438 659 c 0,2,3
 847.311523438 651 847.311523438 651 830.811523438 650 c 128,-1,4
 814.311523438 649 814.311523438 649 798.811523438 655 c 128,-1,5
 783.311523438 661 783.311523438 661 773.811523438 680.5 c 128,-1,6
 764.311523438 700 764.311523438 700 763.311523438 732 c 0,7,8
 763.311523438 742 763.311523438 742 762.311523438 765 c 128,-1,9
 761.311523438 788 761.311523438 788 760.811523438 799 c 128,-1,10
 760.311523438 810 760.311523438 810 757.311523438 828 c 128,-1,11
 754.311523438 846 754.311523438 846 748.811523438 855.5 c 128,-1,12
 743.311523438 865 743.311523438 865 733.811523438 875 c 128,-1,13
 724.311523438 885 724.311523438 885 708.811523438 889.5 c 128,-1,14
 693.311523438 894 693.311523438 894 673.311523438 894 c 0,15,16
 642.311523438 894 642.311523438 894 606.811523438 881.5 c 128,-1,17
 571.311523438 869 571.311523438 869 527.811523438 836.5 c 128,-1,18
 484.311523438 804 484.311523438 804 443.811523438 755.5 c 128,-1,19
 403.311523438 707 403.311523438 707 364.311523438 627.5 c 128,-1,20
 325.311523438 548 325.311523438 548 297.311523438 449 c 0,21,22
 210.311523438 133 210.311523438 133 422.311523438 120 c 0,23,24
 514.311523438 116 514.311523438 116 582.311523438 147 c 128,-1,25
 650.311523438 178 650.311523438 178 672.311523438 217 c 0,26,27
 692.311523438 251 692.311523438 251 712.811523438 272 c 128,-1,28
 733.311523438 293 733.311523438 293 752.311523438 299.5 c 128,-1,29
 771.311523438 306 771.311523438 306 786.311523438 304 c 128,-1,30
 801.311523438 302 801.311523438 302 816.311523438 294 c 0,31,32
 885.311523438 255 885.311523438 255 813.311523438 145 c 0,33,34
 789.311523438 108 789.311523438 108 750.311523438 73 c 128,-1,35
 711.311523438 38 711.311523438 38 655.311523438 5.5 c 128,-1,36
 599.311523438 -27 599.311523438 -27 520.811523438 -46 c 128,-1,37
 442.311523438 -65 442.311523438 -65 355.311523438 -64 c 0,38,39
 269.311523438 -62 269.311523438 -62 207.811523438 -24 c 128,-1,40
 146.311523438 14 146.311523438 14 116.311523438 76.5 c 128,-1,41
 86.3115234375 139 86.3115234375 139 80.8115234375 218 c 128,-1,42
 75.3115234375 297 75.3115234375 297 96.3115234375 381 c 0,43,44
 130.311523438 521 130.311523438 521 184.811523438 637 c 128,-1,45
 239.311523438 753 239.311523438 753 304.311523438 834 c 128,-1,46
 369.311523438 915 369.311523438 915 444.811523438 971 c 128,-1,47
 520.311523438 1027 520.311523438 1027 597.811523438 1053.5 c 128,-1,48
 675.311523438 1080 675.311523438 1080 753.311523438 1080 c 0,49,50
 847.311523438 1080 847.311523438 1080 903.311523438 1001 c 128,-1,51
 959.311523438 922 959.311523438 922 958.311523438 815 c 0,0,1
EndSplineSet
EndChar

StartChar: d
Encoding: 100 100 68
Width: 1038
GlyphClass: 2
Flags: W
LayerCount: 2
Fore
SplineSet
647.458007812 -18 m 0,0,1
 589.458007812 -30 589.458007812 -30 571.958007812 11.5 c 128,-1,2
 554.458007812 53 554.458007812 53 565.458007812 131 c 1,3,4
 537.458007812 98 537.458007812 98 510.458007812 72 c 128,-1,5
 483.458007812 46 483.458007812 46 445.958007812 22 c 128,-1,6
 408.458007812 -2 408.458007812 -2 362.958007812 -15 c 128,-1,7
 317.458007812 -28 317.458007812 -28 266.458007812 -28 c 0,8,9
 206.458007812 -28 206.458007812 -28 154.958007812 -5 c 128,-1,10
 103.458007812 18 103.458007812 18 61.9580078125 66.5 c 128,-1,11
 20.4580078125 115 20.4580078125 115 -2.5419921875 183 c 128,-1,12
 -25.5419921875 251 -25.5419921875 251 -25.0419921875 348.5 c 128,-1,13
 -24.5419921875 446 -24.5419921875 446 3.4580078125 559 c 0,14,15
 33.4580078125 696 33.4580078125 696 105.458007812 806 c 128,-1,16
 177.458007812 916 177.458007812 916 280.958007812 980.5 c 128,-1,17
 384.458007812 1045 384.458007812 1045 500.458007812 1047 c 0,18,19
 661.458007812 1047 661.458007812 1047 753.458007812 960 c 1,20,21
 843.458007812 1339 843.458007812 1339 878.458007812 1448 c 0,22,23
 916.458007812 1575 916.458007812 1575 1004.45800781 1575 c 0,24,25
 1042.45800781 1573 1042.45800781 1573 1056.95800781 1546.5 c 128,-1,26
 1071.45800781 1520 1071.45800781 1520 1051.45800781 1448 c 0,27,28
 1017.45800781 1326 1017.45800781 1326 932.458007812 996.5 c 128,-1,29
 847.458007812 667 847.458007812 667 808.458007812 497 c 0,30,31
 784.458007812 382 784.458007812 382 771.958007812 296 c 128,-1,32
 759.458007812 210 759.458007812 210 758.958007812 175 c 128,-1,33
 758.458007812 140 758.458007812 140 756.958007812 113 c 128,-1,34
 755.458007812 86 755.458007812 86 748.458007812 68 c 0,35,36
 724.458007812 -1 724.458007812 -1 647.458007812 -18 c 0,0,1
326.458007812 153 m 0,37,38
 355.458007812 153 355.458007812 153 382.958007812 159 c 128,-1,39
 410.458007812 165 410.458007812 165 430.958007812 173.5 c 128,-1,40
 451.458007812 182 451.458007812 182 473.458007812 199 c 128,-1,41
 495.458007812 216 495.458007812 216 509.958007812 228.5 c 128,-1,42
 524.458007812 241 524.458007812 241 543.458007812 264 c 128,-1,43
 562.458007812 287 562.458007812 287 571.458007812 299.5 c 128,-1,44
 580.458007812 312 580.458007812 312 598.458007812 336 c 0,45,46
 603.458007812 343 603.458007812 343 605.458007812 346 c 0,47,48
 610.458007812 368 610.458007812 368 619.958007812 409.5 c 128,-1,49
 629.458007812 451 629.458007812 451 637.458007812 486.5 c 128,-1,50
 645.458007812 522 645.458007812 522 653.458007812 554 c 0,51,52
 658.458007812 577 658.458007812 577 670.458007812 623 c 128,-1,53
 682.458007812 669 682.458007812 669 687.458007812 692 c 1,54,55
 665.458007812 769 665.458007812 769 613.458007812 820 c 128,-1,56
 561.458007812 871 561.458007812 871 488.458007812 868 c 0,57,58
 413.458007812 864 413.458007812 864 348.458007812 817.5 c 128,-1,59
 283.458007812 771 283.458007812 771 239.958007812 699 c 128,-1,60
 196.458007812 627 196.458007812 627 175.458007812 541 c 0,61,62
 131.458007812 358 131.458007812 358 170.958007812 255 c 128,-1,63
 210.458007812 152 210.458007812 152 326.458007812 153 c 0,37,38
EndSplineSet
EndChar

StartChar: e
Encoding: 101 101 69
Width: 1038
GlyphClass: 2
Flags: W
LayerCount: 2
Fore
SplineSet
801.383789062 123 m 0,0,1
 763.383789062 79 763.383789062 79 726.383789062 49 c 128,-1,2
 689.383789062 19 689.383789062 19 636.883789062 -7.5 c 128,-1,3
 584.383789062 -34 584.383789062 -34 513.883789062 -46.5 c 128,-1,4
 443.383789062 -59 443.383789062 -59 354.383789062 -57 c 0,5,6
 178.383789062 -54 178.383789062 -54 114.383789062 90 c 128,-1,7
 50.3837890625 234 50.3837890625 234 111.383789062 486 c 0,8,9
 144.383789062 623 144.383789062 623 205.883789062 733.5 c 128,-1,10
 267.383789062 844 267.383789062 844 344.383789062 916.5 c 128,-1,11
 421.383789062 989 421.383789062 989 512.383789062 1028 c 128,-1,12
 603.383789062 1067 603.383789062 1067 698.383789062 1067 c 0,13,14
 753.383789062 1067 753.383789062 1067 810.883789062 1032 c 128,-1,15
 868.383789062 997 868.383789062 997 910.383789062 932 c 128,-1,16
 952.383789062 867 952.383789062 867 956.383789062 791 c 1,17,18
 954.383789062 740 954.383789062 740 907.883789062 680 c 128,-1,19
 861.383789062 620 861.383789062 620 817.383789062 589 c 0,20,21
 778.383789062 561 778.383789062 561 722.383789062 531 c 128,-1,22
 666.383789062 501 666.383789062 501 596.383789062 472 c 128,-1,23
 526.383789062 443 526.383789062 443 476.883789062 423 c 128,-1,24
 427.383789062 403 427.383789062 403 353.383789062 376 c 128,-1,25
 279.383789062 349 279.383789062 349 260.383789062 342 c 1,26,27
 255.383789062 292 255.383789062 292 259.883789062 253 c 128,-1,28
 264.383789062 214 264.383789062 214 279.883789062 181.5 c 128,-1,29
 295.383789062 149 295.383789062 149 327.383789062 130.5 c 128,-1,30
 359.383789062 112 359.383789062 112 406.383789062 110 c 0,31,32
 452.383789062 107 452.383789062 107 502.883789062 122.5 c 128,-1,33
 553.383789062 138 553.383789062 138 589.883789062 161.5 c 128,-1,34
 626.383789062 185 626.383789062 185 649.383789062 202.5 c 128,-1,35
 672.383789062 220 672.383789062 220 681.383789062 230 c 0,36,37
 773.383789062 336 773.383789062 336 828.383789062 283 c 0,38,39
 888.383789062 224 888.383789062 224 801.383789062 123 c 0,0,1
628.383789062 907 m 0,40,41
 598.383789062 907 598.383789062 907 564.883789062 895 c 128,-1,42
 531.383789062 883 531.383789062 883 493.383789062 854.5 c 128,-1,43
 455.383789062 826 455.383789062 826 421.383789062 785.5 c 128,-1,44
 387.383789062 745 387.383789062 745 355.383789062 683 c 128,-1,45
 323.383789062 621 323.383789062 621 302.383789062 546 c 1,46,47
 660.383789062 643 660.383789062 643 772.383789062 740 c 1,48,49
 753.383789062 833 753.383789062 833 718.383789062 870 c 128,-1,50
 683.383789062 907 683.383789062 907 628.383789062 907 c 0,40,41
EndSplineSet
EndChar

StartChar: f
Encoding: 102 102 70
Width: 1038
GlyphClass: 2
Flags: W
HStem: -35 182<16.9535 213.655 370.62 639.683> 826 177<203.63 329.62 538.62 880.501> 843 167<630.895 893.045> 1389 177<767.417 1037.28>
DStem2: 231.62 302 389.62 245 0.192036 0.981388<-125.217 535.03 749.852 991.009>
LayerCount: 2
Fore
SplineSet
551.620117188 -33 m 0,0,1
 548.620117188 -33 548.620117188 -33 431.120117188 -35 c 128,-1,2
 313.620117188 -37 313.620117188 -37 211.120117188 -35.5 c 128,-1,3
 108.620117188 -34 108.620117188 -34 46.6201171875 -28 c 0,4,5
 -0.3798828125 -27 -0.3798828125 -27 -14.8798828125 1 c 128,-1,6
 -29.3798828125 29 -29.3798828125 29 -19.3798828125 68 c 0,7,8
 -10.3798828125 107 -10.3798828125 107 16.1201171875 132 c 128,-1,9
 42.6201171875 157 42.6201171875 157 90.6201171875 156 c 0,10,11
 109.620117188 154 109.620117188 154 147.620117188 153 c 128,-1,12
 185.620117188 152 185.620117188 152 204.620117188 151 c 1,13,14
 214.620117188 188 214.620117188 188 217.620117188 222 c 128,-1,15
 220.620117188 256 220.620117188 256 231.620117188 302 c 0,16,17
 240.620117188 340 240.620117188 340 254.620117188 418 c 128,-1,18
 268.620117188 496 268.620117188 496 292.120117188 626 c 128,-1,19
 315.620117188 756 315.620117188 756 329.620117188 828 c 1,20,21
 296.620117188 826 296.620117188 826 242.620117188 826 c 0,22,23
 167.620117188 826 167.620117188 826 187.620117188 914 c 0,24,25
 204.620117188 1003 204.620117188 1003 281.620117188 1003 c 2,26,-1
 365.620117188 1003 l 1,27,28
 371.620117188 1036 371.620117188 1036 385.620117188 1098 c 0,29,30
 408.620117188 1196 408.620117188 1196 453.620117188 1275.5 c 128,-1,31
 498.620117188 1355 498.620117188 1355 557.120117188 1408.5 c 128,-1,32
 615.620117188 1462 615.620117188 1462 687.620117188 1498 c 128,-1,33
 759.620117188 1534 759.620117188 1534 835.120117188 1550 c 128,-1,34
 910.620117188 1566 910.620117188 1566 991.620117188 1566 c 0,35,36
 1028.62011719 1566 1028.62011719 1566 1048.12011719 1545.5 c 128,-1,37
 1067.62011719 1525 1067.62011719 1525 1058.62011719 1485 c 0,38,39
 1049.62011719 1444 1049.62011719 1444 1024.12011719 1416.5 c 128,-1,40
 998.620117188 1389 998.620117188 1389 970.620117188 1389 c 0,41,42
 813.620117188 1389 813.620117188 1389 699.120117188 1303 c 128,-1,43
 584.620117188 1217 584.620117188 1217 552.620117188 1078 c 0,44,45
 542.620117188 1036 542.620117188 1036 538.620117188 1006 c 1,46,47
 817.620117188 1010 817.620117188 1010 852.620117188 1010 c 0,48,49
 893.620117188 1010 893.620117188 1010 905.120117188 989 c 128,-1,50
 916.620117188 968 916.620117188 968 910.620117188 933 c 0,51,52
 889.620117188 843 889.620117188 843 814.620117188 843 c 0,53,54
 794.620117188 843 794.620117188 843 748.120117188 841.5 c 128,-1,55
 701.620117188 840 701.620117188 840 628.620117188 837 c 128,-1,56
 555.620117188 834 555.620117188 834 504.620117188 833 c 1,57,58
 493.620117188 779 493.620117188 779 452.620117188 567.5 c 128,-1,59
 411.620117188 356 411.620117188 356 389.620117188 245 c 0,60,61
 370.620117188 153 370.620117188 153 370.620117188 147 c 1,62,63
 521.620117188 140 521.620117188 140 595.620117188 140 c 0,64,65
 639.620117188 140 639.620117188 140 655.620117188 118 c 128,-1,66
 671.620117188 96 671.620117188 96 663.620117188 61 c 0,67,68
 654.620117188 22 654.620117188 22 626.120117188 -5.5 c 128,-1,69
 597.620117188 -33 597.620117188 -33 551.620117188 -33 c 0,0,1
EndSplineSet
EndChar

StartChar: g
Encoding: 103 103 71
Width: 1038
GlyphClass: 2
Flags: W
LayerCount: 2
Fore
SplineSet
831.983398438 -85 m 0,0,1
 799.983398438 -187 799.983398438 -187 748.983398438 -272 c 128,-1,2
 697.983398438 -357 697.983398438 -357 636.983398438 -416.5 c 128,-1,3
 575.983398438 -476 575.983398438 -476 505.983398438 -517.5 c 128,-1,4
 435.983398438 -559 435.983398438 -559 364.483398438 -578.5 c 128,-1,5
 292.983398438 -598 292.983398438 -598 221.983398438 -598 c 0,6,7
 165.983398438 -598 165.983398438 -598 114.483398438 -580 c 128,-1,8
 62.9833984375 -562 62.9833984375 -562 32.9833984375 -541 c 0,9,10
 30.9833984375 -539 30.9833984375 -539 22.4833984375 -533 c 128,-1,11
 13.9833984375 -527 13.9833984375 -527 11.4833984375 -525.5 c 128,-1,12
 8.9833984375 -524 8.9833984375 -524 2.9833984375 -518.5 c 128,-1,13
 -3.0166015625 -513 -3.0166015625 -513 -4.0166015625 -510.5 c 128,-1,14
 -5.0166015625 -508 -5.0166015625 -508 -9.0166015625 -502.5 c 128,-1,15
 -13.0166015625 -497 -13.0166015625 -497 -13.0166015625 -493 c 128,-1,16
 -13.0166015625 -489 -13.0166015625 -489 -14.0166015625 -482 c 128,-1,17
 -15.0166015625 -475 -15.0166015625 -475 -14.0166015625 -467.5 c 128,-1,18
 -13.0166015625 -460 -13.0166015625 -460 -10.0166015625 -451 c 0,19,20
 -1.0166015625 -411 -1.0166015625 -411 28.4833984375 -384 c 128,-1,21
 57.9833984375 -357 57.9833984375 -357 84.9833984375 -364 c 0,22,23
 97.9833984375 -366 97.9833984375 -366 119.483398438 -382.5 c 128,-1,24
 140.983398438 -399 140.983398438 -399 168.483398438 -413 c 128,-1,25
 195.983398438 -427 195.983398438 -427 225.983398438 -427 c 0,26,27
 316.983398438 -427 316.983398438 -427 406.983398438 -383 c 128,-1,28
 496.983398438 -339 496.983398438 -339 568.483398438 -258 c 128,-1,29
 639.983398438 -177 639.983398438 -177 675.983398438 -74 c 0,30,31
 691.983398438 -31 691.983398438 -31 720.983398438 77 c 1,32,33
 600.983398438 -64 600.983398438 -64 407.983398438 -64 c 1,34,35
 233.983398438 -60 233.983398438 -60 183.983398438 71 c 128,-1,36
 133.983398438 202 133.983398438 202 193.983398438 460 c 0,37,38
 223.983398438 583 223.983398438 583 274.983398438 682.5 c 128,-1,39
 325.983398438 782 325.983398438 782 387.983398438 848.5 c 128,-1,40
 449.983398438 915 449.983398438 915 524.483398438 959.5 c 128,-1,41
 598.983398438 1004 598.983398438 1004 674.483398438 1023.5 c 128,-1,42
 749.983398438 1043 749.983398438 1043 828.983398438 1043 c 0,43,44
 923.983398438 1043 923.983398438 1043 962.483398438 1034 c 128,-1,45
 1000.98339844 1025 1000.98339844 1025 1035.98339844 999 c 0,46,47
 1049.98339844 989 1049.98339844 989 1051.98339844 968.5 c 128,-1,48
 1053.98339844 948 1053.98339844 948 1048.48339844 928 c 128,-1,49
 1042.98339844 908 1042.98339844 908 1031.98339844 894 c 0,50,51
 1030.98339844 892 1030.98339844 892 1026.98339844 887.5 c 128,-1,52
 1022.98339844 883 1022.98339844 883 1020.98339844 881 c 1,53,54
 1062.98339844 868 1062.98339844 868 1047.98339844 802 c 0,55,56
 1046.98339844 797 1046.98339844 797 997.483398438 572.5 c 128,-1,57
 947.983398438 348 947.983398438 348 908.983398438 192.5 c 128,-1,58
 869.983398438 37 869.983398438 37 831.983398438 -85 c 0,0,1
381.983398438 526 m 0,59,60
 364.983398438 461 364.983398438 461 352.483398438 401 c 128,-1,61
 339.983398438 341 339.983398438 341 340.483398438 288 c 128,-1,62
 340.983398438 235 340.983398438 235 351.983398438 196 c 128,-1,63
 362.983398438 157 362.983398438 157 392.983398438 135.5 c 128,-1,64
 422.983398438 114 422.983398438 114 469.983398438 116 c 0,65,66
 521.983398438 118 521.983398438 118 568.983398438 136 c 128,-1,67
 615.983398438 154 615.983398438 154 650.983398438 181.5 c 128,-1,68
 685.983398438 209 685.983398438 209 715.983398438 245.5 c 128,-1,69
 745.983398438 282 745.983398438 282 765.483398438 317.5 c 128,-1,70
 784.983398438 353 784.983398438 353 797.983398438 390 c 1,71,72
 812.983398438 450 812.983398438 450 844.983398438 585.5 c 128,-1,73
 876.983398438 721 876.983398438 721 893.983398438 791 c 0,74,75
 899.983398438 816 899.983398438 816 915.983398438 839 c 1,76,-1
 905.983398438 841 l 1,77,78
 820.983398438 873 820.983398438 873 741.983398438 870 c 0,79,80
 704.983398438 868 704.983398438 868 666.483398438 855.5 c 128,-1,81
 627.983398438 843 627.983398438 843 584.983398438 816 c 128,-1,82
 541.983398438 789 541.983398438 789 504.983398438 751 c 128,-1,83
 467.983398438 713 467.983398438 713 435.483398438 655 c 128,-1,84
 402.983398438 597 402.983398438 597 381.983398438 526 c 0,59,60
EndSplineSet
EndChar

